<?xml version="1.0" standalone="no"?>
<!DOCTYPE svg PUBLIC "-//W3C//DTD SVG 1.1//EN" "http://www.w3.org/Graphics/SVG/1.1/DTD/svg11.dtd" >
<svg xmlns="http://www.w3.org/2000/svg">
<metadata>
Created by FontPrep 20130207 at Thu Oct 11 13:03:49 2018
 By Maxx Crawford
Copyright (c) 2011, Sorkin Type Co (www.sorkintype.com)with Reserved Font Name "Arbutus".This Font Software is licensed under the SIL Open Font License,Version 1.1. This license is available with a FAQ at:http://scripts.sil.org/OFL
</metadata>
<defs>
<font id="d4a237ba2a722507221642e96615b15b" horiz-adv-x='1024' >
  <font-face 
    font-family="Arbutus"
    font-weight="400"
    font-stretch="normal"
    units-per-em="2048"
    panose-1="2 0 0 0 0 0 0 0 0 0"
    ascent="1638"
    descent="-410"
    x-height="1070"
    cap-height="1440"
    bbox="-262 -550 3142 2010"
    underline-thickness="198"
    underline-position="-92"
    unicode-range="U+0001-FB02"
  />
<missing-glyph horiz-adv-x="0" 
 />
    <glyph glyph-name=".notdef" horiz-adv-x="0" 
 />
    <glyph glyph-name=".null" horiz-adv-x="0" 
 />
    <glyph glyph-name="nonmarkingreturn" horiz-adv-x="0" 
 />
    <glyph glyph-name="uni0001" horiz-adv-x="0" 
 />
    <glyph glyph-name="uni0002" horiz-adv-x="0" 
 />
    <glyph glyph-name="uni0003" horiz-adv-x="0" 
 />
    <glyph glyph-name="uni0004" horiz-adv-x="0" 
 />
    <glyph glyph-name="uni0005" horiz-adv-x="0" 
 />
    <glyph glyph-name="uni0006" horiz-adv-x="0" 
 />
    <glyph glyph-name="uni0007" horiz-adv-x="0" 
 />
    <glyph glyph-name="uni0008" horiz-adv-x="0" 
 />
    <glyph glyph-name="uni0009" unicode="&#x9;" horiz-adv-x="0" 
 />
    <glyph glyph-name="uni0010" horiz-adv-x="0" 
 />
    <glyph glyph-name="uni0011" horiz-adv-x="0" 
 />
    <glyph glyph-name="uni0012" horiz-adv-x="0" 
 />
    <glyph glyph-name="uni0013" horiz-adv-x="0" 
 />
    <glyph glyph-name="uni0014" horiz-adv-x="0" 
 />
    <glyph glyph-name="uni0015" horiz-adv-x="0" 
 />
    <glyph glyph-name="uni0016" horiz-adv-x="0" 
 />
    <glyph glyph-name="uni0017" horiz-adv-x="0" 
 />
    <glyph glyph-name="uni0018" horiz-adv-x="0" 
 />
    <glyph glyph-name="uni0019" horiz-adv-x="0" 
 />
    <glyph glyph-name="space" unicode=" " horiz-adv-x="838" 
 />
    <glyph glyph-name="exclam" unicode="!" horiz-adv-x="705" 
d="M106 0q29 61 29 185q0 125 -30 185q90 -30 265 -30t235 30q-25 -46 -25 -179t25 -191q-79 25 -249 25t-250 -25zM123 735q39 6 39 119t-35 327t-52 259q105 -35 245 -35q208 0 313 35q-65 -238 -85 -534q-2 -38 -2 -60q0 -104 39 -111q-106 -39 -106 -245q0 -32 3 -50
q-53 15 -128 15q-76 0 -128 -15l-1 15l1 64q0 184 -103 216z" />
    <glyph glyph-name="quotedbl" unicode="&#x22;" horiz-adv-x="1360" 
d="M611 1630q-51 -108 -51 -288q0 -54 21 -82q-83 -71 -105 -205q-6 -38 -10 -75q-20 12 -106 12t-116 -12q-20 194 -115 280q21 29 21 82q0 85 -16 167t-35 121q72 -30 258 -30q187 0 254 30zM1261 1630q-51 -108 -51 -288q0 -54 21 -82q-83 -71 -105 -205q-6 -38 -10 -75
q-20 12 -106 12t-116 -12q-20 194 -115 280q21 29 21 82q0 85 -16 167t-35 121q72 -30 258 -30t254 30z" />
    <glyph glyph-name="numbersign" unicode="#" horiz-adv-x="1703" 
d="M1001 577l46 298h-341l-50 -298h345zM120 352q15 39 15 121t-15 127q39 -21 158 -22t173 -1l46 298q-291 0 -337 -23q15 39 15 121t-15 127q42 -23 250 -23h118q31 207 31 274t-10 89q70 -21 142 -21t146 21q-43 -56 -96 -363h337q31 207 31 274t-10 89q70 -21 142 -21
t146 21q-43 -56 -96 -363q154 4 292 23q-15 -39 -15 -121t15 -127q-142 21 -327 23l-50 -298q202 2 337 23q-15 -39 -15 -121t15 -127q-164 23 -371 23q-27 -184 -27 -267t13 -108q-62 25 -143 25t-145 -25q48 68 100 375h-348q-27 -184 -27 -267t13 -108q-62 25 -143 25
t-145 -25q48 68 100 375q-251 0 -300 -23z" />
    <glyph glyph-name="dollar" unicode="$" horiz-adv-x="1703" 
d="M223 0q20 80 20 225t-20 210q95 -15 194 -15t167 15q0 -91 80 -153t198 -62q117 0 164 20q46 20 68 47q22 29 22 69q0 86 -93 147q-93 62 -284 62q-192 0 -321 -33q-4 64 -74 136t-148 72h-10q47 20 47 197t-33 235h7q82 0 204 110q69 62 95 108q26 47 28 70
q55 -34 228 -50q-14 306 -45 340q39 -15 109 -15q198 0 225 15q-38 -52 -58 -336q90 17 140 46q18 -72 72 -119q39 33 55 99q28 -20 97 -20t132 20q-18 -72 -18 -220t18 -235q-85 15 -179 15t-162 -15q0 93 -80 159t-225 66q-146 0 -205 -73q-22 -27 -22 -65q0 -82 82 -136
q82 -53 298 -53t300 25q7 -66 83 -142t157 -76h10q-47 -20 -47 -199t33 -233h-7q-85 0 -204 -104q-120 -104 -123 -174q-46 30 -184 41q18 -251 51 -294q-34 15 -167 15t-173 -15q34 37 51 291q-77 -10 -127 -38q-20 68 -72 110q-41 -30 -55 -90q-50 25 -146 25t-153 -25z
" />
    <glyph glyph-name="percent" unicode="%" horiz-adv-x="2211" 
d="M1647 538q-107 0 -107 -175t107 -175q51 0 72 30q35 51 35 152q0 168 -107 168zM1219 343q0 148 -40 196q81 16 139 64t74 120q101 -30 269 -30t237 30q16 -72 74 -120t139 -64q-40 -49 -40 -196q0 -148 40 -194q-129 1 -189 -81q-21 -28 -28 -68q-85 30 -257 30
t-241 -30q-24 112 -144 140q-36 8 -73 9q40 46 40 194zM567 1255q-107 0 -107 -175t107 -175q51 -1 72 29q35 51 35 153q0 168 -107 168zM139 1060q0 148 -40 196q81 16 139 64t74 120q101 -30 269 -30t237 30q16 -72 74 -120t139 -64q-40 -49 -40 -196q0 -148 40 -194
q-129 0 -189 -82q-21 -28 -28 -67q-85 30 -257 30t-241 -30q-24 113 -144 141q-36 8 -73 8q40 46 40 194zM369 1q-1 0 -2 -1q1 1 2 1zM1517 1405q43 -26 140 -26t173 26q-51 -29 -491 -560t-620 -785q-33 -46 -39 -60q-42 25 -137 25t-174 -24q68 26 525 589
q458 564 593 762q30 44 30 53z" />
    <glyph glyph-name="ampersand" unicode="&#x26;" horiz-adv-x="1868" 
d="M528 413q0 -140 104 -176q32 -11 69 -11q111 0 190 119q-9 24 -89 90q-171 141 -209 150q-65 -67 -65 -172zM764 1223q-62 -1 -96 -37t-35 -86q0 -80 59 -149t121 -100q31 21 64 88t33 134q0 66 -42 108t-104 42zM168 424q0 168 -25 214q48 0 97 28q96 54 120 116
q-42 55 -129 106q27 63 27 203t-22 184q5 -1 6 -1h6q58 0 124 40q124 73 141 126q52 -35 219 -35q166 0 205 35q19 -52 128 -111t176 -59h7q4 0 6 1q-22 -44 -22 -184t27 -203q-92 -36 -181 -125q-31 -31 -54 -66q61 -63 126 -116q130 97 172 250q14 47 13 87q0 40 -7 67
q14 -17 87 -24q73 -6 105 -6q160 0 233 22q-25 -46 -25 -117q0 -72 2 -96t4 -44q3 -20 6 -37l6 -34q-66 16 -117 16q-162 0 -314 -212q115 -159 274 -159q96 0 149 20q-15 -81 -15 -160q0 -78 15 -150q-71 25 -286 25t-244 -25q-3 85 -118 174q-89 -79 -138 -174
q-51 25 -230 25t-254 -25q-52 75 -160 151q-108 75 -165 75q25 30 25 198z" />
    <glyph glyph-name="quotesingle" unicode="'" horiz-adv-x="680" 
d="M596 1630q-51 -108 -51 -288q0 -54 21 -82q-82 -71 -104 -205q-6 -38 -11 -75q-20 12 -106 12t-116 -12q-20 194 -115 280q21 29 21 82q0 85 -16 167t-35 121q72 -30 258 -30q187 0 254 30z" />
    <glyph glyph-name="parenleft" unicode="(" horiz-adv-x="1021" 
d="M160 158q30 41 30 247t-44 277q-16 26 -39 47q47 43 65 118t18 256t-30 222q105 14 190 122q84 107 94 203q84 -25 217 -25q132 0 209 25q-15 -36 -15 -106q0 -69 15 -114q-96 0 -142 -36t-74 -84t-50 -126q-20 -78 -32 -189q-12 -112 -11 -266q-1 -154 11 -266
q12 -113 32 -191q38 -146 105 -197q66 -52 161 -52q-15 -45 -15 -114t15 -106q-77 25 -209 25t-217 -25q-7 96 -94 219q-87 122 -190 136z" />
    <glyph glyph-name="parenright" unicode=")" horiz-adv-x="1021" 
d="M577 -197q-84 25 -216 25t-210 -25q15 36 15 106q0 69 -15 114q95 1 141 37q47 36 76 85q28 49 49 127q20 78 32 191q11 112 11 266t-11 266q-12 111 -32 189q-38 144 -105 195q-66 51 -161 51q15 45 15 114t-15 106q77 -25 210 -25q132 0 216 25q10 -96 94 -203
t190 -122q-30 -41 -30 -255q0 -215 44 -292q16 -28 39 -49q-48 -44 -65 -115q-18 -71 -18 -243t30 -213q-103 -14 -190 -136q-87 -123 -94 -219z" />
    <glyph glyph-name="asterisk" unicode="*" horiz-adv-x="1190" 
d="M404 1756q46 -23 179 -23t189 23q-83 -278 -123 -443q67 46 205 149t164 122q-1 -4 -1 -22q0 -50 41 -177t79 -170q-214 0 -447 -19q125 -93 362 -257q-64 -12 -204 -147q-57 -55 -79 -91q-45 134 -173 415q-55 -139 -154 -436q-34 51 -147 130t-167 89q152 107 375 296
q-240 20 -450 20q38 44 78 169q41 125 41 188v12q32 -23 169 -126t189 -140q-27 99 -41 148l-26 91q-11 41 -23 79t-21 69t-15 51z" />
    <glyph glyph-name="plus" unicode="+" horiz-adv-x="1360" 
d="M516 125q23 109 23 240q0 130 -4 176q-46 4 -94 4q-213 0 -322 -23q15 42 15 110q0 173 -15 218q109 -23 243 -23t173 5q4 44 4 92q0 213 -23 323q65 -15 178 -15t150 15q-23 -109 -23 -235q0 -125 5 -180q55 -5 98 -5q208 0 317 23q-15 -65 -15 -178t15 -150
q-109 23 -240 23t-175 -4q-5 -38 -5 -90q0 -217 23 -326q-43 15 -110 15q-173 0 -218 -15z" />
    <glyph glyph-name="comma" unicode="," horiz-adv-x="680" 
d="M91 0q29 65 29 213q0 147 -30 217q90 -30 265 -30t235 30q-30 -56 -30 -231t28 -242q-80 -14 -147 -113t-90 -177q-34 41 -142 69q-26 6 -42 7h-8q48 48 71 141q8 32 8 68t-11 68q-89 -6 -136 -20z" />
    <glyph glyph-name="hyphen" unicode="-" horiz-adv-x="1021" 
d="M99 840q78 -23 223 -23h376q145 0 223 23q-15 -52 -15 -184t15 -184q-78 23 -223 23h-376q-145 0 -223 -23q15 52 15 184q0 131 -15 184z" />
    <glyph glyph-name="period" unicode="." horiz-adv-x="680" 
d="M91 0q29 65 29 213q0 147 -30 217q90 -30 265 -30t235 30q-25 -58 -25 -211q0 -152 25 -219q-80 25 -250 25t-249 -25z" />
    <glyph glyph-name="slash" unicode="/" horiz-adv-x="1021" 
d="M602 1588q0 25 -6 37q75 -20 194 -20t194 20q-63 -44 -173 -407l-310 -974q-83 -271 -83 -358q0 -24 6 -36q-60 20 -138 20q-187 0 -250 -20q48 34 148 334l335 1047q83 266 83 357z" />
    <glyph glyph-name="zero" unicode="0" horiz-adv-x="1698" 
d="M849 220q121 0 177 92q68 113 68 390q0 400 -126 480q-43 28 -97 28t-84 -5q-29 -5 -57 -23q-126 -80 -126 -446q0 -312 68 -424q56 -92 177 -92zM1569 735q-66 -23 -66 -154t33 -257q9 -34 18 -56q-90 -12 -194 -105q-104 -92 -121 -183q-85 45 -341 45q-354 0 -439 -45
q-17 91 -121 183q-103 92 -194 105q51 119 51 326q0 118 -66 141q70 19 70 198q0 178 -55 239h6q80 0 196 110q66 62 92 108q25 47 27 70q66 -35 253 -50q62 -5 131 -5q134 0 241 18t143 37q6 -74 120 -181t194 -107h7q-55 -61 -55 -248q0 -112 39 -166q13 -18 31 -23z" />
    <glyph glyph-name="one" unicode="1" horiz-adv-x="1021" 
d="M97 145q0 74 -17 115q168 0 230 76q24 28 23 71v94q0 125 -42 183q-14 20 -32 21q50 9 69 111q5 26 5 54q0 62 -35 89q-35 26 -116 26t-123 -7q11 66 11 148t-13 136q137 0 200 26t101 64q38 37 61 98q47 -15 121 -15q205 0 239 15q-17 -164 -17 -399v-150
q0 -115 54 -175q16 -18 34 -21q-35 -4 -61 -69q-27 -65 -27 -135v-94q0 -147 236 -147q-15 -90 -15 -148t15 -112q-243 32 -524 25t-394 -25q17 71 17 145z" />
    <glyph glyph-name="two" unicode="2" horiz-adv-x="1529" 
d="M137 249q0 128 -25 180q84 3 203 80t151 123q33 46 33 72t-24 44q22 -8 54 -8q33 0 79 14t94 38q98 48 174 126q75 79 75 154q1 76 -45 108t-138 32t-140 -22q-46 -22 -71 -62q-41 -67 -41 -238q-98 20 -189 20q-92 0 -215 -20q4 16 8 34t10 66t7 143q0 94 -25 144
q216 0 362 178q90 -45 325 -45q324 0 391 41q0 -115 97 -235q97 -121 184 -151q-63 -49 -113 -115t-79 -117q-30 -51 -30 -91q0 -39 31 -52q-143 -9 -363 -150q-220 -142 -322 -272q108 -43 243 -43q134 1 176 119q12 33 12 76q73 -15 179 -15t198 15q-15 -80 -15 -222
t15 -193q-73 25 -187 25q-115 0 -177 -18t-77 -27q-93 45 -397 45q-303 0 -453 -25q25 116 25 244z" />
    <glyph glyph-name="three" unicode="3" horiz-adv-x="1529" 
d="M104 159q16 29 16 157t-16 204q96 -15 223 -15t202 15q0 -300 226 -300q97 0 156 55q58 55 58 120q0 112 -62 161q-62 50 -162 50q-39 0 -73 -2t-69 -4q16 60 16 114q0 53 -16 123q49 -3 99 -3q107 0 182 51t75 149q0 186 -184 186q-173 0 -227 -168q-20 -62 -19 -152
q-78 15 -193 15t-210 -15q15 80 15 201t-15 181q239 0 376 168q84 -45 262 -45q247 0 332 45q25 -59 126 -117t184 -58q-32 -59 -32 -191t32 -196q-132 -47 -213 -134q41 -49 122 -83q81 -33 133 -33q-27 -42 -27 -201q0 -158 27 -212q-80 1 -200 -79q-120 -79 -157 -156
q-70 35 -259 35q-281 0 -351 -35q-92 106 -238 150q-62 18 -139 19z" />
    <glyph glyph-name="four" unicode="4" horiz-adv-x="1529" 
d="M1029 1335q0 -229 40 -256q-40 4 -79 4q-74 0 -128 -22q-53 -22 -153 -83q-101 -61 -157 -145t-70 -169q56 -15 131 -15q75 -1 129 3t82 18q27 14 34 42t7 97t-11 121q75 -25 150 -25q76 0 102 2q26 1 46 5t39 8q18 4 39 10q-6 -54 -14 -94t-9 -72q0 -69 16 -94t90 -25
h29q75 0 120 5q-15 -39 -15 -98q0 -102 15 -137q-89 14 -150 14q-106 0 -106 -52v-54q0 -41 54 -52t163 -11q-15 -72 -15 -139t15 -121q-165 25 -463 25t-439 -25q15 54 15 134q0 81 -15 126q206 0 253 9q46 9 60 21t14 33l-1 94q-105 14 -244 14q-139 -1 -199 -1t-106 -2
q-131 -4 -211 -18q7 18 7 53q0 61 -22 137t-45 124q86 31 222 180q209 230 299 434q28 64 28 102q63 -25 188 -25q201 0 289 35q-24 -36 -24 -115z" />
    <glyph glyph-name="five" unicode="5" horiz-adv-x="1529" 
d="M133 451q108 -16 230 -16t202 16q-1 -9 -1 -15v-13q0 -109 58 -156t124 -47q122 0 180 52t58 179q0 160 -128 208q-40 15 -90 15q-120 0 -189 -74q-50 20 -124 20h-97q-91 0 -211 -20q26 52 26 397t-26 443q140 -35 556 -35q416 1 639 25q41 4 54 10q-15 -40 -15 -142
q0 -174 15 -253q-105 15 -234 15t-190 -15q0 96 -27 121q-46 44 -155 44t-208 -49l3 -295q60 4 106 27t64 52q57 -25 207 -25q149 0 224 25q16 -81 107 -176t145 -95q-26 -45 -26 -226q0 -182 26 -228q-61 0 -198 -82t-165 -148q-82 35 -293 35q-212 0 -282 -35
q-122 149 -356 149q8 37 8 126q0 90 -17 186z" />
    <glyph glyph-name="six" unicode="6" horiz-adv-x="1529" 
d="M634 272q55 -52 158 -52q202 0 202 230q0 173 -120 205q-38 10 -84 10t-85 -10q-39 -11 -67 -35q-59 -52 -59 -173q0 -123 55 -175zM1430 460q0 -178 26 -230q-99 -14 -218 -94q-120 -81 -148 -146q-91 35 -245 35q-222 0 -309 -35q-38 59 -123 109q-168 98 -312 109
q25 35 39 221q4 55 4 120t-20 109t-57 49q78 7 78 224q-1 94 -15 157t-26 83q103 18 208 93t150 186q42 -31 230 -42q54 -3 103 -3q194 0 261 45q122 -149 345 -149q-8 -45 -8 -87q0 -135 17 -225q-108 16 -230 16t-202 -16q0 187 -102 220q-34 11 -82 11q-108 0 -165 -50
t-57 -176v-191q84 36 110 88q54 -25 244 -25t239 18q16 -77 121 -139t170 -62q-26 -45 -26 -223z" />
    <glyph glyph-name="seven" unicode="7" horiz-adv-x="1360" 
d="M183 1420q205 0 237 20q20 -81 79 -110q64 41 86 110q115 -35 354 -35t306 35q-1 -4 -1 -24q0 -53 39 -138t92 -109q-123 -22 -194 -139q-72 -117 -72 -220q0 -62 27 -77q-69 -19 -162 -133q-94 -114 -94 -241q0 -99 180 -99q-15 -72 -15 -135t15 -125q-186 25 -330 25
q-358 0 -495 -25q17 53 17 134t-17 126q167 0 261 124q76 100 77 211q0 111 -39 138q175 53 270 271q30 68 49 148q-68 12 -243 12t-175 -215v-21q0 -53 5 -78q-78 15 -139 15q-166 0 -260 -15q26 139 26 240q0 246 -26 350q73 -20 142 -20z" />
    <glyph glyph-name="eight" unicode="8" horiz-adv-x="1529" 
d="M534 413q0 -193 230 -193t229 193q-1 109 -59 155t-170 47q-112 -1 -171 -47t-59 -155zM924 874q54 43 54 154q0 137 -120 178q-40 14 -93 14q-101 0 -153 -52t-52 -126t15 -112t42 -60q48 -39 150 -39q103 0 157 43zM95 449q0 148 -21 189q90 0 200 66q36 22 59 50
q-89 94 -217 134q27 54 27 198t-27 189q84 0 182 58t124 117q55 -28 172 -36q118 -9 170 -9q103 0 205 14q103 14 136 31q24 -58 122 -116q98 -59 184 -59q-26 -48 -26 -191q0 -144 26 -196q-128 -40 -217 -134q66 -78 204 -108q34 -8 56 -8q-21 -37 -21 -190t39 -223
q-85 0 -209 -80t-163 -155q-79 37 -288 37t-289 -15q-81 -15 -95 -22q-41 77 -164 156t-207 79q38 76 38 224z" />
    <glyph glyph-name="nine" unicode="9" horiz-adv-x="1529" 
d="M741 766q98 0 150 47t52 167q0 190 -120 228q-37 12 -82 12q-96 0 -149 -54t-53 -186q0 -174 120 -204q37 -10 82 -10zM142 451q102 -16 218 -16q117 0 193 16q0 -185 112 -220q35 -11 83 -11q104 0 153 50t49 176v192q-107 -38 -135 -89q-52 25 -223 25q-172 0 -217 -18
q-18 98 -179 174q-59 28 -98 27q25 51 25 227t-25 226q94 13 208 94t140 146q53 -24 140 -35q88 -10 130 -10q82 0 166 14t113 31q35 -60 113 -109q153 -98 290 -109q-40 -63 -40 -333q0 -73 20 -117t53 -49q-74 -7 -74 -224q0 -162 39 -240q-96 -17 -192 -92t-140 -187
q-53 35 -291 35t-304 -35q-49 63 -96 91q-98 58 -223 58q8 37 8 129t-16 183z" />
    <glyph glyph-name="colon" unicode=":" horiz-adv-x="680" 
d="M91 0q29 65 29 213q0 147 -30 217q90 -30 265 -30t235 30q-25 -58 -25 -211q0 -152 25 -219q-80 25 -250 25t-249 -25zM91 640q29 65 29 213q0 147 -30 217q90 -30 265 -30t235 30q-25 -58 -25 -211q0 -152 25 -219q-80 25 -250 25t-249 -25z" />
    <glyph glyph-name="semicolon" unicode=";" horiz-adv-x="680" 
d="M91 0q29 65 29 213q0 147 -30 217q90 -30 265 -30t235 30q-30 -56 -30 -227t30 -243q-83 -15 -129 -83q-46 -69 -46 -137q-20 12 -108 12t-110 -12q30 52 30 149t-23 129q-68 -6 -113 -18zM91 640q29 65 29 213q0 147 -30 217q90 -30 265 -30t235 30q-25 -58 -25 -211
q0 -152 25 -219q-80 25 -250 25t-249 -25z" />
    <glyph glyph-name="less" unicode="&#x3c;" horiz-adv-x="1536" 
d="M133 641q0 30 -13 53q134 27 527 236q546 291 598 351q-22 -33 -22 -153q0 -187 25 -225q-2 1 -16 1t-48 -12t-79 -34q-44 -22 -94 -49q-49 -27 -101 -57t-102 -58q-50 -29 -93 -53q296 -172 391 -218q95 -45 132 -45q7 0 10 1q-25 -38 -25 -192t21 -186q-62 67 -529 314
t-595 273q13 23 13 53z" />
    <glyph glyph-name="equal" unicode="=" horiz-adv-x="1360" 
d="M119 590q109 -23 323 -23h476q214 0 323 23q-15 -60 -15 -167t15 -143q-119 25 -323 25h-476q-204 0 -323 -25q15 42 15 154q0 111 -15 156zM119 1070q109 -23 323 -23h476q214 0 323 23q-15 -60 -15 -167t15 -143q-119 25 -323 25h-476q-204 0 -323 -25q15 42 15 154
q0 111 -15 156z" />
    <glyph glyph-name="greater" unicode="&#x3e;" horiz-adv-x="1536" 
d="M291 1281q-3 1 -3 4zM291 1l-3 -4q0 2 3 4zM291 1q22 33 22 153q0 187 -25 225q3 -1 16 -1q14 0 48 12t78 34q102 49 390 217q-43 24 -93 53t-101 58q-267 152 -314 152q-21 0 -24 -1q25 38 25 191t-22 186q57 -62 525 -311t600 -275q-13 -23 -13 -53t13 -53
q-128 -26 -516 -231q-548 -290 -609 -356z" />
    <glyph glyph-name="question" unicode="?" horiz-adv-x="1364" 
d="M386 0q29 61 29 185q0 125 -30 185q90 -30 265 -30t235 30q-25 -46 -25 -179t25 -191q-79 25 -249 25t-250 -25zM633 454q-102 0 -138 -18q0 65 -38 101q-38 37 -82 42q43 34 60 121q5 26 5 59t-11 58q149 0 265 73t116 184q0 146 -128 146q-136 0 -181 -172
q-16 -62 -16 -151q-76 16 -186 16t-205 -16q16 85 16 218t-8 167q213 0 343 168q52 -45 248 -45q195 0 236 45q15 -62 105 -121q90 -58 181 -58q-25 -51 -25 -189t25 -188q-103 -4 -257 -94q-170 -100 -171 -218q0 -75 33 -144q-85 16 -187 16z" />
    <glyph glyph-name="at" unicode="@" horiz-adv-x="2563" 
d="M1100 498q0 -106 36 -168q36 -64 95 -64q81 0 143 108q61 108 61 334q0 42 -5 129q-59 44 -125 44q-65 1 -103 -25t-60 -72t-32 -114q-10 -66 -10 -172zM1403 -332h-100q-471 0 -763 188q-316 203 -350 593q-12 145 -40 187q-13 20 -33 24q49 8 77 124l16 68
q49 208 217 348t391 207t440 67q462 0 728 -126q296 -141 370 -451q10 -43 18 -85q29 -148 72 -152q-52 -5 -78 -129q-8 -36 -14 -74q-26 -187 -176 -295q-126 -90 -272 -91q-146 0 -257 -35q-15 88 -115 180q-88 -79 -90 -180q-25 25 -214 25t-214 -25q-24 84 -145 160
t-202 76q46 64 46 301q0 236 -46 299q75 0 196 70q184 106 207 174q56 -28 105 -32q48 -3 89 -3q121 0 172 35q22 -104 76 -137q43 54 55 117q44 -25 172 -25q127 0 177 25q-68 -103 -104 -335q-12 -73 -11 -159q1 -164 29 -250t57 -86q183 0 240 239q20 84 20 198
q-1 114 -31 201q-30 88 -86 154q-208 250 -754 249q-844 0 -844 -685q0 -416 206 -607t692 -191q113 0 225 22t184 43t89 51q0 -74 62 -130q24 -21 60 -35q-110 -38 -125 -155q-30 48 -424 48z" />
    <glyph glyph-name="A" unicode="A" 
d="M648 746q0 -32 6 -51t24 -30q16 -11 44 -15t73 -5q87 0 117 20t30 66q0 47 -18 98t-42 107t-49 112t-38 101q-15 -45 -40 -101t-49 -112t-40 -107q-18 -51 -18 -83zM20 131q0 81 -10 129q87 3 146 55q141 217 141 365q0 48 -22 55q56 15 131 158t109 354q10 63 10 112
l-4 60q1 5 1 9v12q89 -35 327 -35q237 0 338 35v-13l-5 -64q0 -160 57 -334t101 -229t77 -65q-25 -9 -25 -53q0 -82 43 -182q43 -101 96 -182q97 -58 169 -58q-10 -48 -10 -129t12 -131q-225 25 -431 25t-344 -25q8 45 8 129q0 83 -8 131q104 0 147 37q-4 85 -59 119
t-219 34t-209 -22q-43 -22 -59 -52t-20 -78q48 -38 165 -38q-8 -24 -8 -119t8 -141q-203 38 -495 20q-88 -6 -170 -20q12 50 12 131z" />
    <glyph glyph-name="B" unicode="B" horiz-adv-x="1539" 
d="M1092 429q0 95 -25 131q-49 70 -147 70q-171 0 -236 -29q-9 -61 -9 -152t8 -205q89 -24 212 -24q197 0 197 209zM928 840q32 15 58 52t26 125q0 89 -20 121q-39 62 -142 62t-167 -28q-7 -49 -7 -141t9 -187q53 -19 132 -19t111 15zM115 125q0 63 -15 135q93 0 126 24
q32 24 44 52t12 71q0 308 -69 328q39 13 50 54q19 71 19 179t-12 136t-44 52q-33 24 -126 24q15 72 15 135t-15 125q66 -26 478 -34q50 -1 84 -1q419 0 499 35q3 -58 108 -136q105 -77 174 -80q-30 -56 -30 -214q0 -159 30 -210q-80 -15 -163 -89q105 -62 235 -81
q-30 -49 -30 -209t30 -205q-87 -3 -190 -61q-157 -88 -172 -155q-50 25 -491 25q-76 0 -166 -3t-152 -5q-218 -7 -244 -17q15 62 15 125z" />
    <glyph glyph-name="C" unicode="C" 
d="M778 1405q217 0 305 55q24 -76 79 -119q42 33 58 99q36 -20 166 -20q129 0 197 20q-25 -100 -25 -188q0 -243 25 -377q-90 15 -212 15q-121 0 -218 -15q0 142 -72 238q-72 97 -196 97q-84 0 -127 -24q-162 -92 -162 -449q0 -426 176 -496q52 -21 113 -21q118 0 184 93
q65 93 65 246v18t-1 18q121 -25 245 -25q123 0 205 25q-25 -50 -25 -171t25 -221q-155 -1 -269 -89q-83 -63 -106 -124q-92 35 -306 35q-215 0 -355 -28q-40 -8 -56 -17q-24 91 -148 184q-125 92 -237 104q19 26 35 106t16 210q0 129 -66 151q70 19 70 198q0 178 -55 239h8
q96 0 238 110q82 63 113 109q30 46 32 69q33 -18 115 -36t166 -19z" />
    <glyph glyph-name="D" unicode="D" horiz-adv-x="1703" 
d="M1179 759q0 451 -295 451q-122 0 -198 -29q-11 -89 -11 -253q0 -417 12 -686q85 -22 169 -22t140 30q184 99 183 509zM115 125q0 63 -15 135q93 0 126 24q32 24 44 52t12 71q0 308 -69 328q38 13 49 57q20 76 20 180t-12 132t-44 52q-33 24 -126 24q15 72 15 135t-15 125
q66 -26 478 -34q50 -1 84 -1q476 0 560 35q2 -38 77 -104q77 -66 187 -100q34 -10 58 -12q-10 -60 -10 -125q0 -129 38 -240q38 -110 90 -124q-54 -12 -91 -119t-37 -217q0 -111 10 -183q-79 -3 -170 -60q-141 -88 -152 -156q-86 25 -485 25q-556 0 -637 -25q15 62 15 125z
" />
    <glyph glyph-name="E" unicode="E" horiz-adv-x="1533" 
d="M115 125q0 63 -15 135q93 0 126 24q32 24 44 52t12 71q0 308 -69 328q39 13 50 54q19 71 19 179t-12 136t-44 52q-33 24 -126 24q15 72 15 135t-15 125q102 -26 596 -34q60 -1 96 -1t92 1q56 2 120 4q364 14 430 30q-25 -131 -25 -208q0 -187 25 -287q-63 25 -181 25
t-193 -25q16 47 16 105q0 98 -62 135q-42 25 -93 25q-161 0 -228 -49q-10 -58 -10 -151q0 -94 9 -139q50 -22 156 -22t163 30q-15 -41 -15 -104q0 -150 15 -185q-59 33 -168 33q-108 0 -151 -19q-9 -54 -9 -167t13 -175q78 -42 200 -42q123 0 164 92q16 36 16 104
q0 67 -16 119q74 -25 140 -25q171 0 234 25q-25 -108 -25 -210q0 -188 25 -325q-124 25 -572 25q-636 0 -762 -25q15 62 15 125z" />
    <glyph glyph-name="F" unicode="F" horiz-adv-x="1538" 
d="M115 125q0 63 -15 135q93 0 126 24q32 24 44 52t12 71q0 308 -69 328q39 13 50 54q19 71 19 179t-12 136t-44 52q-33 24 -126 24q15 72 15 135t-15 125q102 -26 596 -34q60 -1 96 -1t96 1q60 2 130 4q401 14 467 30q-25 -131 -25 -208q0 -187 25 -287q-68 25 -133 25
q-170 0 -242 -25q16 47 16 105q0 97 -85 135q-56 25 -113 25q-93 0 -145 -11t-90 -38q-10 -58 -10 -151q0 -94 9 -139q55 -22 125 -22q189 0 244 30q-15 -41 -15 -104q0 -150 15 -185q-59 33 -188 33q-128 0 -181 -19q-9 -54 -9 -197q0 -90 73 -119q73 -28 249 -28
q-15 -72 -15 -135t15 -125q-117 25 -448 25q-332 0 -457 -25q15 62 15 125z" />
    <glyph glyph-name="G" unicode="G" horiz-adv-x="1699" 
d="M845 25q-258 0 -340 -45q-23 91 -158 183q-134 92 -247 105q19 26 35 106t16 210q0 129 -66 151q70 19 70 198q0 178 -55 239h8q98 0 249 110q87 63 119 109q33 46 35 69q98 -55 304 -55q104 -1 167 21q62 22 81 34q23 -74 86 -113q36 33 51 93q36 -20 169 -20
q132 0 204 20q-25 -100 -25 -188q0 -243 25 -377q-90 15 -220 15t-220 -15q-1 232 -129 308q-46 27 -94 27q-50 0 -85 -6t-67 -24q-148 -87 -148 -445q0 -177 25 -269t67 -144q73 -92 213 -92q197 0 197 137q0 46 -21 59q-36 24 -121 24q15 52 15 119q0 66 -15 126
q96 -25 194 -25q334 0 446 25q-66 -167 -66 -463q0 -168 19 -232q-81 0 -215 82q-38 23 -64 46q-51 -2 -117 -56t-66 -92q-53 28 -142 37q-88 8 -114 8z" />
    <glyph glyph-name="H" unicode="H" horiz-adv-x="1879" 
d="M82 125q0 63 -15 135q100 0 132 24q31 24 41 52t9 71q0 308 -69 328q38 13 50 60q19 80 19 256q0 108 -95 124q-30 5 -67 5h-20q15 72 15 135t-15 125q95 -35 324 -35t325 14t116 21q-15 -62 -15 -125t15 -135h-19q-78 0 -107 -20q-56 -37 -56 -107q0 -139 9 -202
q109 -21 278 -21t283 22q9 63 9 151q1 88 -11 113q-12 24 -40 44t-111 20h-20q15 72 15 135t-15 125q95 -35 324 -35t325 14t116 21q-15 -62 -15 -125t15 -135h-19q-78 0 -107 -20q-56 -37 -56 -119q0 -166 15 -230t54 -76q-69 -20 -69 -328q0 -119 103 -140q34 -7 79 -7
q-15 -72 -15 -135t15 -125q-121 25 -385 25t-380 -25q15 62 15 125t-15 135q100 0 132 24q31 24 41 52t9 109q0 81 -9 155q-119 25 -279 25t-282 -23q-9 -74 -9 -156t12 -110t44 -52q33 -24 126 -24q-15 -72 -15 -135t15 -125q-121 25 -385 25t-380 -25q15 62 15 125z" />
    <glyph glyph-name="I" unicode="I" horiz-adv-x="1022" 
d="M125 125q0 63 -15 135q212 0 212 147q0 308 -69 328q38 13 50 60q19 80 19 256q0 129 -203 129h-19q15 72 15 135t-15 125q57 -21 211 -28q155 -7 213 -7q115 0 234 11q120 11 157 24q-15 -62 -15 -125t15 -135h-21q-83 0 -114 -20q-57 -36 -57 -118q0 -167 15 -231
t54 -76q-69 -20 -69 -328q1 -118 123 -140q40 -7 89 -7q-15 -72 -15 -135t15 -125q-121 25 -415 25t-410 -25q15 62 15 125z" />
    <glyph glyph-name="J" unicode="J" horiz-adv-x="1368" 
d="M743 735q77 26 77 187t-45 205q-45 43 -144 48t-203 5q15 72 15 139t-15 121q115 -35 472 -35q358 0 473 35q-15 -54 -15 -121t15 -139h-20q-75 0 -104 -27q-28 -27 -28 -110q0 -166 17 -231t54 -77q-40 0 -56 -164q-4 -46 -4 -92q0 -176 46 -211q-88 -12 -161 -96
t-94 -182q-54 35 -325 35t-358 -35q-8 178 -148 254q-52 28 -127 29q25 83 25 132q0 82 -11 156t-22 94q75 -25 234 -25t256 25q-13 -58 -13 -142q0 -83 22 -153q-42 -6 -62 -30t-21 -49t33 -43t96 -18q210 0 210 285q0 210 -69 230z" />
    <glyph glyph-name="K" unicode="K" horiz-adv-x="1879" 
d="M115 125q0 63 -15 135q93 0 126 24q32 24 44 52t12 71q0 308 -69 328q38 13 50 60q19 80 19 256q0 107 -100 124q-30 5 -63 5h-19q15 72 15 135t-15 125q95 -35 327 -35q338 0 438 35q-15 -62 -15 -125t15 -135h-21q-82 0 -110 -20q-51 -35 -51 -108q0 -139 10 -209
q22 -7 47 -7h44q20 0 43 1t51 1t66 3q98 59 167 146q68 86 68 116q0 51 -27 64t-115 13q15 45 15 129t-17 131q78 -35 320 -35q243 0 377 35q-15 -30 -15 -78v-64q0 -73 15 -118q-120 0 -202 -107t-82 -202q-116 -27 -231 -122q58 -58 184 -110t184 -52q-6 -29 -6 -71
q0 -97 63 -177q63 -79 151 -79q-11 -33 -11 -130t12 -130q-32 13 -142 19q-108 6 -138 6q-30 -1 -62 -1t-70 -1q-195 -5 -237 -23q21 40 21 127t-43 133q67 39 75 114q2 24 3 58q0 34 -26 74t-68 72q-95 72 -201 71l-66 1q-89 0 -145 -24q-12 -78 -12 -170q-1 -92 9 -120
t41 -52t132 -24q-15 -72 -15 -135t15 -125q-121 25 -385 25t-380 -25q15 62 15 125z" />
    <glyph glyph-name="L" unicode="L" horiz-adv-x="1532" 
d="M115 125q0 63 -15 135q93 0 126 24q32 24 44 52t12 71q0 308 -69 328q38 13 50 60q19 80 19 256q0 107 -100 124q-30 5 -63 5h-19q15 72 15 135t-15 125q95 -35 331 -35t341 14t125 21q-15 -62 -15 -125t15 -135h-21q-193 0 -193 -129q0 -249 38 -295q13 -16 31 -21
q-69 -20 -69 -328q0 -80 13 -145q76 -38 162 -38t127 6q42 6 67 27q45 38 45 173q0 134 -37 216q-8 18 -11 34q68 -25 223 -25t221 25l-19 -57q-64 -192 -64 -340q2 -39 2 -79t3 -102q3 -61 27 -102q-119 25 -573 25q-644 0 -769 -25q15 62 15 125z" />
    <glyph glyph-name="M" unicode="M" horiz-adv-x="2220" 
d="M122 125q0 63 -15 135q127 0 164 63q36 63 36 253q0 70 -17 112t-40 47q79 24 79 316q1 107 -99 124q-30 5 -64 5h-19q15 72 15 135t-15 125q90 -35 332 -35q243 0 343 35q4 -122 172 -457q69 -137 116 -205q76 108 181 341q104 233 107 321q95 -35 291 -35t281 14
t103 21q-15 -62 -15 -125t15 -135h-19q-78 0 -107 -20q-56 -37 -56 -109q0 -292 79 -316q-23 -5 -40 -47t-17 -102q1 -59 11 -99t17 -81q14 -83 56 -114q42 -32 136 -32q-15 -72 -15 -135t15 -125q-121 25 -385 25t-380 -25q15 62 15 125t-15 135q100 0 146 34t46 112
q0 154 -14 301t-37 209q-59 0 -164 -224q-55 -117 -77 -192q-23 -74 -24 -95q-47 15 -134 15t-134 -15q-4 72 -81 238q-121 260 -183 263q-32 -102 -32 -499q0 -84 45 -115q45 -32 147 -32q-15 -72 -15 -135t15 -125q-121 25 -385 25t-380 -25q15 62 15 125z" />
    <glyph glyph-name="N" unicode="N" horiz-adv-x="1875" 
d="M115 125q0 63 -15 135q93 0 126 24q32 24 44 52t12 95q0 284 -69 304q38 13 50 60q19 80 19 256q0 107 -100 124q-30 5 -63 5h-19q15 72 15 135t-15 125q97 -35 260 -35q162 0 315 28q0 -131 141 -357t259 -346q117 -120 145 -120h2l6 -1q24 90 24 442q0 107 -100 124
q-30 5 -63 5h-19q15 72 15 135t-15 125q95 -35 327 -35q338 0 438 35q-15 -62 -15 -125t15 -135h-21q-82 0 -110 -20q-51 -35 -51 -118q0 -298 79 -307q-37 -20 -49 -74q-20 -98 -20 -234q0 -299 57 -427q-78 25 -232 25t-239 -25q-1 140 -209 418q-117 156 -202 242
t-124 117q-31 -73 -31 -370q0 -86 41 -116q41 -31 141 -31q-15 -72 -15 -135t15 -125q-121 25 -385 25t-380 -25q15 62 15 125z" />
    <glyph glyph-name="O" unicode="O" 
d="M853 220q127 0 189 92q76 115 76 390q0 472 -200 503q-32 5 -65 5t-65 -5t-62 -23q-138 -82 -138 -445q0 -433 160 -497q48 -20 105 -20zM1557 584q0 -130 16 -210t35 -106q-113 -13 -242 -105q-130 -92 -153 -183q-80 45 -314 45q-326 0 -406 -45q-23 91 -153 183
t-242 105q19 26 35 106t16 210q0 129 -66 151q70 19 70 198q0 178 -55 239h8q97 0 244 110q85 63 116 109t33 69q61 -35 233 -50q58 -5 121 -5q123 0 222 18q98 18 132 37q3 -46 75 -116q112 -110 242 -157q42 -15 76 -15h8q-55 -61 -55 -248q0 -112 39 -166q13 -18 31 -23
q-66 -22 -66 -151z" />
    <glyph glyph-name="P" unicode="P" horiz-adv-x="1533" 
d="M824 735q118 0 173 68t55 176q0 157 -104 211q-38 20 -118 20t-145 -33q-9 -61 -9 -177t10 -244q67 -21 138 -21zM115 125q0 63 -15 135q93 0 126 24q32 24 44 52t12 71q0 308 -69 328q39 13 50 54q19 71 19 179t-12 136t-44 52q-33 24 -126 24q15 72 15 135t-15 125
q66 -26 478 -34q50 -1 84 -1q494 0 581 35q4 -60 89 -137t143 -79q-30 -60 -30 -252t30 -252q-73 -13 -149 -77t-111 -133q-90 33 -246 33q-157 0 -277 -38q-9 -33 -9 -84q0 -102 53 -131q53 -30 229 -30q-15 -72 -15 -135t15 -125q-121 25 -430 25q-310 0 -435 -25
q15 62 15 125z" />
    <glyph glyph-name="Q" unicode="Q" 
d="M1036 312q72 114 72 390q0 400 -130 480q-45 28 -102 28q-56 0 -88 -5t-60 -23q-130 -80 -130 -446q0 -312 71 -424q59 -93 184 -92q125 0 183 92zM1132 -268q0 74 -7 125t-37 87q-62 77 -245 79t-301 -26q-34 -8 -49 -17q-24 91 -148 184q-125 92 -237 104q19 26 35 106
t16 210q0 129 -66 151q70 19 70 198q0 178 -55 239h8q96 0 238 110q82 63 113 109q30 46 32 69q61 -35 233 -50q58 -5 121 -5q123 0 222 18q98 18 132 37q4 -45 73 -116q106 -109 236 -157q40 -15 74 -15h8q-55 -61 -55 -248q0 -112 39 -166q13 -18 31 -23q-66 -23 -66 -151
q0 -130 16 -210t35 -106q-246 -44 -342 -190q-2 -18 -2 -40t22 -44q22 -24 58 -39q140 -59 344 5q-2 -19 -6 -35t-9 -50t-5 -82q0 -149 30 -199q-92 35 -278 35q-256 0 -302 -35q24 64 24 138z" />
    <glyph glyph-name="R" unicode="R" horiz-adv-x="1703" 
d="M847 775q135 1 195 61t60 154q0 150 -116 202q-42 18 -133 18q-92 0 -169 -31q-9 -58 -9 -161t10 -220q80 -23 162 -23zM115 125q0 63 -15 135q93 0 126 24q32 24 44 52t12 71q0 308 -69 328q39 13 50 54q19 71 19 179t-12 136t-44 52q-33 24 -126 24q15 72 15 135
t-15 125q66 -26 478 -34q50 -1 84 -1q520 0 611 35q3 -57 96 -129t156 -76q-30 -60 -30 -244t30 -241q-114 -20 -218 -92q-33 -23 -57 -49q47 -66 123 -89q23 -7 43 -7q0 -119 70 -186t195 -67q-15 -40 -15 -126t17 -134q-33 13 -128 19t-127 6q-251 0 -310 -25q4 40 4 78
q0 192 -116 239q23 43 23 127q0 135 -193 135q-62 0 -130 -9q-23 -56 -23 -131q-1 -75 9 -103t41 -52t132 -24q-15 -72 -15 -135t15 -125q-121 25 -385 25t-380 -25q15 62 15 125z" />
    <glyph glyph-name="S" unicode="S" horiz-adv-x="1529" 
d="M148 0q20 80 20 225t-20 210q95 -15 194 -15t167 15q0 -91 80 -153t198 -62q117 0 164 20q46 20 68 47q22 29 22 69q0 86 -93 147q-93 62 -284 62q-192 0 -321 -33q-4 64 -74 136t-148 72h-10q47 20 47 197t-33 235h7q82 0 204 110q69 62 95 108q26 47 28 70
q92 -55 247 -55q155 -1 228 21t94 34q18 -72 72 -119q39 33 55 99q33 -20 115 -20q81 0 144 20q-18 -72 -18 -220t18 -235q-86 15 -180 15t-161 -15q0 93 -80 159t-225 66q-146 0 -205 -73q-22 -27 -22 -65q0 -82 82 -136q82 -53 298 -53t300 25q7 -66 83 -142t157 -76h10
q-47 -20 -47 -199t33 -233h-7q-85 0 -204 -104q-120 -104 -123 -174q-75 45 -273 45t-276 -45q-20 68 -72 110q-41 -30 -55 -90q-50 25 -146 25t-153 -25z" />
    <glyph glyph-name="T" unicode="T" horiz-adv-x="1872" 
d="M70 1440q119 -35 515 -35q103 0 215 10t133 25q33 -22 247 -32q58 -2 100 -3q42 0 86 1q44 2 94 4q278 14 335 30q-25 -144 -25 -240q0 -240 25 -365q-73 25 -176 25q-104 0 -179 -25q26 77 26 181t-42 149t-125 45q-84 0 -152 -20q-14 -59 -14 -145q0 -170 15 -234
t54 -76q-69 -20 -69 -328q0 -87 53 -117t199 -30q-15 -72 -15 -139t15 -121q-125 25 -447 25t-448 -25q15 62 15 125t-15 135q137 0 177 24q41 24 53 52t12 71q0 308 -69 328q38 13 50 60q19 80 19 208t-14 187q-67 20 -152 20q-167 0 -167 -184q0 -113 26 -191
q-75 25 -179 25t-176 -25q25 125 25 298q0 174 -25 307z" />
    <glyph glyph-name="U" unicode="U" horiz-adv-x="1872" 
d="M289 594q0 118 -76 141q57 13 71 76q11 48 11 240q0 108 -95 124q-30 5 -67 5h-20q15 72 15 135t-15 125q95 -35 326 -35t331 14q99 14 118 21q-15 -54 -15 -121t15 -139h-18q-73 0 -98 -20q-46 -36 -46 -109v-454q0 -309 143 -361q43 -16 89 -16q107 0 167 82t60 295
v454q-1 107 -89 124q-26 5 -56 5h-17q15 72 15 139t-15 121q95 -35 312 -35t310 14t113 21q-15 -54 -15 -121t15 -139h-20q-77 0 -101 -20q-41 -33 -41 -115q0 -186 11 -234q14 -63 71 -76q-76 -23 -76 -141q0 -218 41 -326q-105 -12 -235 -105t-150 -183q-70 45 -278 45
q-292 0 -362 -45q-24 101 -122 183t-248 105q41 123 41 326z" />
    <glyph glyph-name="V" unicode="V" horiz-adv-x="1703" 
d="M1138 0q-75 25 -281 25t-284 -25q1 6 1 10v12q0 154 -87 417t-214 296q25 9 25 51q0 211 -139 333q-46 38 -94 49q-48 12 -68 12q10 48 10 129t-10 131q216 -35 466 -35t397 35q-8 -45 -8 -141q0 -95 8 -119q-152 0 -192 -36q-18 -16 -17 -46q0 -32 16 -84
q17 -52 41 -116t54 -138q121 -287 148 -425q22 87 74 213q109 268 152 381t43 159t-15 61t-42 23t-108 8q8 48 8 131t-8 129q155 -35 349 -35q195 0 344 35q-10 -42 -10 -127t10 -133q-169 0 -257 -216q-37 -91 -37 -157q0 -65 22 -72q-73 -19 -147 -157
q-100 -187 -139 -430q-11 -68 -11 -116v-32z" />
    <glyph glyph-name="W" unicode="W" horiz-adv-x="2554" 
d="M1134 0q-75 25 -279 25t-282 -25q1 6 1 10v12q0 153 -89 417t-216 296q25 9 25 51q0 214 -135 333q-46 38 -94 49q-48 12 -68 12q10 48 10 129t-10 131q216 -35 466 -35t397 35q-8 -45 -8 -141q0 -95 8 -119q-152 0 -192 -36q-18 -16 -17 -46q-1 -32 15 -84t40 -116
t52 -136q117 -287 144 -426q24 94 74 216q50 124 80 198t72 185q41 111 41 155q-1 44 -15 59t-40 23t-110 8q8 48 8 131t-8 129q156 -35 356 -35t357 35q-10 -41 -10 -136t10 -124q-159 0 -199 -36q-18 -16 -17 -46q-1 -32 15 -84t40 -116t54 -138q121 -299 146 -426
q24 94 75 217t83 198t73 185q42 110 42 155t-15 60t-42 23t-108 8q8 48 8 131t-8 129q155 -35 349 -35q195 0 344 35q-10 -42 -10 -127t10 -133q-169 0 -259 -216q-38 -93 -39 -157q0 -64 22 -72q-73 -19 -147 -157q-100 -187 -139 -430q-11 -68 -11 -116v-32
q-75 25 -278 25t-282 -25q1 6 1 10v12q0 150 -83 386q-27 76 -61 141q-99 -181 -137 -407q-10 -64 -10 -110v-32z" />
    <glyph glyph-name="X" unicode="X" 
d="M48 123q0 85 -10 137q36 0 80 20t98 42q105 55 214 169t122 179q0 12 -18 31t-60 34q48 20 65 55q-39 38 -71 78q-200 252 -388 306q-22 6 -42 6q10 48 10 129t-10 131q194 -35 323 -35q346 0 490 35q-8 -45 -8 -141q0 -95 8 -119q-55 0 -73 -10q-36 -19 -36 -61t47 -89
q47 -48 81 -80t64 -66q28 31 58 63t74 83t44 83q0 52 -41 68q-23 9 -84 9q8 48 8 131t-8 129q149 -35 331 -35t332 35q-10 -50 -10 -131t10 -129q-35 0 -73 -22q-37 -22 -89 -52q-108 -62 -213 -162q-105 -99 -119 -154q8 -17 30 -34t52 -21q-69 -37 -69 -65q39 -43 71 -87
t67 -89q86 -107 201 -183q102 -51 162 -51q-10 -32 -10 -123t10 -137q-200 25 -428 25t-385 -25q8 40 8 126t-8 134q56 0 74 8q35 16 35 54q0 36 -45 84t-77 79t-63 63q-29 -30 -61 -61t-77 -81t-45 -78q0 -46 41 -60q24 -8 84 -8q-8 -24 -8 -122t8 -138q-337 56 -683 0
q10 38 10 123z" />
    <glyph glyph-name="Y" unicode="Y" 
d="M494 125q0 63 -15 135q93 0 126 24t45 52t11 71q0 232 -276 328q25 9 25 51q0 87 -52 168q-52 80 -177 165q-46 32 -104 47q-58 14 -78 14q10 48 10 129t-10 131q216 -35 462 -35q247 0 391 35q-8 -45 -8 -141q0 -95 8 -119q-83 0 -112 -10q-57 -20 -57 -65
q0 -46 92 -162q38 -49 80 -101t72 -104q34 48 78 100q176 208 176 268q0 69 -113 73q-31 1 -62 1q8 48 8 131t-8 129q157 -35 355 -35q199 0 348 35q-10 -42 -10 -127t10 -133q-115 0 -271 -148q-42 -40 -70 -81q-62 -87 -63 -148q0 -61 22 -68q-124 -19 -194 -119
q-71 -101 -71 -198t41 -127q41 -31 141 -31q-15 -72 -15 -135t15 -125q-121 25 -385 25t-380 -25q15 62 15 125z" />
    <glyph glyph-name="Z" unicode="Z" horiz-adv-x="1533" 
d="M70 0q25 46 25 134t-10 133q-10 46 -15 53q56 0 132 51q147 99 238 227l24 32t30 39q17 23 17 41t-15 23q107 21 236 161t180 283q-160 33 -266 33t-171 -48t-65 -155q0 -56 9 -85t13 -46q-47 21 -132 21t-211 -21q35 62 35 272t-35 292q276 -38 510 -38l166 1
q341 -1 604 27q43 4 59 10q-25 -50 -25 -168t25 -172q-54 -14 -174 -123q-120 -110 -120 -204q0 -32 17 -38q-177 -37 -294 -195q-88 -97 -190 -288q96 -32 251 -32q78 0 146 55q67 55 67 144t-12 134q61 -21 150 -21q90 0 193 21q-35 -62 -35 -267t35 -286q-149 28 -681 28
t-711 -28z" />
    <glyph glyph-name="bracketleft" unicode="[" horiz-adv-x="1021" 
d="M177 739q93 20 93 257v98q0 534 -30 581q111 -25 229 -25q291 0 391 25q-15 -35 -15 -120t15 -120l-86 1q-70 0 -127 -5q-9 -72 -9 -235l3 -457l-3 -458q0 -162 9 -234q57 -5 106 -5h72t35 1q-15 -35 -15 -83q0 -123 15 -157q-100 25 -305 25t-315 -25q30 48 30 607v58
q0 186 -46 242q-18 22 -47 29z" />
    <glyph glyph-name="backslash" unicode="\" horiz-adv-x="1021" 
d="M36 1625q75 -20 194 -20t194 20q-6 -13 -6 -39q0 -90 83 -355l310 -974q110 -363 173 -407q-63 20 -140 20q-188 0 -248 -20q6 12 6 38q0 85 -83 356l-310 974q-110 363 -173 407z" />
    <glyph glyph-name="bracketright" unicode="]" horiz-adv-x="1021" 
d="M844 739q-93 -19 -93 -253v-76q0 -559 30 -607q-111 25 -229 25q-291 0 -391 -25q15 35 15 120t-15 120l86 -1q70 0 127 5q9 72 9 234l-3 458l3 457q0 163 -9 235q-57 5 -106 5h-72t-35 -1q15 35 15 77q0 128 -15 163q100 -25 305 -25t315 25q-30 -47 -30 -581v-84
q0 -186 47 -242q18 -22 46 -29z" />
    <glyph glyph-name="asciicircum" unicode="^" horiz-adv-x="1529" 
d="M1404 500l4 -3q-3 0 -4 3zM1404 500q-33 22 -155 22q-195 0 -233 -25l1 10q1 67 -163 397q-75 150 -108 222q-22 -57 -71 -169q-164 -382 -164 -432q0 -25 1 -28q-38 25 -195 25t-193 -22q58 54 289 520t258 605q23 -13 73 -13t73 13q19 -95 203 -463t339 -603
q31 -47 45 -59zM124 500q-3 -3 -4 -3z" />
    <glyph glyph-name="underscore" unicode="_" horiz-adv-x="1529" 
d="M1547 -191v-198h-1565v198h1565z" />
    <glyph glyph-name="grave" unicode="`" horiz-adv-x="1020" 
d="M41 1655q57 -25 253 -25t267 25q-4 -12 -4 -40q0 -27 4 -67t11 -84q37 -233 78 -274q-40 20 -182 20t-177 -20l1 7q0 61 -92 234q-91 173 -159 224z" />
    <glyph glyph-name="a" unicode="a" horiz-adv-x="1368" 
d="M542 260q55 -44 134 -15q131 49 141 230q-248 -6 -295 -82q-16 -26 -16 -65t36 -68zM101 261q0 70 -25 116q72 24 111 125q10 26 13 48q5 -2 11 -2h13q135 0 406 51q156 30 184 108q8 24 8 51q0 102 -109 102q-79 0 -117 -40t-37 -129q-62 15 -137 15q-192 0 -256 -15
q15 78 15 153t-15 132q145 0 276 64q39 19 60 40q57 -28 105 -32q49 -3 90 -3q193 0 256 35q32 -60 110 -103t140 -43h9q-36 -88 -36 -456v-78q0 -82 35 -106t155 -24q-20 -60 -20 -141t20 -129q-55 25 -196 25q-142 0 -215 -25q-13 88 -76 140q-64 -20 -112 -66t-58 -84
q-23 6 -41 12t-48 15q-29 9 -119 8q-89 0 -212 -35q-61 99 -155 142q-30 14 -58 15q25 44 25 114z" />
    <glyph glyph-name="b" unicode="b" horiz-adv-x="1704" 
d="M714 542q0 -142 41 -222t150 -80t154 74t45 229q0 154 -45 221q-45 66 -155 66q-156 0 -182 -172q-8 -52 -8 -116zM1568 870q-45 -98 -45 -328t45 -327q-105 -8 -206 -79t-137 -146q-88 35 -219 35q-132 0 -227 -35q-18 78 -79 140q-21 22 -47 35q-73 -75 -80 -165
q-100 25 -213 25t-183 -25q20 29 20 126t-20 134q96 0 125 33t29 120v122q0 118 -41 174q-14 19 -32 24q40 14 56 68t16 157v45l-3 207q-2 80 -35 105t-104 25h-31q20 50 20 132t-20 128q76 -12 187 -12q327 0 418 37q-63 -123 -63 -422v-251q91 32 140 128q48 -35 198 -35
t188 35q35 -73 135 -138q101 -64 208 -72z" />
    <glyph glyph-name="c" unicode="c" horiz-adv-x="1356" 
d="M898 1100q64 -85 242 -85q64 0 112 13q-25 -67 -25 -147q0 -201 25 -251q-48 23 -165 23t-174 -23q-8 106 -47 160t-127 53q-88 0 -140 -68t-52 -237q0 -274 112 -314q34 -12 73 -12q171 0 187 218q59 -22 168 -22t165 22q-20 -60 -20 -128q0 -124 20 -199q-16 2 -45 2
q-67 0 -168 -35t-155 -80q-85 35 -204 35t-230 -35q-12 52 -137 114t-210 62h-11q55 58 55 352q0 176 -30 287q-10 37 -25 55q87 9 190 73t134 147q65 -35 239 -35t243 55z" />
    <glyph glyph-name="d" unicode="d" horiz-adv-x="1535" 
d="M619 318q46 -68 154 -68q156 0 182 176q8 54 8 116q0 139 -41 213q-41 75 -149 75q-109 0 -155 -66q-45 -66 -45 -222t46 -224zM675 25q-148 0 -218 -35q-37 75 -137 146t-206 79q12 26 28 106q16 79 15 221q1 142 -15 222t-28 106q106 8 207 72t136 138q45 -35 159 -35
q167 0 222 35q45 -93 139 -128v258q-3 110 -117 126q-33 4 -68 4h-32q20 50 20 132t-20 128q76 -12 201 -12q367 0 461 37q-74 -137 -74 -422v-200q0 -192 36 -243q14 -20 35 -27q-53 -15 -69 -131q-4 -34 -4 -67v-122q0 -81 34 -117t90 -36q-10 -44 -10 -134t10 -126
q-70 25 -174 25t-192 -25q-6 86 -79 163q-71 -47 -111 -131q-12 -24 -16 -42q-75 35 -223 35z" />
    <glyph glyph-name="e" unicode="e" horiz-adv-x="1366" 
d="M774 678q79 0 95 12q17 12 21 28t3 52q0 37 -41 67q-42 30 -112 30q-127 0 -176 -41q-50 -41 -56 -148h266zM165 518q0 172 -20 248t-35 94q86 0 196 77t128 143q101 -35 282 -35q180 0 246 35q31 -63 135 -108t177 -47q-35 -74 -35 -230t20 -206q-112 9 -367 9l-234 -1
q-132 0 -146 -71q-4 -22 -5 -54q0 -71 70 -119t178 -48q107 0 120 95q4 28 4 60q45 -15 130 -15q200 0 252 15q-12 -66 -12 -150t15 -127h-18q-125 0 -242 -57q-35 -17 -60 -36q-54 35 -187 35q-196 0 -289 -35q-18 53 -135 115t-207 62q-5 -1 -9 -1h-8q56 67 56 352z" />
    <glyph glyph-name="f" unicode="f" horiz-adv-x="1195" 
d="M124 117q0 71 -14 143q111 0 142 18q32 18 40 40q8 23 8 59v319q0 49 -19 64q-19 16 -61 16t-86 -8q9 52 9 129q0 76 -9 123q43 -6 70 -6q55 0 74 13q18 13 18 61q0 100 -18 195q-18 94 -41 126q64 8 140 81t89 135q37 -25 190 -25q154 0 222 70q44 -60 160 -80
q36 -6 91 -7q55 0 103 13q-25 -67 -25 -147q0 -201 25 -251q-48 23 -165 23t-174 -23q1 120 -21 174t-84 54q-116 0 -116 -182v-133q0 -54 24 -70q42 -29 131 -29t209 18q-9 -47 -9 -132q0 -86 9 -143q-117 13 -184 13q-123 0 -151 -13t-28 -63v-315q0 -117 312 -117
q-13 -46 -13 -128t13 -132q-160 25 -463 25t-412 -25q14 46 14 117z" />
    <glyph glyph-name="g" unicode="g" horiz-adv-x="1533" 
d="M580 -182q0 -75 52 -116t156 -41t156 41t52 116t-52 116t-156 41t-156 -41t-52 -116zM744 859q-182 0 -182 -197t182 -197t182 197t-182 197zM808 145q290 0 352 50q23 -66 125 -133q102 -66 178 -66q-42 -38 -42 -163q0 -173 43 -207q-89 0 -185 -56t-123 -120
q-89 38 -317 38t-307 -14t-94 -24q-12 54 -122 115t-186 61q32 23 43 132q3 30 3 56q0 57 -12 116t-33 76q230 26 292 138q15 28 15 62t-16 64t-42 54q-48 46 -122 74q-75 28 -127 28q45 45 45 215t-45 215q87 17 158 66q128 89 145 158q86 -35 333 -35q91 0 149 5
q59 62 59 236q0 76 -14 149q45 -25 227 -25t253 25q-30 -55 -30 -158q1 -103 9 -139t11 -53q-75 15 -151 15q-160 0 -172 -110q74 -84 190 -120q35 -11 68 -14q-45 -49 -45 -216t47 -214q-14 3 -50 3q-81 -1 -170 -67q-88 -66 -92 -127q-47 51 -262 51q-118 0 -118 -67
q0 -39 24 -52q42 -22 108 -22z" />
    <glyph glyph-name="h" unicode="h" horiz-adv-x="1706" 
d="M140 117q0 71 -14 143q111 0 142 18q32 18 40 40q8 23 8 59v168q0 113 -39 167q-13 18 -30 23q69 23 69 178v297q-4 112 -82 126q-26 4 -57 4h-31q20 50 20 132t-20 128q76 -12 187 -12q327 0 418 37q-63 -123 -63 -422v-321q108 44 145 198q57 -35 241 -35t230 35
q32 -85 80 -144t130 -83q-65 -81 -65 -251v-225q0 -72 37 -94q37 -23 134 -23q-16 -64 -16 -144t16 -116q-302 48 -604 10q-36 -4 -60 -10q13 52 13 136t-13 124q71 0 95 21t24 96v208q0 133 -75 177q-26 16 -57 16q-81 0 -155 -38q-100 -50 -99 -140v-223q0 -65 40 -91
t112 -26q-13 -46 -13 -128t13 -132q-159 25 -287 25q-319 0 -428 -25q14 46 14 117z" />
    <glyph glyph-name="i" unicode="i" horiz-adv-x="851" 
d="M61 117q0 71 -14 143q118 0 158 18q41 18 55 40q14 23 14 59v278q-4 109 -110 125q-32 4 -66 5h-32q20 50 20 132t-20 128q170 -8 294 -8q250 0 363 43q-63 -124 -77 -236q-6 -47 -5 -108l-1 -359q0 -96 122 -112q37 -5 80 -5q-13 -46 -13 -131t13 -129q-135 25 -411 25
t-384 -25q14 46 14 117zM127 1185q29 53 29 204t-30 211q90 -30 290 -30t260 30q-25 -54 -25 -201t25 -214q-64 20 -190 20q-295 0 -359 -20z" />
    <glyph glyph-name="j" unicode="j" horiz-adv-x="856" 
d="M-147 -120q38 -16 181 -16t199 24q1 -50 59 -70q16 -6 30 -5q71 0 71 92t-75 92q-16 0 -32 -4q15 19 15 133q0 188 -8 239t-48 62q37 19 48 55q10 36 10 137v36q0 111 -82 125q-26 4 -57 5h-31q20 50 20 132t-20 128q56 -9 150 -9q338 0 455 44q-63 -123 -63 -432
q1 -133 9 -163q8 -31 20 -41t32 -17q-55 -14 -59 -174q-1 -41 -1 -77t2 -82t8 -99q24 -280 77 -330q-7 1 -15 1h-16q-118 0 -229 -67t-157 -149q-77 30 -245 30q-167 0 -248 -30q18 61 18 150q0 199 -18 280zM192 1185q29 53 29 204t-30 211q90 -30 265 -30t235 30
q-25 -54 -25 -201t25 -214q-64 20 -177 20q-258 0 -322 -20z" />
    <glyph glyph-name="k" unicode="k" horiz-adv-x="1703" 
d="M124 117q0 71 -14 143q112 0 142 18q29 18 37 40q8 23 8 59v168q0 113 -39 167q-13 18 -30 23q69 23 69 178v297q-3 112 -81 126q-26 4 -58 4h-31q20 50 20 132t-20 128q76 -12 187 -12q327 0 418 37q-63 -123 -63 -422l-1 -553q22 -3 48 -3h65q62 -1 111 27
q94 53 94 104t-83 51q-24 0 -54 -6q10 41 10 117t-12 140q130 -35 367 -35t311 35q-18 -63 -18 -164t16 -153q-114 1 -201 -33t-134 -68t-65 -78q51 -92 299 -92q0 -73 52 -127q52 -55 141 -55q-20 -62 -20 -162t20 -148q-58 25 -215 25t-220 -25q0 81 -40 140t-90 60
q27 46 27 85q0 77 -80 131q-80 53 -221 53q-50 0 -108 -12v-80q0 -96 110 -112q34 -5 77 -5q-13 -46 -13 -131t13 -129q-135 25 -386 25t-359 -25q14 46 14 117z" />
    <glyph glyph-name="l" unicode="l" horiz-adv-x="859" 
d="M104 117q0 71 -14 143q112 0 142 18q29 18 37 40q8 23 8 59v168q0 172 -69 190q42 12 55 45q14 33 14 113v317q-3 112 -81 126q-26 4 -58 4h-31q20 50 20 132t-20 128q76 -12 187 -12q327 0 418 37q-63 -117 -63 -422l-1 -312q0 -113 36 -141q13 -10 33 -15
q-69 -20 -69 -190v-168q0 -96 110 -112q34 -5 77 -5q-13 -46 -13 -131t13 -129q-135 25 -386 25t-359 -25q14 46 14 117z" />
    <glyph glyph-name="m" unicode="m" horiz-adv-x="2389" 
d="M141 117q0 71 -14 143q111 0 142 18t39 40q8 23 9 59v278q-3 111 -81 125q-26 4 -58 5h-31q20 50 20 131t-20 127q81 -11 165 -11q260 0 360 38q-12 -34 -12 -81t12 -110q101 37 137 151q9 28 15 50q57 -35 241 -35t230 35q50 -138 139 -196q104 45 140 196
q57 -35 241 -35t230 35q33 -85 81 -144t129 -83q-65 -81 -65 -251v-225q0 -72 37 -94q37 -23 134 -23q-16 -64 -16 -144t16 -116q-155 25 -277 25q-286 0 -387 -25q13 52 13 136t-13 124q71 0 95 21t24 96v208q0 133 -75 177q-26 16 -55 16q-68 0 -143 -31q-76 -31 -102 -92
q-1 -13 -1 -26v-252q0 -72 37 -94q37 -23 134 -23q-16 -64 -16 -144t16 -116q-303 48 -605 10q-36 -4 -59 -10q13 52 13 136t-13 124q71 0 95 21t24 96v208q0 133 -75 177q-26 16 -55 16q-68 0 -145 -32t-102 -96l1 -273q0 -65 40 -91t112 -26q-13 -46 -13 -128t13 -132
q-160 25 -288 25q-319 0 -427 -25q14 46 14 117z" />
    <glyph glyph-name="n" unicode="n" horiz-adv-x="1704" 
d="M153 117q0 71 -14 143q111 0 142 18t39 40q8 23 9 59v278q-3 111 -81 125q-26 4 -58 5h-31q20 50 20 131t-20 127q81 -11 165 -11q260 0 360 38q-12 -34 -12 -79t13 -115q107 34 145 152q10 30 16 52q57 -35 241 -35t230 35q33 -85 81 -144t129 -83q-65 -81 -65 -251
v-225q0 -70 41 -93q41 -24 140 -24q-16 -64 -16 -144t16 -116q-155 25 -283 25q-292 0 -391 -25q13 52 13 136t-13 124q71 0 95 21t24 96v208q0 133 -75 177q-26 16 -57 16q-80 0 -154 -38q-100 -50 -100 -140h-1l1 -223q0 -65 40 -91t112 -26q-13 -46 -13 -128t13 -132
q-160 25 -288 25q-319 0 -427 -25q14 46 14 117z" />
    <glyph glyph-name="o" unicode="o" horiz-adv-x="1535" 
d="M615 275q46 -75 154 -75q156 0 182 194q8 59 8 128q0 154 -41 236t-149 82q-109 0 -154 -73q-46 -73 -46 -246q0 -171 46 -246zM114 166q55 80 55 326t-34 321q-10 22 -20 43q88 9 194 76t129 148q79 -35 282 -35q276 0 364 35q22 -80 131 -148q109 -67 192 -76
q-40 -79 -46 -162q-7 -82 -7 -170q0 -168 11 -245t43 -113q-79 0 -194 -58q-114 -58 -134 -118q-95 35 -324 35t-314 -35q-31 68 -139 122t-189 54z" />
    <glyph glyph-name="p" unicode="p" horiz-adv-x="1535" 
d="M678 542q0 -138 43 -215t152 -77q159 0 189 160q10 55 11 132q0 155 -45 222q-45 66 -155 66q-156 0 -186 -172q-9 -52 -9 -116zM145 -433q0 72 -14 144q92 -1 122 17q29 18 39 41t9 59l2 79q1 235 -31 305q-12 28 -34 34q39 20 52 99q13 80 13 310q-3 111 -81 125
q-26 4 -58 5h-31q20 50 20 131t-20 127q58 -8 129 -8q169 0 284 45q6 -88 78 -167q85 35 137 111q18 26 27 56q55 -35 202 -35t199 35q37 -78 122 -140q86 -62 191 -70q-12 -26 -28 -106t-15 -222q-1 -142 15 -221q16 -80 28 -106q-103 -7 -188 -76q-85 -68 -125 -149
q-55 35 -178 35t-183 -35q-28 80 -164 137v-299q0 -117 292 -117q-13 -46 -13 -128q0 -83 13 -133q-166 26 -439 26t-386 -26q14 45 14 117z" />
    <glyph glyph-name="q" unicode="q" horiz-adv-x="1704" 
d="M631 318q46 -68 154 -68q156 0 182 176q8 54 8 116q0 139 -41 213q-41 75 -149 75q-109 0 -155 -66q-45 -66 -45 -222t46 -224zM644 25q-126 0 -180 -35q-37 75 -137 146t-206 79q11 26 27 106q16 79 16 221t-16 222t-27 106q106 8 207 72t136 138q47 -35 171 -35
q180 0 235 35q28 -92 114 -141q24 -14 48 -22q69 75 75 163q120 -45 314 -45q81 0 139 8q-20 -47 -20 -127q0 -81 20 -131h-32q-81 0 -111 -18q-57 -34 -57 -112q0 -376 65 -409q-55 -18 -63 -210q-2 -60 -2 -129l2 -79q0 -117 250 -117q-14 -72 -14 -144t14 -117
q-117 26 -428 26t-477 -26q13 50 13 133t-13 128q205 0 260 58q22 23 22 59v299q-133 -55 -159 -137q-60 35 -186 35z" />
    <glyph glyph-name="r" unicode="r" horiz-adv-x="1362" 
d="M124 117q0 71 -14 143q111 0 142 18q32 18 40 40q8 23 8 59v278q-4 111 -82 125q-26 4 -57 5h-31q20 50 20 131t-20 127q58 -8 131 -8q273 0 394 45q-12 -34 -12 -79t14 -126q91 25 156 69q117 79 130 136q60 -35 190 -35t171 35q-24 -60 -24 -217t10 -214t14 -64
q-78 19 -187 19q-108 0 -179 -19q0 107 -24 150t-77 43q-52 0 -106 -57t-59 -145l1 -199q0 -96 163 -112q50 -5 109 -5q-13 -46 -13 -128t13 -132q-160 25 -443 25t-392 -25q14 46 14 117z" />
    <glyph glyph-name="s" unicode="s" horiz-adv-x="1195" 
d="M764 283q0 149 -380 149q-112 0 -145 -17q0 48 -61 107q-61 58 -105 67q32 36 32 147t-32 159q72 15 122 53q87 68 110 132q34 -20 140 -27t150 -7q163 0 190 54q40 -56 177 -72q37 -4 71 -4t65 7l-6 -39q-8 -52 -7 -125q0 -73 13 -120q-31 20 -166 20q-136 0 -168 -20
q0 65 -46 103t-122 38q-114 0 -114 -79q0 -66 120 -115t241 -49t153 18q5 -53 64 -109q59 -55 106 -74q-28 -43 -28 -146t28 -142q-116 -32 -190 -118q-24 -28 -39 -62q-97 34 -260 34t-199 -44q-57 34 -192 34t-171 -14q17 45 17 146t-17 167q50 -25 184 -25t192 25
q-1 -99 83 -131q30 -12 71 -11q119 0 119 90z" />
    <glyph glyph-name="t" unicode="t" horiz-adv-x="1195" 
d="M252 457v289q-4 80 -94 80q-28 0 -72 -8q9 52 9 129q0 76 -9 123q36 -25 103 -25q58 0 58 95t-12 119q8 -2 16 -2h17q73 0 172 37t145 54t76 17q-27 -81 -27 -164t8 -103t37 -37q29 -16 97 -16q221 0 302 25q-18 -47 -18 -136t18 -139q-261 23 -297 23q-83 0 -119 -18
t-36 -58v-268q0 -162 54 -224q21 -24 54 -25q128 0 128 195q66 -15 135 -15t123 15q-15 -41 -15 -149t15 -139h-10q-116 0 -232 -84q-32 -24 -50 -48q-33 25 -201 25t-230 -25q-31 116 -131 178q-32 20 -69 28q55 67 55 251z" />
    <glyph glyph-name="u" unicode="u" horiz-adv-x="1538" 
d="M79 785h-31q20 50 20 132t-20 128q56 -9 150 -9q338 0 455 44q-63 -123 -63 -432v-174q0 -92 20 -130q38 -72 118 -72q175 0 239 101q24 38 24 95v187q-2 79 -29 104q-27 26 -120 26h-21q20 50 20 132t-20 128q56 -9 150 -9q338 0 455 44q-40 -45 -52 -121t-12 -190
l1 -121l-1 -258q0 -40 2 -66t23 -45q20 -19 135 -19q-17 -49 -17 -135t17 -125q-55 25 -200 25t-218 -25q0 111 -72 172q-79 -15 -150 -68t-90 -104q-33 25 -201 25t-230 -25q-31 116 -131 178q-32 20 -69 28q57 71 55 251l-2 198q-2 80 -33 105t-102 25z" />
    <glyph glyph-name="v" unicode="v" horiz-adv-x="1364" 
d="M729 800q-140 0 -140 -63q0 -44 71 -192q71 -147 103 -240q26 63 57 125q32 62 76 156t44 142t-29 60t-95 12q10 58 10 140t-12 130q36 -25 281 -25t287 25q-10 -40 -10 -126t10 -144q-80 0 -150 -65q-72 -67 -102 -179q-12 -44 -11 -80q0 -36 17 -42q-77 -17 -137 -129
q-60 -113 -60 -255q0 -22 5 -50q-45 25 -210 25t-258 -25q2 14 2 46q0 82 -52 187q-52 106 -89 148q-38 42 -75 53q17 6 17 26q1 156 -117 272q-68 68 -191 68q12 70 12 146t-12 124q63 -25 378 -25t382 25q-12 -50 -12 -131t10 -139z" />
    <glyph glyph-name="w" unicode="w" horiz-adv-x="2046" 
d="M492 46q0 101 -46 197q-79 168 -156 191q17 6 17 26q0 211 -179 312q-67 38 -118 38q12 70 12 141t-12 119q66 -25 369 -25t370 25q-12 -50 -12 -127t10 -133q-137 0 -137 -67q0 -41 71 -197t99 -241q25 64 55 127t74 161t44 146q0 47 -29 59t-92 12q9 65 9 136t-11 124
q120 -25 315 -25t258 25q-12 -50 -12 -127t10 -133q-121 0 -139 -36q-6 -12 -7 -36q0 -36 71 -192t99 -241q25 64 55 127t74 161t44 146q0 47 -32 59t-90 12q10 56 10 134t-12 126q36 -25 233 -25q295 0 340 25q-10 -42 -10 -123t10 -137q-116 0 -204 -126
q-71 -101 -71 -218q0 -26 17 -32q-61 -18 -131 -136q-71 -118 -71 -248q0 -22 5 -50q-45 25 -205 25t-253 -25q2 14 2 38q0 151 -98 303q-68 -95 -90 -227q-6 -36 -6 -61t5 -53q-45 25 -204 25t-253 -25q2 14 2 46z" />
    <glyph glyph-name="x" unicode="x" horiz-adv-x="1364" 
d="M67 135q0 87 -13 128q151 0 238 59t196 205q-271 284 -424 284q13 62 13 129t-13 130q64 -28 334 -28q271 0 352 28q-17 -42 -17 -111q0 -68 19 -108q-91 0 -91 -46q1 -39 81 -113q22 -20 45 -41q117 111 117 161q0 40 -51 40h-7t-9 -1q8 53 8 84q0 94 -9 135
q49 -28 231 -28t241 28q-17 -62 -17 -145t9 -114q-200 0 -318 -177q-34 -51 -70 -106q114 -121 177 -169q124 -93 224 -96q-15 -66 -15 -126t15 -133q-207 44 -487 18q-84 -8 -143 -18q15 62 15 110q0 47 -15 89q36 -1 54 13t18 32q0 31 -32 64t-95 84q-98 -86 -111 -110
q-14 -23 -14 -39q0 -45 70 -45h9t9 1q-12 -34 -12 -87q0 -54 14 -112q-191 42 -425 18q-68 -7 -114 -18q13 44 13 131z" />
    <glyph glyph-name="y" unicode="y" horiz-adv-x="1364" 
d="M708 810q-140 0 -140 -63q0 -44 71 -196t103 -245q26 62 57 126t75 161t45 145q0 48 -29 60t-95 12q10 56 10 134t-12 126q36 -25 237 -25q303 0 349 25q-10 -42 -10 -123t10 -137q-121 0 -201 -116t-80 -228q0 -25 17 -31q-91 -25 -171 -209t-131 -368t-51 -218
q-129 -14 -254 -108q-46 -34 -80 -82q-77 30 -206 30q-128 0 -212 -30q18 61 18 150q0 199 -18 280q38 -16 201 -16t192 16q0 -48 24 -76t64 -29q40 0 64 32t24 83q-1 51 -29 82t-76 31q-14 0 -29 -3q2 14 2 46q-1 102 -47 197q-82 169 -159 192q17 6 17 25q0 54 -11 94
q-39 139 -157 218q-57 38 -106 38q12 70 12 141t-12 119q62 -25 197 -25q250 0 369 5q118 5 160 20q-12 -50 -12 -127t10 -133z" />
    <glyph glyph-name="z" unicode="z" horiz-adv-x="1370" 
d="M150 181q0 139 -30 203q160 32 343 145t249 179t88 107q-37 58 -150 58q-79 0 -117 -57q-37 -57 -37 -149q-58 25 -180 25q-121 0 -196 -25q20 64 20 174q0 109 -20 229q106 -25 552 -25t598 35q-30 -81 -30 -203t18 -219q-114 -14 -352 -164q-133 -84 -207 -149
q-74 -64 -98 -95q30 -70 159 -70q128 0 152 120q8 40 8 90q63 -26 132 -26q182 0 243 26q-25 -88 -25 -212q0 -125 25 -178q-339 46 -915 16q-184 -10 -260 -26q30 52 30 191z" />
    <glyph glyph-name="braceleft" unicode="{" horiz-adv-x="1021" 
d="M300 253v185q0 170 -95 192q-31 8 -70 8q12 24 12 76t-12 76q86 0 115 29q50 52 50 171v210q0 210 -40 265q6 -1 10 -1h9q83 0 162 62t92 124q75 -25 177 -25t160 25q-15 -43 -15 -111q0 -69 15 -99q-125 0 -157 -46t-32 -185v-269q0 -158 -100 -204q-29 -14 -60 -22
q77 -22 105 -54q55 -61 55 -172v-244q0 -140 24 -174q23 -34 61 -46t104 -11q-15 -52 -15 -119t15 -91q-58 25 -160 25t-177 -25q-13 62 -91 124t-165 62q-5 -1 -9 -1h-8q40 55 40 265z" />
    <glyph glyph-name="bar" unicode="|" horiz-adv-x="681" 
d="M180 257v1143q0 224 -23 270q57 -20 131 -20q177 0 237 20q-23 -46 -23 -270v-1143q0 -249 23 -407q-70 20 -136 20q-162 0 -232 -20q23 158 23 407z" />
    <glyph glyph-name="braceright" unicode="}" horiz-adv-x="1021" 
d="M488 -197q-75 25 -177 25t-160 -25q15 24 15 91t-15 119q125 0 157 46t32 185v244q0 158 100 204q29 14 60 22q-77 22 -105 54q-55 61 -55 172v269q0 140 -24 174q-24 33 -61 45t-104 12q15 30 15 99t-15 111q58 -25 160 -25t177 25q13 -62 92 -124t162 -62h10q4 0 9 1
q-40 -55 -40 -265v-210q0 -170 95 -192q31 -8 70 -8q-12 -24 -12 -76t12 -76q-86 0 -115 -29q-50 -52 -50 -171v-185q0 -210 40 -265l-17 1q-86 0 -165 -62q-78 -62 -91 -124z" />
    <glyph glyph-name="asciitilde" unicode="~" horiz-adv-x="1533" 
d="M1445 1121q-27 -34 -27 -148q0 -163 28 -177q-155 0 -249 -89q-93 -89 -118 -196q-222 11 -367 119q-93 70 -134 88q-42 18 -76 18q-56 0 -78 -30q-23 -30 -23 -97t19 -111q-37 26 -148 26q-164 0 -185 -25q27 37 27 150q0 162 -28 176q155 0 249 90t118 195
q222 -10 367 -118q93 -70 134 -89q41 -18 75 -18q56 0 79 31t23 97q0 67 -19 110q32 -26 170 -26q139 0 163 24zM1445 1121q1 1 1 2q0 -1 -1 -2zM87 499l-1 -1z" />
    <glyph glyph-name="nonbreakingspace" unicode="&#xa0;" horiz-adv-x="838" 
 />
    <glyph glyph-name="exclamdown" unicode="&#xa1;" horiz-adv-x="705" 
d="M119 1440q79 -25 249 -25t250 25q-25 -58 -25 -191t25 -179q-60 30 -235 30t-265 -30q30 60 30 185q0 124 -29 185zM516 799q24 -73 82 -94q-39 -6 -39 -111q0 -190 61 -485q12 -58 26 -109q-105 35 -245 35q-208 0 -313 -35q24 63 43 200q19 136 31 229q12 92 13 181
q0 89 -39 95q103 32 103 216l-1 64v9t1 6q52 -15 128 -15q75 0 128 15q-3 -18 -3 -73t24 -128z" />
    <glyph glyph-name="cent" unicode="&#xa2;" horiz-adv-x="1525" 
d="M988 1100q64 -85 242 -85q64 0 112 13q-25 -67 -25 -147q0 -201 25 -251q-48 23 -165 23t-174 -23q-8 106 -47 160t-127 53q-88 0 -140 -68t-52 -237q0 -274 112 -314q34 -12 73 -12q171 0 187 218q59 -22 168 -22t165 22q-20 -60 -20 -128q0 -125 20 -199q-16 2 -45 2
q-67 0 -168 -35t-155 -80q-38 14 -69 21q17 -240 51 -284q-34 15 -167 15t-173 -15q33 37 51 289q-80 -10 -127 -26q-12 52 -137 114t-210 62h-11q55 58 55 352q0 176 -30 287q-10 37 -25 55q87 9 190 73t134 147q51 -28 176 -34q-13 269 -44 304q39 -15 109 -15
q198 0 225 15q-32 -50 -54 -282q47 14 70 32z" />
    <glyph glyph-name="sterling" unicode="&#xa3;" horiz-adv-x="1529" 
d="M55 125q0 63 -15 135q80 0 126 11t70 44t30 93t6 134q0 72 -15 94t-54 23q-39 0 -99 -13q10 48 10 109t-10 93q60 -18 87 -18q45 0 64 48t19 96q0 82 -21 152t-46 98q64 8 140 81t89 135q37 -25 190 -25q154 0 222 70q44 -61 160 -81q36 -6 75 -6q101 0 179 13
q-25 -73 -25 -168t25 -150q-66 23 -204 23t-195 -23q-1 73 -17 100q-29 48 -88 48q-137 0 -137 -237q1 -114 21 -138t46 -30t56 -6q94 0 243 18q-10 -31 -10 -100q0 -68 10 -102q-147 13 -207 13q-91 0 -114 -19q-24 -19 -24 -77l1 -292q107 -66 258 -66q106 0 158 57
t52 174t-13 179q70 -25 181 -25t184 25q-35 -93 -55 -339q-4 -42 -3 -90q0 -121 37 -186q-119 25 -660 25q-27 -1 -70 -1h-96t-111 -2l-118 -4q-292 -7 -347 -18q15 62 15 125z" />
    <glyph glyph-name="currency" unicode="&#xa4;" horiz-adv-x="1700" 
d="M585 703q1 -55 21 -103t56 -84t84 -56t103 -21q55 1 103 21t84 56t56 84t21 103q-1 55 -21 103t-56 84t-84 56t-103 21q-55 -1 -103 -21t-84 -56t-56 -84t-21 -103zM321 702q0 143 74 270q-185 145 -239 148q61 20 208 184q57 64 69 93q3 -43 95 -173q26 -36 52 -67
q126 74 268 74t269 -74q144 179 148 239q15 -42 125 -152t152 -125q-60 -4 -239 -148q74 -127 74 -268t-74 -268q106 -89 164 -118q58 -28 75 -29q-43 -17 -113 -86q-143 -141 -164 -190q-4 59 -147 237q-127 -74 -270 -74t-268 73q-89 -106 -118 -164q-28 -58 -29 -74
q-18 45 -125 152t-152 125q45 3 172 95q35 26 66 52q-73 125 -73 268z" />
    <glyph glyph-name="yen" unicode="&#xa5;" horiz-adv-x="1877" 
d="M257 372q10 48 10 106t-10 90q110 -15 212 -15q201 0 201 49q0 38 -52 59t-104 21h-76q-26 0 -70 -2q-44 -1 -111 -7q10 48 10 106t-10 89q64 -12 120 -12q105 0 105 37q0 48 -71 119q-106 106 -244 154q-42 14 -76 14h-8q10 48 10 129t-10 131q216 -35 462 -35
q247 0 391 35q-8 -45 -8 -141q0 -95 8 -119q-84 0 -112 -10q-57 -20 -57 -65q0 -46 92 -162q38 -49 80 -101t72 -104q34 48 78 100q176 208 176 268q0 69 -113 73q-31 1 -62 1q8 48 8 131t-8 129q157 -35 355 -35q199 0 348 35q-10 -42 -10 -127t10 -133q-121 -16 -263 -130
q-83 -66 -109 -108q-26 -41 -26 -59q0 -33 78 -33t137 13q-10 -37 -10 -97q0 -61 10 -95q-114 11 -263 11q-150 0 -150 -80q0 -49 157 -49t256 15q-10 -31 -10 -97q0 -65 10 -99q-218 20 -360 4q-40 -4 -71 -16q-30 -11 -30 -44q0 -56 240 -56q-10 -48 -10 -129t12 -131
q-190 25 -347 25q-392 0 -530 -25q12 50 12 131t-10 129q226 0 226 56q0 39 -58 52q-58 14 -194 14t-233 -10z" />
    <glyph glyph-name="brokenbar" unicode="&#xa6;" horiz-adv-x="681" 
d="M180 65v457q0 98 -23 143q57 -20 131 -20q177 0 237 20q-23 -46 -23 -108v-492q0 -57 23 -215q-70 20 -136 20q-162 0 -232 -20q23 158 23 215zM180 1070v456q0 98 -23 144q57 -20 131 -20q177 0 237 20q-23 -46 -23 -108v-492q0 -57 23 -215q-70 20 -136 20
q-162 0 -232 -20q23 158 23 215z" />
    <glyph glyph-name="section" unicode="&#xa7;" horiz-adv-x="1698" 
d="M610 646q0 -122 76 -181t186 -59q208 0 208 182q0 104 -76 163t-186 59t-159 -47t-49 -117zM439 -20q104 0 186 15q0 -93 65 -154t197 -61q131 0 183 84q18 28 18 68q0 87 -84 141t-249 54q-166 0 -269 -25q-6 54 -115 131q-108 77 -187 77h-9q36 11 47 121q3 30 3 58
q0 192 -35 253h8q101 0 211 129q-88 79 -177 79h-7q50 19 50 192t-35 230h6q76 0 190 110q63 61 88 108t27 70q79 -55 244 -55q101 0 191 33q28 10 47 22q98 -102 265 -102q50 0 105 12q-20 -80 -20 -192t20 -183q-80 15 -170 15t-160 -15q0 91 -72 153t-198 62t-175 -73
q-18 -27 -18 -69q0 -185 388 -185q154 0 214 25q6 -54 115 -131q108 -77 187 -77h9q-36 -11 -47 -121q-3 -30 -3 -58q0 -196 35 -253q-80 0 -170 -76q-28 -24 -52 -51q58 -56 134 -76q22 -6 34 -6q11 1 14 1h5q-50 -19 -50 -203t35 -239h-7q-85 0 -203 -104
q-67 -59 -93 -105t-28 -69q-70 45 -240 45t-242 -45q-91 80 -249 114q-51 11 -94 11t-67 -5q3 18 11 54t9 88q0 52 -2 82q-3 54 -11 85l-7 26q100 -15 204 -15z" />
    <glyph glyph-name="dieresis" unicode="&#xa8;" horiz-adv-x="1360" 
d="M121 1214q26 59 26 184t-27 186q68 -27 232 -27t218 27q-23 -54 -23 -179t23 -191q-80 23 -220 23t-229 -23zM751 1214q26 59 26 184t-27 186q68 -27 232 -27t218 27q-23 -54 -23 -179t23 -191q-80 23 -220 23t-229 -23z" />
    <glyph glyph-name="copyright" unicode="&#xa9;" horiz-adv-x="2042" 
d="M551 603q0 69 -77 80q80 15 80 129q0 113 -44 155h9q71 0 167 69t108 125q45 -36 167 -36t165 36q18 -71 63 -114q25 27 34 63q10 35 13 44q45 -27 132 -27t126 17q-7 -25 -13 -103q-6 -79 -6 -155t19 -136q-112 14 -178 14t-145 -14v18q0 140 -84 158q-26 6 -55 5
q-65 0 -102 -54t-37 -193q1 -140 39 -210t106 -70t98 44q29 44 35 168q57 -21 160 -21q104 0 163 21q-19 -33 -19 -101t19 -123q-118 -2 -198 -79q-57 -55 -70 -111q-74 37 -226 37t-212 -37q-15 62 -107 124t-171 71q41 53 41 206zM266 693q0 -294 206 -492
q206 -197 549 -197t549 197t206 495q0 297 -206 497t-546 200q-340 1 -552 -203q-98 -94 -152 -222t-54 -273v-2zM83 695q0 121 30 233q31 112 87 210t138 178t186 137t230 89q125 32 267 31q142 1 267 -31t229 -89q209 -114 325 -316q116 -201 116 -444q0 -180 -66 -338
t-189 -276q-122 -118 -295 -186q-174 -68 -352 -68t-302 31q-124 32 -230 88q-104 56 -186 135t-138 175t-87 208q-30 112 -30 233z" />
    <glyph glyph-name="ordfeminine" unicode="&#xaa;" horiz-adv-x="1362" 
d="M704 996q44 47 50 148q-129 -2 -169 -24q-40 -20 -53 -44t-13 -51q-1 -27 7 -40t20 -21q22 -15 68 -15t90 47zM185 968q0 52 -20 92q58 19 89 100q8 21 10 38q8 -1 16 -1h18q88 1 222 27t164 39t54 36t24 70q0 82 -88 82q-63 1 -93 -31t-30 -104q-52 12 -111 12
q-181 0 -233 -12q12 66 12 122t-12 106q127 0 245 50q36 16 54 33q56 -28 183 -28t177 28q23 -46 86 -82q63 -35 116 -35h6q-29 -70 -29 -364v-63q0 -65 28 -85q28 -19 124 -19q-16 -48 -16 -114t16 -102q-44 20 -154 20t-175 -20q-10 74 -62 112q-76 -26 -120 -90
q-12 -17 -15 -30q-18 5 -33 10t-39 11t-100 7q-75 0 -164 -28q-50 77 -123 113q-24 12 -47 13q20 35 20 87z" />
    <glyph glyph-name="guillemotleft" unicode="&#xab;" horiz-adv-x="1537" 
d="M1402 1086q0 -63 18 -102q-62 -6 -156 -216q-22 -50 -45 -87q13 -24 27 -55q14 -32 31 -64q41 -82 75 -129t68 -49q-18 -39 -18 -67q0 -102 25 -131q-37 22 -84 22q-108 0 -131 -30q0 78 -202 271q-202 194 -299 235q96 41 299 235q202 194 202 271q18 -30 96 -30t119 22
q-25 -33 -25 -96zM581 1190q18 -30 96 -30t119 22q-25 -33 -25 -96t18 -102q-63 -6 -157 -216q-22 -50 -44 -87q14 -24 28 -55q14 -32 30 -64q41 -82 75 -129t68 -49q-18 -39 -18 -67q0 -102 25 -131q-37 22 -84 22q-108 0 -131 -30q0 78 -202 271q-202 194 -299 235
q96 41 299 235q202 193 202 271z" />
    <glyph glyph-name="logicalnot" unicode="&#xac;" horiz-adv-x="1360" 
d="M134 1070q103 -25 558 -25q456 0 534 25q-23 -115 -23 -369t23 -338q-42 15 -110 15q-173 0 -218 -15q22 113 22 388q-95 9 -248 9q-421 0 -538 -25q15 42 15 156t-15 179z" />
    <glyph glyph-name="uni00AD" unicode="&#xad;" horiz-adv-x="1229" 
 />
    <glyph glyph-name="registered" unicode="&#xae;" horiz-adv-x="2042" 
d="M1144 754q41 33 41 67q0 59 -28 93q-28 35 -76 35q-96 0 -152 -21q-5 -42 -5 -80t6 -113q58 -14 116 -14q57 0 98 33zM587 698q42 8 42 156q0 76 -92 76q16 36 16 85t-16 119q44 -22 409 -22t428 22q13 -40 64 -83t92 -45q-23 -46 -23 -148t23 -152q-102 -16 -194 -94
q50 -31 106 -31q0 -63 20 -102t72 -54q-16 -58 -16 -88t16 -106q-34 17 -112 17q-192 0 -238 -17q4 38 4 75q0 133 -72 163q13 23 13 60t-26 59t-62 23q-36 0 -96 -12q-15 -34 -15 -90t16 -70t44 -14q-10 -73 -10 -122t10 -72q-81 17 -158 17q-227 0 -295 -17q16 34 16 85
t-16 109q45 -1 69 13t23 56q0 194 -42 204zM266 693q0 -294 206 -492q206 -197 549 -197t549 197t206 495q0 297 -206 497t-546 200q-340 1 -552 -203q-98 -94 -152 -222t-54 -273v-2zM83 695q0 121 30 233q31 112 87 210t138 178t186 137t230 89q125 32 267 31
q142 1 267 -31t229 -89q209 -114 325 -316q116 -201 116 -444q0 -180 -66 -338t-189 -276q-122 -118 -295 -186q-174 -68 -352 -68t-302 31q-124 32 -230 88q-104 56 -186 135t-138 175t-87 208q-30 112 -30 233z" />
    <glyph glyph-name="macron" unicode="&#xaf;" horiz-adv-x="1360" 
d="M236 1262q26 40 26 143t-27 144q144 -27 457 -27t433 27q-23 -38 -23 -138t23 -149q-178 23 -346 23q-365 0 -543 -23z" />
    <glyph glyph-name="degree" unicode="&#xb0;" horiz-adv-x="1189" 
d="M598 902q50 0 92 44q41 44 41 130q0 85 -38 127t-95 42t-95 -42t-38 -107t13 -99q12 -34 32 -55q38 -40 88 -40zM191 1045q0 140 -28 224q65 4 123 40q107 66 123 124q40 -28 183 -28t187 28q16 -58 100 -109q83 -51 146 -55q-28 -73 -28 -226t28 -188q-58 0 -119 -32
q-113 -59 -129 -108q-56 28 -186 28t-180 -28q-23 57 -105 99q-82 41 -143 41q28 50 28 190z" />
    <glyph glyph-name="plusminus" unicode="&#xb1;" horiz-adv-x="1360" 
d="M119 330q109 -23 323 -23h476q214 0 323 23q-15 -65 -15 -179t15 -151q-119 25 -323 25h-476q-204 0 -323 -25q15 42 15 164q0 121 -15 166zM516 495q23 78 23 174t-4 142q-46 4 -94 4q-213 0 -322 -23q15 42 15 110q0 173 -15 218q109 -23 243 -23t173 5q4 44 4 85
q0 152 -23 230q65 -15 178 -15t150 15q-23 -78 -23 -169t5 -146q55 -5 98 -5q208 0 317 23q-15 -65 -15 -178t15 -150q-109 23 -240 23t-175 -4q-5 -38 -5 -83q0 -156 23 -233q-36 15 -107 15q-176 0 -221 -15z" />
    <glyph glyph-name="twosuperior" unicode="&#xb2;" horiz-adv-x="1195" 
d="M592 1425q-150 0 -150 -205q-78 20 -153 20t-182 -20q3 8 7 16t12 31q6 23 6 88q0 64 -25 112q152 0 265 178q68 -45 253 -45q186 0 257 16q70 16 79 25q0 -95 56 -209t125 -137q-96 -40 -150 -165q-16 -36 -23 -70q-123 -9 -280 -80t-221 -153q81 -32 147 -32
q66 -1 92 17t48 53t22 85q66 -15 152 -15t158 15q-15 -64 -15 -184t15 -171q-153 25 -352 25q-306 0 -406 -4q-101 -4 -222 -21q25 108 25 227t-25 167q72 3 138 33q65 30 88 44q52 33 52 60q0 8 -2 12q16 -4 48 -4t81 16q50 16 90 42q94 61 94 127q0 48 -30 77t-74 29z" />
    <glyph glyph-name="threesuperior" unicode="&#xb3;" horiz-adv-x="1195" 
d="M117 830q0 88 -12 142q51 -12 160 -12q110 0 174 12q0 -88 48 -136q49 -48 117 -48t99 32t31 80t-36 79q-36 32 -87 32t-116 -5q12 43 12 91t-12 99q36 -3 72 -3q67 0 113 38t46 97q0 99 -114 99t-158 -109q-16 -38 -15 -92q-77 12 -165 12t-153 -12q12 62 12 138
t-12 148q168 0 276 124q62 -36 204 -36q202 0 264 36q17 -44 84 -87t124 -43q-24 -38 -24 -132t24 -138q-87 -33 -145 -106q44 -64 138 -88q24 -6 39 -6q-20 -32 -20 -142t20 -148q-56 0 -137 -52t-107 -106q-51 28 -242 28q-190 0 -238 -28q-111 135 -276 135q12 19 12 107
z" />
    <glyph glyph-name="acute" unicode="&#xb4;" horiz-adv-x="1020" 
d="M361 1190q40 44 77 278q15 94 15 135q0 40 -3 52q71 -25 267 -25t253 25q-68 -51 -159 -224q-92 -173 -92 -234q0 -5 1 -7q-40 20 -182 20t-177 -20z" />
    <glyph glyph-name="mu" unicode="&#xb5;" horiz-adv-x="1698" 
d="M664 -550q-64 30 -231 30q-166 0 -244 -30q33 53 47 422q4 112 4 208q0 184 -13 269q-13 84 -52 97q65 29 65 340q0 117 -14 180q-14 64 -22 79q41 -9 116 -9q271 0 359 44q-63 -123 -63 -432v-174q0 -92 20 -130q38 -72 113 -72t125 34q90 62 113 132l-1 210
q0 243 -13 306q-13 62 -26 91q45 -13 118 -13q261 0 357 48q-63 -117 -63 -432l-1 -258q0 -82 35 -106t155 -24q-17 -49 -17 -135t17 -125q-55 25 -203 25t-228 -25q-10 80 -97 162q-106 -32 -175 -118q-19 -24 -27 -44q-31 20 -207 24v-196q0 -198 18 -269q18 -70 35 -109z
" />
    <glyph glyph-name="mu" unicode="&#x3bc;" horiz-adv-x="1698" 
d="M664 -550q-64 30 -231 30q-166 0 -244 -30q33 53 47 422q4 112 4 208q0 184 -13 269q-13 84 -52 97q65 29 65 340q0 117 -14 180q-14 64 -22 79q41 -9 116 -9q271 0 359 44q-63 -123 -63 -432v-174q0 -92 20 -130q38 -72 113 -72t125 34q90 62 113 132l-1 210
q0 243 -13 306q-13 62 -26 91q45 -13 118 -13q261 0 357 48q-63 -117 -63 -432l-1 -258q0 -82 35 -106t155 -24q-17 -49 -17 -135t17 -125q-55 25 -203 25t-228 -25q-10 80 -97 162q-106 -32 -175 -118q-19 -24 -27 -44q-31 20 -207 24v-196q0 -198 18 -269q18 -70 35 -109z
" />
    <glyph glyph-name="paragraph" unicode="&#xb6;" horiz-adv-x="1875" 
d="M1548 88q-69 -30 -69 -195q0 -172 11 -297t21 -146q-46 25 -140 25t-153 -25q15 115 15 724l1 234l1 273q0 276 -7 416q-46 8 -95 8q-48 0 -94 -4q-15 -214 -18 -458q-3 -245 -4 -317q-2 -145 -2 -219v-41q-1 -168 7 -212t13 -66t11 -46t15 -56q-68 -15 -124 -86
q-55 -71 -76 -150q-58 25 -198 25t-217 -25q15 60 15 139t-15 151q87 0 150 2q64 2 104 18q78 32 78 167q0 66 -36 128q-14 24 -37 33q63 31 63 187q0 32 -5 110q-48 16 -97 16q-132 0 -170 -33q-66 114 -196 181q-42 22 -84 29q30 64 30 297q0 324 -30 384q62 3 154 80
q92 76 98 136q76 -35 492 -35t637 26q39 4 54 9q-15 -54 -15 -121t15 -139q-153 1 -169 -215q-5 -66 -5 -188q0 -120 1 -238q2 -118 4 -202q5 -164 19 -220t47 -64z" />
    <glyph glyph-name="periodcentered" unicode="&#xb7;" horiz-adv-x="680" 
d="M91 400q29 65 29 213q0 147 -30 217q90 -30 265 -30t235 30q-25 -58 -25 -211q0 -152 25 -219q-80 25 -250 25t-249 -25z" />
    <glyph glyph-name="cedilla" unicode="&#xb8;" horiz-adv-x="1360" 
d="M542 -190q39 43 39 123t-5 135l275 1q-39 -60 -39 -216q0 -53 9 -91t41 -64q-139 -33 -200 -248q-89 19 -202 19q-114 0 -183 -19q32 44 32 166t-22 161q62 -10 139 -10t116 43z" />
    <glyph glyph-name="onesuperior" unicode="&#xb9;" horiz-adv-x="1025" 
d="M145 702q0 67 -15 103q161 1 226 61q24 22 24 56q0 130 -70 138q34 2 52 30t18 70q0 80 -171 80q-38 0 -80 -7q11 44 11 107t-13 118h14q124 0 230 56t129 111q55 -25 121 -25t104 25l-5 -27q-10 -63 -10 -192v-270q0 -32 20 -52t53 -24q-73 -9 -73 -138q0 -117 224 -117
q-15 -40 -15 -108q0 -69 15 -112q-160 25 -304 25q-358 0 -500 -25q15 50 15 117z" />
    <glyph glyph-name="ordmasculine" unicode="&#xba;" horiz-adv-x="1360" 
d="M686 930q46 0 76 19t48 53t24 80t6 100q0 120 -34 185q-34 64 -120 64q-130 1 -154 -135q-8 -48 -8 -114t8 -114t28 -78t50 -46q30 -14 76 -14zM155 884q45 65 45 264q0 198 -28 260q-8 18 -16 35q70 6 131 45q112 71 131 137q62 -29 258 -29t265 29q18 -64 107 -120
q88 -55 155 -62l-16 -34t-14 -45q-5 -28 -9 -74q-4 -45 -4 -116q0 -145 10 -203t34 -87q-66 0 -131 -33q-121 -61 -136 -109q-70 28 -254 28t-262 -28q-27 57 -114 99q-87 43 -152 43z" />
    <glyph glyph-name="guillemotright" unicode="&#xbb;" horiz-adv-x="1537" 
d="M826 1160q112 0 130 30v-4q0 -81 196 -277q112 -112 181 -163q68 -51 94 -62q-50 -21 -135 -96q-153 -134 -245 -244q-91 -110 -91 -163v-3q-13 17 -48 23q-34 7 -48 7q-82 0 -119 -22q25 29 25 94t-18 104q64 4 158 210q23 50 43 87q-16 26 -45 89q-54 116 -87 164
q-32 48 -69 50q18 39 18 67q0 97 -25 131q37 -22 85 -22zM195 1160q112 0 130 30v-4q0 -81 196 -277q112 -112 181 -163q68 -51 94 -62q-50 -21 -135 -96q-153 -134 -245 -244q-91 -110 -91 -163v-3q-13 17 -48 23q-35 7 -49 7q-82 0 -118 -22q25 29 25 94t-18 104
q64 4 158 210q23 50 43 87q-16 26 -45 89q-54 116 -87 164q-32 48 -69 50q18 39 18 67q0 97 -25 131q37 -22 85 -22z" />
    <glyph glyph-name="onequarter" unicode="&#xbc;" horiz-adv-x="2036" 
d="M699 673q72 -25 193 -25t165 35q-4 -11 -4 -31q0 -48 26 -102q26 -53 63 -58q-114 -38 -274 -305q-60 -99 -96 -179q72 -13 149 -4q77 8 102 22q45 25 45 107v29q0 80 -11 111q51 -25 151 -25t150 10t58 15q-20 -52 -20 -186q0 -53 31 -71t69 -18h52q61 0 98 5
q-15 -32 -15 -99q0 -66 15 -96q-74 14 -123 14q-81 0 -105 -8t-24 -43v-23q0 -42 40 -60t135 -18q-15 -60 -15 -116t15 -104q-145 25 -396 25t-394 -25q15 45 15 114t-15 106q198 0 230 14t38 39q6 24 6 68l-1 21q-76 12 -203 12q-340 0 -403 -21q8 19 8 51q0 97 -65 183
q89 31 202 291q61 140 84 228t24 117zM571 968q0 67 -15 103q144 -1 199 25q53 26 77 60t24 92q0 140 -70 148q31 2 50 38q20 36 20 66q0 56 -58 91t-120 35q-61 0 -103 -7q11 44 11 102t-13 113h14q124 0 230 56t129 111q60 -25 106 -25q134 0 179 25l-5 -27
q-10 -63 -10 -192v-290q0 -56 42 -86q14 -10 31 -10q-33 -4 -53 -43t-20 -101q0 -113 60 -147t224 -34q-15 -40 -15 -108q0 -69 15 -112q-165 25 -486 25t-458 -25q15 50 15 117z" />
    <glyph glyph-name="onehalf" unicode="&#xbd;" horiz-adv-x="2036" 
d="M464 -307q0 121 -28 177q86 3 199 70q114 67 114 128q0 5 -2 15q17 -4 53 -4q89 0 194 60q104 60 104 129q0 68 -34 112t-82 44q-169 0 -169 -258q-88 20 -172 20q-85 0 -205 -20l8 16t12 31t8 91t-28 113q108 -1 196 87q48 48 102 144q81 -46 285 -46t285 17
q82 17 92 25q0 -106 49 -213q74 -161 155 -189q-72 -25 -126 -94q-54 -70 -69 -145q-148 -15 -323 -111t-243 -205q93 -34 167 -34t104 18q78 48 79 140q80 -16 171 -16t178 16q-17 -55 -17 -179t17 -182q-172 25 -395 25q-345 0 -458 -4q-114 -4 -249 -21q28 122 28 243z
M561 968q0 67 -15 103q144 -1 199 25q53 26 77 60t24 92q0 140 -70 148q31 2 50 38q20 36 20 66q0 56 -58 91t-120 35q-61 0 -103 -7q11 44 11 102t-13 113h14q124 0 230 56t129 111q60 -25 106 -25q134 0 179 25l-5 -27q-10 -63 -10 -192v-290q0 -56 42 -86q14 -10 31 -10
q-33 -4 -53 -43t-20 -101q0 -113 60 -147t224 -34q-15 -40 -15 -108q0 -69 15 -112q-165 25 -486 25t-458 -25q15 50 15 117z" />
    <glyph glyph-name="threequarters" unicode="&#xbe;" horiz-adv-x="2036" 
d="M699 673q72 -25 193 -25t165 35q-4 -11 -4 -31q0 -48 26 -102q26 -53 63 -58q-114 -38 -274 -305q-60 -99 -96 -179q72 -13 149 -4q77 8 102 22q45 25 45 107v29q0 80 -11 111q51 -25 151 -25t150 10t58 15q-20 -52 -20 -186q0 -53 31 -71t69 -18h52q61 0 98 5
q-15 -32 -15 -99q0 -66 15 -96q-74 14 -123 14q-81 0 -105 -8t-24 -43v-23q0 -42 40 -60t135 -18q-15 -60 -15 -116t15 -104q-145 25 -396 25t-394 -25q15 45 15 114t-15 106q198 0 230 14t38 39q6 24 6 68l-1 21q-76 12 -203 12q-340 0 -403 -21q8 19 8 51q0 97 -65 183
q89 31 202 291q61 140 84 228t24 117zM514 975q12 17 12 105t-12 144q53 -12 153 -12q99 0 201 12q0 -87 58 -135q58 -49 116 -49q94 0 133 30q38 30 38 72t-11 70q-10 28 -30 48q-42 43 -108 43q-65 0 -140 -5q12 43 12 91t-12 99q34 -3 88 -3q89 0 141 50t52 125
q0 99 -140 99q-72 0 -135 -56q-62 -56 -62 -165q-84 12 -177 12t-161 -12q12 70 12 152t-12 154q180 0 296 124q67 -36 228 -36q233 0 300 36q19 -44 91 -87q73 -43 137 -43q-24 -43 -24 -160t24 -167q-104 -36 -159 -100q53 -67 149 -93q24 -6 42 -7q-20 -36 -20 -154
t20 -159q-61 0 -149 -53q-87 -53 -115 -105q-51 28 -270 28q-218 0 -270 -28q-50 56 -92 81q-93 54 -204 54z" />
    <glyph glyph-name="questiondown" unicode="&#xbf;" horiz-adv-x="1364" 
d="M923 1430q-29 -61 -29 -185q0 -125 30 -185q-90 30 -265 30t-235 -30q25 46 25 179t-25 191q80 -25 250 -25q169 0 249 25zM869 671q0 -33 11 -58q-149 0 -265 -73t-116 -184q0 -146 128 -146q136 0 181 172q16 61 16 151q76 -16 186 -16q109 0 205 16q-16 -85 -16 -218
t8 -167q-213 0 -343 -168q-52 45 -248 45q-195 0 -236 -45q-15 62 -105 121q-90 58 -181 58q25 50 25 189q0 138 -25 188q104 4 258 94q170 100 170 219q0 75 -33 143q85 -16 187 -16t138 18q0 -65 38 -101q38 -37 82 -42q-43 -34 -60 -121q-5 -26 -5 -59z" />
    <glyph glyph-name="Agrave" unicode="&#xc0;" 
d="M648 746q0 -32 6 -51t24 -30q16 -11 44 -15t73 -5q87 0 117 20t30 66q0 47 -18 98t-42 107t-49 112t-38 101q-15 -45 -40 -101t-49 -112t-40 -107q-18 -51 -18 -83zM20 131q0 81 -10 129q87 3 146 55q141 217 141 365q0 48 -22 55q56 15 131 158t109 354q10 63 10 112
l-4 60q1 5 1 9v12q89 -35 327 -35q237 0 338 35v-13l-5 -64q0 -160 57 -334t101 -229t77 -65q-25 -9 -25 -53q0 -82 43 -182q43 -101 96 -182q97 -58 169 -58q-10 -48 -10 -129t12 -131q-225 25 -431 25t-344 -25q8 45 8 129q0 83 -8 131q104 0 147 37q-4 85 -59 119
t-219 34t-209 -22q-43 -22 -59 -52t-20 -78q48 -38 165 -38q-8 -24 -8 -119t8 -141q-203 38 -495 20q-88 -6 -170 -20q12 50 12 131zM743 1515q0 57 -123 252q-123 194 -198 243q62 -27 247 -27q186 0 267 27q-2 -8 -2 -24t8 -60q8 -42 22 -92q26 -102 64 -204t60 -120
q-31 22 -169 22t-176 -22v5z" />
    <glyph glyph-name="Aacute" unicode="&#xc1;" 
d="M648 746q0 -32 6 -51t24 -30q16 -11 44 -15t73 -5q87 0 117 20t30 66q0 47 -18 98t-42 107t-49 112t-38 101q-15 -45 -40 -101t-49 -112t-40 -107q-18 -51 -18 -83zM20 131q0 81 -10 129q87 3 146 55q141 217 141 365q0 48 -22 55q56 15 131 158t109 354q10 63 10 112
l-4 60q1 5 1 9v12q89 -35 327 -35q237 0 338 35v-13l-5 -64q0 -160 57 -334t101 -229t77 -65q-25 -9 -25 -53q0 -82 43 -182q43 -101 96 -182q97 -58 169 -58q-10 -48 -10 -129t12 -131q-225 25 -431 25t-344 -25q8 45 8 129q0 83 -8 131q104 0 147 37q-4 85 -59 119
t-219 34t-209 -22q-43 -22 -59 -52t-20 -78q48 -38 165 -38q-8 -24 -8 -119t8 -141q-203 38 -495 20q-88 -6 -170 -20q12 50 12 131zM758 1963q0 38 -3 47q81 -27 265 -27t249 27q-74 -46 -178 -240q-105 -193 -105 -254v-3t1 -3q-37 22 -117 22q-198 0 -228 -22
q44 44 96 310q20 105 20 143z" />
    <glyph glyph-name="Acircumflex" unicode="&#xc2;" 
d="M648 746q0 -32 6 -51t24 -30q16 -11 44 -15t73 -5q87 0 117 20t30 66q0 47 -18 98t-42 107t-49 112t-38 101q-15 -45 -40 -101t-49 -112t-40 -107q-18 -51 -18 -83zM20 131q0 81 -10 129q87 3 146 55q141 217 141 365q0 48 -22 55q56 15 131 158t109 354q10 63 10 112
l-4 60q1 5 1 9v12q89 -35 327 -35q237 0 338 35v-13l-5 -64q0 -160 57 -334t101 -229t77 -65q-25 -9 -25 -53q0 -82 43 -182q43 -101 96 -182q97 -58 169 -58q-10 -48 -10 -129t12 -131q-225 25 -431 25t-344 -25q8 45 8 129q0 83 -8 131q104 0 147 37q-4 85 -59 119
t-219 34t-209 -22q-43 -22 -59 -52t-20 -78q48 -38 165 -38q-8 -24 -8 -119t8 -141q-203 38 -495 20q-88 -6 -170 -20q12 50 12 131zM653 1559q-45 16 -161 16q-117 0 -165 -16q56 41 185 214t129 233v4q54 -27 208 -27t210 27l-1 -5q0 -79 216 -331q81 -94 110 -115
q-48 16 -160 16t-177 -16q-9 13 -23 36q-58 99 -164 158q-114 -57 -182 -159q-15 -22 -25 -35z" />
    <glyph glyph-name="Atilde" unicode="&#xc3;" 
d="M648 746q0 -32 6 -51t24 -30q16 -11 44 -15t73 -5q87 0 117 20t30 66q0 47 -18 98t-42 107t-49 112t-38 101q-15 -45 -40 -101t-49 -112t-40 -107q-18 -51 -18 -83zM20 131q0 81 -10 129q87 3 146 55q141 217 141 365q0 48 -22 55q56 15 131 158t109 354q10 63 10 112
l-4 60q1 5 1 9v12q89 -35 327 -35q237 0 338 35v-13l-5 -64q0 -160 57 -334t101 -229t77 -65q-25 -9 -25 -53q0 -82 43 -182q43 -101 96 -182q97 -58 169 -58q-10 -48 -10 -129t12 -131q-225 25 -431 25t-344 -25q8 45 8 129q0 83 -8 131q104 0 147 37q-4 85 -59 119
t-219 34t-209 -22q-43 -22 -59 -52t-20 -78q48 -38 165 -38q-8 -24 -8 -119t8 -141q-203 38 -495 20q-88 -6 -170 -20q12 50 12 131zM273 1531q25 36 25 137t-11 133t-17 34q139 0 253 58t114 117q168 -6 284 -96l70 -56q40 -33 71 -33q76 0 76 100q0 50 -22 85
q23 -26 130 -26t147 10t45 14q-26 -33 -26 -130t11 -134q11 -36 17 -38q-30 3 -82 3t-108 -18q-58 -18 -97 -45q-80 -55 -80 -115q-168 5 -284 95q-30 24 -70 57t-71 33q-75 0 -75 -103q0 -51 21 -85q-26 26 -157 26q-132 0 -164 -23z" />
    <glyph glyph-name="Adieresis" unicode="&#xc4;" 
d="M648 746q0 -32 6 -51t24 -30q16 -11 44 -15t73 -5q87 0 117 20t30 66q0 47 -18 98t-42 107t-49 112t-38 101q-15 -45 -40 -101t-49 -112t-40 -107q-18 -51 -18 -83zM20 131q0 81 -10 129q87 3 146 55q141 217 141 365q0 48 -22 55q56 15 131 158t109 354q10 63 10 112
l-4 60q1 5 1 9v12q89 -35 327 -35q237 0 338 35v-13l-5 -64q0 -160 57 -334t101 -229t77 -65q-25 -9 -25 -53q0 -82 43 -182q43 -101 96 -182q97 -58 169 -58q-10 -48 -10 -129t12 -131q-225 25 -431 25t-344 -25q8 45 8 129q0 83 -8 131q104 0 147 37q-4 85 -59 119
t-219 34t-209 -22q-43 -22 -59 -52t-20 -78q48 -38 165 -38q-8 -24 -8 -119t8 -141q-203 38 -495 20q-88 -6 -170 -20q12 50 12 131zM317 1640q26 59 26 184t-27 186q68 -27 232 -27t218 27q-23 -54 -23 -179t23 -191q-80 23 -220 23t-229 -23zM947 1640q26 59 26 184
t-27 186q68 -27 232 -27t218 27q-23 -54 -23 -179t23 -191q-80 23 -220 23t-229 -23z" />
    <glyph glyph-name="Aring" unicode="&#xc5;" 
d="M648 746q0 -32 6 -51t24 -30q16 -11 44 -15t73 -5q87 0 117 20t30 66q0 47 -18 98t-42 107t-49 112t-38 101q-15 -45 -40 -101t-49 -112t-40 -107q-18 -51 -18 -83zM20 131q0 81 -10 129q87 3 146 55q141 217 141 365q0 48 -22 55q56 15 131 158t109 354q10 63 10 112
l-4 60q1 5 1 9v12q38 -15 116 -24q-26 57 -106 111q-80 55 -138 55q28 43 28 126q0 82 -28 138q66 9 124 43q105 63 122 121q77 -28 212 -28q134 0 218 28q17 -57 99 -106t147 -58q-28 -42 -28 -137t28 -127q-56 0 -138 -57t-105 -108q76 9 114 23v-13l-5 -64
q0 -160 57 -334t101 -229t77 -65q-25 -9 -25 -53q0 -82 43 -182q43 -101 96 -182q97 -58 169 -58q-10 -48 -10 -129t12 -131q-225 25 -431 25t-344 -25q8 45 8 129q0 83 -8 131q104 0 147 37q-4 85 -59 119t-219 34t-209 -22q-43 -22 -59 -52t-20 -78q48 -38 165 -38
q-8 -24 -8 -119t8 -141q-203 38 -495 20q-88 -6 -170 -20q12 50 12 131zM992 1707q0 126 -134 126t-133 -126q1 -101 87 -113q24 -4 47 -4q60 0 96 23q37 23 37 94zM671 1412q76 -7 177 -7t183 8q-100 20 -156 20q-105 0 -204 -21z" />
    <glyph glyph-name="AE" unicode="&#xc6;" horiz-adv-x="2385" 
d="M825 743q0 -98 139 -98q139 -1 151 75q4 24 4 55q-1 31 -1 81t-1 106t-3 112t-2 103q-30 -48 -85 -118q-109 -139 -156 -207q-46 -68 -46 -109zM20 131q0 81 -10 129q119 4 193 55q144 137 201 275q20 48 20 93t-22 52q88 22 203 153t210 293q94 163 114 259
q51 -35 170 -35q120 0 163 13q44 13 52 22q55 -35 342 -35t433 15q147 15 167 20q-25 -131 -25 -208q0 -187 25 -287q-68 25 -174 25t-181 -25q15 52 15 109q0 96 -62 132q-43 25 -92 24q-160 0 -228 -49q-10 -58 -10 -151q0 -94 9 -139q49 -22 155 -22t164 30
q-15 -41 -15 -104q0 -150 15 -185q-59 33 -168 33q-108 0 -151 -19q-9 -54 -9 -168t12 -174q78 -42 201 -42t164 92q16 36 16 104q0 67 -16 119q125 -41 279 -18q46 7 76 18q-25 -108 -25 -259t25 -276q-126 25 -562 25q-622 0 -747 -25q8 45 8 129q0 83 -8 131
q109 0 155 37q-2 84 -29 109q-46 44 -139 44q-169 0 -270 -43t-124 -113q40 -34 153 -34q-8 -24 -8 -119t8 -141q-219 38 -515 20q-88 -6 -170 -20q12 50 12 131z" />
    <glyph glyph-name="Ccedilla" unicode="&#xc7;" 
d="M778 1405q217 0 305 55q24 -76 79 -119q42 33 58 99q36 -20 166 -20q129 0 197 20q-25 -100 -25 -188q0 -243 25 -377q-90 15 -212 15q-121 0 -218 -15q0 142 -72 238q-72 97 -196 97q-84 0 -127 -24q-162 -92 -162 -449q0 -426 176 -496q52 -21 113 -21q118 0 184 93
q65 93 65 246v18t-1 18q121 -25 245 -25q123 0 205 25q-25 -50 -25 -171t25 -221q-155 -1 -269 -89q-83 -63 -106 -124q-59 23 -166 30q-17 -56 -17 -137q0 -83 9 -121t41 -64q-139 -33 -200 -248q-89 19 -202 19q-114 0 -183 -19q32 44 32 166t-22 161q62 -10 117 -10
q99 0 138 43t39 148q0 21 -2 65q-243 -10 -301 -43q-24 91 -148 184q-125 92 -237 104q19 26 35 106t16 210q0 129 -66 151q70 19 70 198q0 178 -55 239h8q96 0 238 110q82 63 113 109q30 46 32 69q33 -18 115 -36t166 -19z" />
    <glyph glyph-name="Egrave" unicode="&#xc8;" horiz-adv-x="1533" 
d="M115 125q0 63 -15 135q93 0 126 24q32 24 44 52t12 71q0 308 -69 328q39 13 50 54q19 71 19 179t-12 136t-44 52q-33 24 -126 24q15 72 15 135t-15 125q102 -26 596 -34q60 -1 96 -1t92 1q56 2 120 4q364 14 430 30q-25 -131 -25 -208q0 -187 25 -287q-63 25 -181 25
t-193 -25q16 47 16 105q0 98 -62 135q-42 25 -93 25q-161 0 -228 -49q-10 -58 -10 -151q0 -94 9 -139q50 -22 156 -22t163 30q-15 -41 -15 -104q0 -150 15 -185q-59 33 -168 33q-108 0 -151 -19q-9 -54 -9 -167t13 -175q78 -42 200 -42q123 0 164 92q16 36 16 104
q0 67 -16 119q74 -25 140 -25q171 0 234 25q-25 -108 -25 -210q0 -188 25 -325q-124 25 -572 25q-636 0 -762 -25q15 62 15 125zM645 1515q0 57 -123 252q-123 194 -198 243q62 -27 247 -27q186 0 267 27q-2 -8 -2 -24t8 -60q8 -42 22 -92q26 -102 64 -204t60 -120
q-31 22 -169 22t-176 -22v5z" />
    <glyph glyph-name="Eacute" unicode="&#xc9;" horiz-adv-x="1533" 
d="M115 125q0 63 -15 135q93 0 126 24q32 24 44 52t12 71q0 308 -69 328q39 13 50 54q19 71 19 179t-12 136t-44 52q-33 24 -126 24q15 72 15 135t-15 125q102 -26 596 -34q60 -1 96 -1t92 1q56 2 120 4q364 14 430 30q-25 -131 -25 -208q0 -187 25 -287q-63 25 -181 25
t-193 -25q16 47 16 105q0 98 -62 135q-42 25 -93 25q-161 0 -228 -49q-10 -58 -10 -151q0 -94 9 -139q50 -22 156 -22t163 30q-15 -41 -15 -104q0 -150 15 -185q-59 33 -168 33q-108 0 -151 -19q-9 -54 -9 -167t13 -175q78 -42 200 -42q123 0 164 92q16 36 16 104
q0 67 -16 119q74 -25 140 -25q171 0 234 25q-25 -108 -25 -210q0 -188 25 -325q-124 25 -572 25q-636 0 -762 -25q15 62 15 125zM772 1532q-198 0 -228 -22q44 44 96 310q20 106 20 143q0 38 -3 47q81 -27 265 -27t249 27q-74 -46 -178 -240q-105 -193 -105 -254v-3t1 -3
q-38 22 -117 22z" />
    <glyph glyph-name="Ecircumflex" unicode="&#xca;" horiz-adv-x="1533" 
d="M115 125q0 63 -15 135q93 0 126 24q32 24 44 52t12 71q0 308 -69 328q39 13 50 54q19 71 19 179t-12 136t-44 52q-33 24 -126 24q15 72 15 135t-15 125q102 -26 596 -34q60 -1 96 -1t92 1q56 2 120 4q364 14 430 30q-25 -131 -25 -208q0 -187 25 -287q-63 25 -181 25
t-193 -25q16 47 16 105q0 98 -62 135q-42 25 -93 25q-161 0 -228 -49q-10 -58 -10 -151q0 -94 9 -139q50 -22 156 -22t163 30q-15 -41 -15 -104q0 -150 15 -185q-59 33 -168 33q-108 0 -151 -19q-9 -54 -9 -167t13 -175q78 -42 200 -42q123 0 164 92q16 36 16 104
q0 67 -16 119q74 -25 140 -25q171 0 234 25q-25 -108 -25 -210q0 -188 25 -325q-124 25 -572 25q-636 0 -762 -25q15 62 15 125zM555 1559q-45 16 -161 16q-117 0 -165 -16q56 41 185 214t129 233v4q54 -27 208 -27t210 27l-1 -5q0 -79 216 -331q81 -94 110 -115
q-48 16 -161 16q-112 0 -176 -16q-9 13 -23 36q-58 99 -164 158q-114 -57 -182 -159q-15 -22 -25 -35z" />
    <glyph glyph-name="Edieresis" unicode="&#xcb;" horiz-adv-x="1533" 
d="M115 125q0 63 -15 135q93 0 126 24q32 24 44 52t12 71q0 308 -69 328q39 13 50 54q19 71 19 179t-12 136t-44 52q-33 24 -126 24q15 72 15 135t-15 125q102 -26 596 -34q60 -1 96 -1t92 1q56 2 120 4q364 14 430 30q-25 -131 -25 -208q0 -187 25 -287q-63 25 -181 25
t-193 -25q16 47 16 105q0 98 -62 135q-42 25 -93 25q-161 0 -228 -49q-10 -58 -10 -151q0 -94 9 -139q50 -22 156 -22t163 30q-15 -41 -15 -104q0 -150 15 -185q-59 33 -168 33q-108 0 -151 -19q-9 -54 -9 -167t13 -175q78 -42 200 -42q123 0 164 92q16 36 16 104
q0 67 -16 119q74 -25 140 -25q171 0 234 25q-25 -108 -25 -210q0 -188 25 -325q-124 25 -572 25q-636 0 -762 -25q15 62 15 125zM219 1640q26 59 26 184t-27 186q67 -27 232 -27q164 0 218 27q-23 -54 -23 -179t23 -191q-80 23 -220 23t-229 -23zM849 1640q26 59 26 184
t-27 186q67 -27 232 -27q164 0 218 27q-23 -54 -23 -179t23 -191q-80 23 -220 23t-229 -23z" />
    <glyph glyph-name="Igrave" unicode="&#xcc;" horiz-adv-x="1022" 
d="M125 125q0 63 -15 135q212 0 212 147q0 308 -69 328q38 13 50 60q19 80 19 256q0 129 -203 129h-19q15 72 15 135t-15 125q57 -21 211 -28q155 -7 213 -7q115 0 234 11q120 11 157 24q-15 -62 -15 -125t15 -135h-21q-83 0 -114 -20q-57 -36 -57 -118q0 -167 15 -231
t54 -76q-69 -20 -69 -328q1 -118 123 -140q40 -7 89 -7q-15 -72 -15 -135t15 -125q-121 25 -415 25t-410 -25q15 62 15 125zM576 1532q-138 0 -176 -22v5q0 57 -123 252q-123 194 -198 243q62 -27 247 -27q186 0 267 27q-2 -8 -2 -24q1 -16 9 -60q8 -42 21 -92
q26 -102 64 -204t60 -120q-31 22 -169 22z" />
    <glyph glyph-name="Iacute" unicode="&#xcd;" horiz-adv-x="1022" 
d="M125 125q0 63 -15 135q212 0 212 147q0 308 -69 328q38 13 50 60q19 80 19 256q0 129 -203 129h-19q15 72 15 135t-15 125q57 -21 211 -28q155 -7 213 -7q115 0 234 11q120 11 157 24q-15 -62 -15 -125t15 -135h-21q-83 0 -114 -20q-57 -36 -57 -118q0 -167 15 -231
t54 -76q-69 -20 -69 -328q1 -118 123 -140q40 -7 89 -7q-15 -72 -15 -135t15 -125q-121 25 -415 25t-410 -25q15 62 15 125zM527 1532q-197 0 -228 -22q43 44 95 310q20 106 21 143q0 38 -3 47q81 -27 265 -27t249 27q-74 -46 -178 -240q-105 -193 -105 -254q1 -2 1 -3v-3
q-38 22 -117 22z" />
    <glyph glyph-name="Icircumflex" unicode="&#xce;" horiz-adv-x="1022" 
d="M125 125q0 63 -15 135q212 0 212 147q0 308 -69 328q38 13 50 60q19 80 19 256q0 129 -203 129h-19q15 72 15 135t-15 125q57 -21 211 -28q155 -7 213 -7q115 0 234 11q120 11 157 24q-15 -62 -15 -125t15 -135h-21q-83 0 -114 -20q-57 -36 -57 -118q0 -167 15 -231
t54 -76q-69 -20 -69 -328q1 -118 123 -140q40 -7 89 -7q-15 -72 -15 -135t15 -125q-121 25 -415 25t-410 -25q15 62 15 125zM310 1559q-45 16 -161 16q-117 0 -165 -16q56 41 185 214t129 233v4q54 -27 208 -27t210 27l-1 -5q0 -79 216 -331q81 -94 110 -115q-49 16 -161 16
t-176 -16q-8 13 -22 36q-58 99 -165 158q-114 -57 -182 -159q-15 -22 -25 -35z" />
    <glyph glyph-name="Idieresis" unicode="&#xcf;" horiz-adv-x="1022" 
d="M125 125q0 63 -15 135q212 0 212 147q0 308 -69 328q38 13 50 60q19 80 19 256q0 129 -203 129h-19q15 72 15 135t-15 125q57 -21 211 -28q155 -7 213 -7q115 0 234 11q120 11 157 24q-15 -62 -15 -125t15 -135h-21q-83 0 -114 -20q-57 -36 -57 -118q0 -167 15 -231
t54 -76q-69 -20 -69 -328q1 -118 123 -140q40 -7 89 -7q-15 -72 -15 -135t15 -125q-121 25 -415 25t-410 -25q15 62 15 125zM-26 1640q26 59 26 184t-27 186q68 -27 232 -27t218 27q-23 -54 -23 -179t23 -191q-80 23 -220 23t-229 -23zM604 1640q26 59 26 184t-27 186
q67 -27 232 -27q164 0 218 27q-23 -54 -23 -179t23 -191q-80 23 -220 23t-229 -23z" />
    <glyph glyph-name="Eth" unicode="&#xd0;" horiz-adv-x="1644" 
d="M794 648q-121 0 -121 -72q0 -168 13 -337q53 -19 124 -19q145 0 229 132q83 132 83 407q0 451 -297 451q-88 0 -140 -25q-13 -91 -13 -194q0 -51 29 -75t85 -24t94 7q39 7 66 11q-9 -33 -9 -126q0 -92 9 -149q-122 13 -152 13zM115 125q0 63 -15 135q93 0 126 24
q32 24 44 52t12 71v169q0 36 -18 58t-54 22t-55 -2q-20 -2 -45 -6q9 52 9 135t-9 117q48 -6 90 -6t62 17t20 57v65q0 119 -103 140q-34 7 -79 7q15 72 15 135t-15 125q66 -26 478 -34q50 -1 84 -1q417 0 501 35q6 -60 124 -136q118 -77 198 -80q-10 -60 -10 -125
q0 -129 38 -240q38 -110 90 -124q-54 -12 -91 -119t-37 -217q0 -111 10 -183q-79 -3 -170 -60q-141 -88 -152 -156q-86 25 -455 25q-526 0 -608 -25q15 62 15 125z" />
    <glyph glyph-name="Ntilde" unicode="&#xd1;" horiz-adv-x="1875" 
d="M115 125q0 63 -15 135q93 0 126 24q32 24 44 52t12 95q0 284 -69 304q38 13 50 60q19 80 19 256q0 107 -100 124q-30 5 -63 5h-19q15 72 15 135t-15 125q97 -35 260 -35q162 0 315 28q0 -131 141 -357t259 -346q117 -120 145 -120h2l6 -1q24 90 24 442q0 107 -100 124
q-30 5 -63 5h-19q15 72 15 135t-15 125q95 -35 327 -35q338 0 438 35q-15 -62 -15 -125t15 -135h-21q-82 0 -110 -20q-51 -35 -51 -118q0 -298 79 -307q-37 -20 -49 -74q-20 -98 -20 -234q0 -299 57 -427q-78 25 -232 25t-239 -25q-1 140 -209 418q-117 156 -202 242
t-124 117q-31 -73 -31 -370q0 -86 41 -116q41 -31 141 -31q-15 -72 -15 -135t15 -125q-121 25 -385 25t-380 -25q15 62 15 125zM385 1531q25 36 25 137t-11 133t-17 34q139 0 253 58t114 117q168 -6 284 -96l70 -56q40 -33 71 -33q76 0 76 100q0 50 -22 85q23 -26 130 -26
t147 10t45 14q-26 -33 -26 -130t11 -134q11 -36 17 -38q-30 3 -82 3t-108 -18q-58 -18 -97 -45q-80 -55 -80 -115q-168 5 -284 95q-30 24 -70 57t-71 33q-75 0 -75 -103q0 -51 21 -85q-26 26 -157 26q-132 0 -164 -23z" />
    <glyph glyph-name="Ograve" unicode="&#xd2;" 
d="M853 220q127 0 189 92q76 115 76 390q0 472 -200 503q-32 5 -65 5t-65 -5t-62 -23q-138 -82 -138 -445q0 -433 160 -497q48 -20 105 -20zM1557 584q0 -130 16 -210t35 -106q-113 -13 -242 -105q-130 -92 -153 -183q-80 45 -314 45q-326 0 -406 -45q-23 91 -153 183
t-242 105q19 26 35 106t16 210q0 129 -66 151q70 19 70 198q0 178 -55 239h8q97 0 244 110q85 63 116 109t33 69q61 -35 233 -50q58 -5 121 -5q123 0 222 18q98 18 132 37q3 -46 75 -116q112 -110 242 -157q42 -15 76 -15h8q-55 -61 -55 -248q0 -112 39 -166q13 -18 31 -23
q-66 -22 -66 -151zM917 1532q-138 0 -176 -22v5q0 57 -123 252q-123 194 -198 243q62 -27 247 -27q186 0 267 27q-2 -8 -2 -24t8 -60q8 -42 22 -92q26 -102 64 -204t60 -120q-31 22 -169 22z" />
    <glyph glyph-name="Oacute" unicode="&#xd3;" 
d="M853 220q127 0 189 92q76 115 76 390q0 472 -200 503q-32 5 -65 5t-65 -5t-62 -23q-138 -82 -138 -445q0 -433 160 -497q48 -20 105 -20zM1557 584q0 -130 16 -210t35 -106q-113 -13 -242 -105q-130 -92 -153 -183q-80 45 -314 45q-326 0 -406 -45q-23 91 -153 183
t-242 105q19 26 35 106t16 210q0 129 -66 151q70 19 70 198q0 178 -55 239h8q97 0 244 110q85 63 116 109t33 69q61 -35 233 -50q58 -5 121 -5q123 0 222 18q98 18 132 37q3 -46 75 -116q112 -110 242 -157q42 -15 76 -15h8q-55 -61 -55 -248q0 -112 39 -166q13 -18 31 -23
q-66 -22 -66 -151zM868 1532q-198 0 -228 -22q44 44 96 310q20 106 20 143q0 38 -3 47q81 -27 265 -27t249 27q-74 -46 -178 -240q-105 -193 -105 -254v-3t1 -3q-38 22 -117 22z" />
    <glyph glyph-name="Ocircumflex" unicode="&#xd4;" 
d="M853 220q127 0 189 92q76 115 76 390q0 472 -200 503q-32 5 -65 5t-65 -5t-62 -23q-138 -82 -138 -445q0 -433 160 -497q48 -20 105 -20zM1557 584q0 -130 16 -210t35 -106q-113 -13 -242 -105q-130 -92 -153 -183q-80 45 -314 45q-326 0 -406 -45q-23 91 -153 183
t-242 105q19 26 35 106t16 210q0 129 -66 151q70 19 70 198q0 178 -55 239h8q97 0 244 110q85 63 116 109t33 69q61 -35 233 -50q58 -5 121 -5q123 0 222 18q98 18 132 37q3 -46 75 -116q112 -110 242 -157q42 -15 76 -15h8q-55 -61 -55 -248q0 -112 39 -166q13 -18 31 -23
q-66 -22 -66 -151zM651 1559q-45 16 -161 16q-117 0 -165 -16q56 41 185 214t129 233v4q54 -27 208 -27t210 27l-1 -5q0 -79 216 -331q81 -94 110 -115q-48 16 -161 16q-112 0 -176 -16q-9 13 -23 36q-58 99 -164 158q-114 -57 -182 -159q-15 -22 -25 -35z" />
    <glyph glyph-name="Otilde" unicode="&#xd5;" 
d="M853 220q127 0 189 92q76 115 76 390q0 472 -200 503q-32 5 -65 5t-65 -5t-62 -23q-138 -82 -138 -445q0 -433 160 -497q48 -20 105 -20zM1557 584q0 -130 16 -210t35 -106q-113 -13 -242 -105q-130 -92 -153 -183q-80 45 -314 45q-326 0 -406 -45q-23 91 -153 183
t-242 105q19 26 35 106t16 210q0 129 -66 151q70 19 70 198q0 178 -55 239h8q97 0 244 110q85 63 116 109t33 69q61 -35 233 -50q58 -5 121 -5q123 0 222 18q98 18 132 37q3 -46 75 -116q112 -110 242 -157q42 -15 76 -15h8q-55 -61 -55 -248q0 -112 39 -166q13 -18 31 -23
q-66 -22 -66 -151zM271 1531q25 36 25 137t-11 133t-17 34q139 0 253 58t114 117q168 -6 284 -96l70 -56q40 -33 71 -33q76 0 76 100q0 50 -22 85q23 -26 130 -26t147 10t45 14q-26 -33 -26 -130t11 -134q11 -36 17 -38q-30 3 -82 3t-108 -18q-58 -18 -97 -45
q-80 -55 -80 -115q-168 5 -284 95q-30 24 -70 57t-71 33q-75 0 -75 -103q0 -51 21 -85q-26 26 -157 26q-132 0 -164 -23z" />
    <glyph glyph-name="Odieresis" unicode="&#xd6;" 
d="M853 220q127 0 189 92q76 115 76 390q0 472 -200 503q-32 5 -65 5t-65 -5t-62 -23q-138 -82 -138 -445q0 -433 160 -497q48 -20 105 -20zM1557 584q0 -130 16 -210t35 -106q-113 -13 -242 -105q-130 -92 -153 -183q-80 45 -314 45q-326 0 -406 -45q-23 91 -153 183
t-242 105q19 26 35 106t16 210q0 129 -66 151q70 19 70 198q0 178 -55 239h8q97 0 244 110q85 63 116 109t33 69q61 -35 233 -50q58 -5 121 -5q123 0 222 18q98 18 132 37q3 -46 75 -116q112 -110 242 -157q42 -15 76 -15h8q-55 -61 -55 -248q0 -112 39 -166q13 -18 31 -23
q-66 -22 -66 -151zM315 1640q26 59 26 184t-27 186q67 -27 232 -27q164 0 218 27q-23 -54 -23 -179t23 -191q-81 23 -220 23q-140 0 -229 -23zM945 1640q26 59 26 184t-27 186q67 -27 232 -27q164 0 218 27q-23 -54 -23 -179t23 -191q-81 23 -220 23q-140 0 -229 -23z" />
    <glyph glyph-name="multiply" unicode="&#xd7;" horiz-adv-x="1360" 
d="M399 173q-29 64 -167 183q-46 40 -65 49q161 106 307 282q-149 175 -307 280q48 26 130 108t102 124q108 -164 281 -306q173 142 281 306q29 -53 111 -133t121 -99q-87 -58 -178 -146q-92 -89 -129 -134q147 -180 307 -282q-66 -31 -184 -167q-35 -40 -48 -65
q-60 90 -119 150t-93 95q-35 34 -69 63q-119 -99 -236 -246q-23 -29 -45 -62z" />
    <glyph glyph-name="Oslash" unicode="&#xd8;" 
d="M834 220q76 0 124 20q160 65 160 462q0 164 -22 273l-350 -632l-42 -76q55 -47 130 -47zM420 -112q-77 0 -103 -3q-27 -3 -45 -7t-31 -8t-23 -7q47 25 190 243q-82 80 -169 118t-141 44q19 26 35 106t16 210q0 129 -66 151q70 19 70 198q0 178 -55 239h8q97 0 244 110
q85 63 116 109t33 69q61 -35 233 -50q58 -5 172 -5t240 33q29 77 29 110t-9 48q33 -23 104 -23q70 0 100 3t50 7q21 5 36 9t26 6q-44 -23 -186 -265q108 -102 230 -146q42 -15 76 -15h8q-55 -61 -55 -248q0 -112 39 -166q13 -18 31 -23q-66 -23 -66 -151q0 -130 16 -210
t35 -106q-113 -13 -242 -105q-130 -92 -153 -183q-80 45 -307 45t-347 -25q-31 -71 -31 -98t6 -37q-37 23 -114 23zM1010 1159q-53 51 -145 51t-130 -22q-147 -87 -147 -451q0 -196 25 -297l383 693z" />
    <glyph glyph-name="Ugrave" unicode="&#xd9;" horiz-adv-x="1872" 
d="M289 594q0 118 -76 141q57 13 71 76q11 48 11 240q0 108 -95 124q-30 5 -67 5h-20q15 72 15 135t-15 125q95 -35 326 -35t331 14q99 14 118 21q-15 -54 -15 -121t15 -139h-18q-73 0 -98 -20q-46 -36 -46 -109v-454q0 -309 143 -361q43 -16 89 -16q107 0 167 82t60 295
v454q-1 107 -89 124q-26 5 -56 5h-17q15 72 15 139t-15 121q95 -35 312 -35t310 14t113 21q-15 -54 -15 -121t15 -139h-20q-77 0 -101 -20q-41 -33 -41 -115q0 -186 11 -234q14 -63 71 -76q-76 -23 -76 -141q0 -218 41 -326q-105 -12 -235 -105t-150 -183q-70 45 -278 45
q-292 0 -362 -45q-24 101 -122 183t-248 105q41 123 41 326zM823 1515q0 57 -123 252q-123 194 -198 243q62 -27 247 -27q186 0 267 27q-2 -8 -2 -24t8 -60q8 -42 22 -92q26 -102 64 -204t60 -120q-31 22 -169 22t-176 -22v5z" />
    <glyph glyph-name="Uacute" unicode="&#xda;" horiz-adv-x="1872" 
d="M289 594q0 118 -76 141q57 13 71 76q11 48 11 240q0 108 -95 124q-30 5 -67 5h-20q15 72 15 135t-15 125q95 -35 326 -35t331 14q99 14 118 21q-15 -54 -15 -121t15 -139h-18q-73 0 -98 -20q-46 -36 -46 -109v-454q0 -309 143 -361q43 -16 89 -16q107 0 167 82t60 295
v454q-1 107 -89 124q-26 5 -56 5h-17q15 72 15 139t-15 121q95 -35 312 -35t310 14t113 21q-15 -54 -15 -121t15 -139h-20q-77 0 -101 -20q-41 -33 -41 -115q0 -186 11 -234q14 -63 71 -76q-76 -23 -76 -141q0 -218 41 -326q-105 -12 -235 -105t-150 -183q-70 45 -278 45
q-292 0 -362 -45q-24 101 -122 183t-248 105q41 123 41 326zM838 1963q0 38 -3 47q81 -27 265 -27t249 27q-74 -46 -178 -240q-105 -193 -105 -254v-3t1 -3q-37 22 -117 22q-197 0 -228 -22q44 44 96 310q20 105 20 143z" />
    <glyph glyph-name="Ucircumflex" unicode="&#xdb;" horiz-adv-x="1872" 
d="M289 594q0 118 -76 141q57 13 71 76q11 48 11 240q0 108 -95 124q-30 5 -67 5h-20q15 72 15 135t-15 125q95 -35 326 -35t331 14q99 14 118 21q-15 -54 -15 -121t15 -139h-18q-73 0 -98 -20q-46 -36 -46 -109v-454q0 -309 143 -361q43 -16 89 -16q107 0 167 82t60 295
v454q-1 107 -89 124q-26 5 -56 5h-17q15 72 15 139t-15 121q95 -35 312 -35t310 14t113 21q-15 -54 -15 -121t15 -139h-20q-77 0 -101 -20q-41 -33 -41 -115q0 -186 11 -234q14 -63 71 -76q-76 -23 -76 -141q0 -218 41 -326q-105 -12 -235 -105t-150 -183q-70 45 -278 45
q-292 0 -362 -45q-24 101 -122 183t-248 105q41 123 41 326zM733 1559q-45 16 -161 16q-117 0 -165 -16q56 41 185 214t129 233v4q54 -27 208 -27t210 27l-1 -5q0 -79 216 -331q81 -94 110 -115q-48 16 -160 16t-177 -16q-9 13 -23 36q-58 99 -164 158q-114 -57 -182 -159
q-15 -22 -25 -35z" />
    <glyph glyph-name="Udieresis" unicode="&#xdc;" horiz-adv-x="1872" 
d="M289 594q0 118 -76 141q57 13 71 76q11 48 11 240q0 108 -95 124q-30 5 -67 5h-20q15 72 15 135t-15 125q95 -35 326 -35t331 14q99 14 118 21q-15 -54 -15 -121t15 -139h-18q-73 0 -98 -20q-46 -36 -46 -109v-454q0 -309 143 -361q43 -16 89 -16q107 0 167 82t60 295
v454q-1 107 -89 124q-26 5 -56 5h-17q15 72 15 139t-15 121q95 -35 312 -35t310 14t113 21q-15 -54 -15 -121t15 -139h-20q-77 0 -101 -20q-41 -33 -41 -115q0 -186 11 -234q14 -63 71 -76q-76 -23 -76 -141q0 -218 41 -326q-105 -12 -235 -105t-150 -183q-70 45 -278 45
q-292 0 -362 -45q-24 101 -122 183t-248 105q41 123 41 326zM397 1640q26 59 26 184t-27 186q68 -27 232 -27t218 27q-23 -54 -23 -179t23 -191q-80 23 -220 23t-229 -23zM1027 1640q26 59 26 184t-27 186q68 -27 232 -27t218 27q-23 -54 -23 -179t23 -191q-80 23 -220 23
t-229 -23z" />
    <glyph glyph-name="Yacute" unicode="&#xdd;" 
d="M494 125q0 63 -15 135q93 0 126 24t45 52t11 71q0 232 -276 328q25 9 25 51q0 87 -52 168q-52 80 -177 165q-46 32 -104 47q-58 14 -78 14q10 48 10 129t-10 131q216 -35 462 -35q247 0 391 35q-8 -45 -8 -141q0 -95 8 -119q-83 0 -112 -10q-57 -20 -57 -65
q0 -46 92 -162q38 -49 80 -101t72 -104q34 48 78 100q176 208 176 268q0 69 -113 73q-31 1 -62 1q8 48 8 131t-8 129q157 -35 355 -35q199 0 348 35q-10 -42 -10 -127t10 -133q-115 0 -271 -148q-42 -40 -70 -81q-62 -87 -63 -148q0 -61 22 -68q-124 -19 -194 -119
q-71 -101 -71 -198t41 -127q41 -31 141 -31q-15 -72 -15 -135t15 -125q-121 25 -385 25t-380 -25q15 62 15 125zM869 1532q-198 0 -228 -22q43 44 95 310q20 106 21 143q0 38 -3 47q81 -27 265 -27t249 27q-74 -46 -178 -240q-105 -193 -105 -254q1 -2 1 -3v-3
q-38 22 -117 22z" />
    <glyph glyph-name="Thorn" unicode="&#xde;" horiz-adv-x="1703" 
d="M885 575q109 0 153 13q134 39 134 151q0 151 -237 151q-169 0 -252 -35q-7 -32 -7 -104t7 -147q93 -29 202 -29zM115 125q0 63 -15 135q93 0 126 24q32 24 44 52t12 71q0 308 -69 328q38 13 50 60q19 80 19 256q0 107 -100 124q-30 5 -63 5h-19q15 72 15 135t-15 125
q95 -35 327 -35q338 0 438 35q-15 -62 -15 -125t15 -135q-188 0 -188 -49q0 -44 274 -44q176 0 288 14t124 19q3 -56 89 -129t143 -77q-30 -47 -30 -184t30 -180q-73 -11 -149 -70t-111 -120q-90 33 -284 33q-195 -1 -285 -13t-90 -44q0 -76 289 -76q-15 -72 -15 -135
t15 -125q-121 25 -430 25q-310 0 -435 -25q15 62 15 125z" />
    <glyph glyph-name="germandbls" unicode="&#xdf;" horiz-adv-x="1533" 
d="M155 117q0 71 -14 143q112 0 142 18q29 18 37 40q8 23 8 59v168q0 113 -39 167q-13 18 -30 23q60 20 68 135q-137 0 -209 -23q15 50 15 110q0 145 -15 198q78 -23 211 -23v70q0 128 -60 207q65 8 137 85t72 136v5q66 -35 295 -35t317 35q23 -89 126 -160q103 -70 184 -70
q4 1 6 1h5q-35 -59 -35 -191q0 -133 13 -202t22 -85q-117 -61 -191 -158q84 -98 220 -144q44 -15 91 -21q-20 -23 -27 -92q-7 -70 -7 -95q0 -107 34 -198q-73 -7 -132 -72t-90 -148q-29 25 -181 25t-222 -25q16 48 16 98t-1 68t-3 34q-2 14 -6 28q-3 14 -6 32q138 7 186 99
q16 33 16 77t-14 80t-36 66q-40 51 -105 79t-122 28q25 49 25 133t-25 133q73 4 134 76q60 72 60 136q0 113 -58 176t-132 63q-75 0 -96 -25q-35 -44 -35 -137l-5 -867q0 -96 63 -112q20 -5 44 -5q-14 -87 -14 -151t14 -109q-125 25 -316 25t-349 -25q14 46 14 117z" />
    <glyph glyph-name="agrave" unicode="&#xe0;" horiz-adv-x="1368" 
d="M542 260q55 -44 134 -15q131 49 141 230q-248 -6 -295 -82q-16 -26 -16 -65t36 -68zM101 261q0 70 -25 116q72 24 111 125q10 26 13 48q5 -2 11 -2h13q135 0 406 51q156 30 184 108q8 24 8 51q0 102 -109 102q-79 0 -117 -40t-37 -129q-62 15 -137 15q-192 0 -256 -15
q15 78 15 153t-15 132q145 0 276 64q39 19 60 40q57 -28 105 -32q49 -3 90 -3q193 0 256 35q32 -60 110 -103t140 -43h9q-36 -88 -36 -456v-78q0 -82 35 -106t155 -24q-20 -60 -20 -141t20 -129q-55 25 -196 25q-142 0 -215 -25q-13 88 -76 140q-64 -20 -112 -66t-58 -84
q-23 6 -41 12t-48 15q-29 9 -119 8q-89 0 -212 -35q-61 99 -155 142q-30 14 -58 15q25 44 25 114zM278 1655q57 -25 253 -25t267 25q-4 -12 -4 -40q0 -27 4 -67t11 -84q37 -233 78 -274q-40 20 -182 20t-177 -20l1 7q0 61 -92 234q-91 173 -159 224z" />
    <glyph glyph-name="aacute" unicode="&#xe1;" horiz-adv-x="1368" 
d="M542 260q55 -44 134 -15q131 49 141 230q-248 -6 -295 -82q-16 -26 -16 -65t36 -68zM101 261q0 70 -25 116q72 24 111 125q10 26 13 48q5 -2 11 -2h13q135 0 406 51q156 30 184 108q8 24 8 51q0 102 -109 102q-79 0 -117 -40t-37 -129q-62 15 -137 15q-192 0 -256 -15
q15 78 15 153t-15 132q145 0 276 64q39 19 60 40q57 -28 105 -32q49 -3 90 -3q193 0 256 35q32 -60 110 -103t140 -43h9q-36 -88 -36 -456v-78q0 -82 35 -106t155 -24q-20 -60 -20 -141t20 -129q-55 25 -196 25q-142 0 -215 -25q-13 88 -76 140q-64 -20 -112 -66t-58 -84
q-23 6 -41 12t-48 15q-29 9 -119 8q-89 0 -212 -35q-61 99 -155 142q-30 14 -58 15q25 44 25 114zM528 1190q40 44 77 278q15 94 15 135q0 40 -3 52q71 -25 267 -25t253 25q-68 -51 -159 -224q-92 -173 -92 -234q0 -5 1 -7q-40 20 -182 20t-177 -20z" />
    <glyph glyph-name="acircumflex" unicode="&#xe2;" horiz-adv-x="1368" 
d="M542 260q55 -44 134 -15q131 49 141 230q-248 -6 -295 -82q-16 -26 -16 -65t36 -68zM101 261q0 70 -25 116q72 24 111 125q10 26 13 48q5 -2 11 -2h13q135 0 406 51q156 30 184 108q8 24 8 51q0 102 -109 102q-79 0 -117 -40t-37 -129q-62 15 -137 15q-192 0 -256 -15
q15 78 15 153t-15 132q145 0 276 64q39 19 60 40q57 -28 105 -32q49 -3 90 -3q193 0 256 35q32 -60 110 -103t140 -43h9q-36 -88 -36 -456v-78q0 -82 35 -106t155 -24q-20 -60 -20 -141t20 -129q-55 25 -196 25q-142 0 -215 -25q-13 88 -76 140q-64 -20 -112 -66t-58 -84
q-23 6 -41 12t-48 15q-29 9 -119 8q-89 0 -212 -35q-61 99 -155 142q-30 14 -58 15q25 44 25 114zM502 1160q-35 15 -151 15t-151 -15q61 56 137 159q75 102 125 180t50 122v4q42 -25 177 -25q136 0 184 25v-4q-1 -81 215 -342q72 -87 107 -119q-42 15 -150 15t-162 -15
q-55 109 -182 192q-136 -81 -199 -192z" />
    <glyph glyph-name="atilde" unicode="&#xe3;" horiz-adv-x="1368" 
d="M542 260q55 -44 134 -15q131 49 141 230q-248 -6 -295 -82q-16 -26 -16 -65t36 -68zM101 261q0 70 -25 116q72 24 111 125q10 26 13 48q5 -2 11 -2h13q135 0 406 51q156 30 184 108q8 24 8 51q0 102 -109 102q-79 0 -117 -40t-37 -129q-62 15 -137 15q-192 0 -256 -15
q15 78 15 153t-15 132q145 0 276 64q39 19 60 40q57 -28 105 -32q49 -3 90 -3q193 0 256 35q32 -60 110 -103t140 -43h9q-36 -88 -36 -456v-78q0 -82 35 -106t155 -24q-20 -60 -20 -141t20 -129q-55 25 -196 25q-142 0 -215 -25q-13 88 -76 140q-64 -20 -112 -66t-58 -84
q-23 6 -41 12t-48 15q-29 9 -119 8q-89 0 -212 -35q-61 99 -155 142q-30 14 -58 15q25 44 25 114zM115 1161q25 36 25 137t-11 133t-17 34q139 0 253 58t114 117q167 -7 284 -97q30 -23 70 -55t71 -33q76 0 76 103q0 50 -22 85q23 -26 130 -26q107 -1 147 9t45 15
q-26 -33 -26 -131q0 -97 11 -135q11 -37 17 -39q-30 3 -82 3t-108 -18q-58 -18 -97 -45q-80 -55 -80 -115q-168 5 -284 95q-30 24 -70 57t-71 33q-75 0 -75 -103q0 -51 21 -85q-26 26 -157 26q-132 0 -164 -23z" />
    <glyph glyph-name="adieresis" unicode="&#xe4;" horiz-adv-x="1368" 
d="M542 260q55 -44 134 -15q131 49 141 230q-248 -6 -295 -82q-16 -26 -16 -65t36 -68zM101 261q0 70 -25 116q72 24 111 125q10 26 13 48q5 -2 11 -2h13q135 0 406 51q156 30 184 108q8 24 8 51q0 102 -109 102q-79 0 -117 -40t-37 -129q-62 15 -137 15q-192 0 -256 -15
q15 78 15 153t-15 132q145 0 276 64q39 19 60 40q57 -28 105 -32q49 -3 90 -3q193 0 256 35q32 -60 110 -103t140 -43h9q-36 -88 -36 -456v-78q0 -82 35 -106t155 -24q-20 -60 -20 -141t20 -129q-55 25 -196 25q-142 0 -215 -25q-13 88 -76 140q-64 -20 -112 -66t-58 -84
q-23 6 -41 12t-48 15q-29 9 -119 8q-89 0 -212 -35q-61 99 -155 142q-30 14 -58 15q25 44 25 114zM158 1214q26 59 26 184t-27 186q67 -27 232 -27q164 0 218 27q-23 -54 -23 -179t23 -191q-81 23 -220 23q-140 0 -229 -23zM788 1214q26 59 26 184t-27 186q67 -27 232 -27
q164 0 218 27q-23 -54 -23 -179t23 -191q-81 23 -220 23q-140 0 -229 -23z" />
    <glyph glyph-name="aring" unicode="&#xe5;" horiz-adv-x="1368" 
d="M542 260q55 -44 134 -15q131 49 141 230q-248 -6 -295 -82q-16 -26 -16 -65t36 -68zM101 261q0 70 -25 116q72 24 111 125q10 26 13 48q5 -2 11 -2h13q135 0 406 51q156 30 184 108q8 24 8 51q0 102 -109 102q-79 0 -117 -40t-37 -129q-62 15 -137 15q-192 0 -256 -15
q15 78 15 153t-15 132q145 0 276 64q39 19 60 40q57 -28 105 -32q49 -3 90 -3q193 0 256 35q32 -60 110 -103t140 -43h9q-36 -88 -36 -456v-78q0 -82 35 -106t155 -24q-20 -60 -20 -141t20 -129q-55 25 -196 25q-142 0 -215 -25q-13 88 -76 140q-64 -20 -112 -66t-58 -84
q-23 6 -41 12t-48 15q-29 9 -119 8q-89 0 -212 -35q-61 99 -155 142q-30 14 -58 15q25 44 25 114zM792 1324q37 32 37 71q0 70 -31 105t-81 35q-79 0 -111 -35q-31 -35 -31 -77q0 -41 10 -63t27 -37q35 -31 89 -31t91 32zM696 1153q-101 0 -142 -18q-36 50 -160 75
q-34 7 -56 7q-21 0 -32 -2q28 37 28 163t-28 191h8q60 0 139 42q80 42 99 82q38 -18 146 -18t144 18q19 -39 100 -82q81 -42 139 -42h7q-28 -56 -28 -191t28 -163q-4 1 -10 1h-12q-96 0 -194 -54q-26 -14 -32 -27q-43 18 -144 18z" />
    <glyph glyph-name="ae" unicode="&#xe6;" horiz-adv-x="2047" 
d="M872 197q-11 3 -20 3zM531 319q-1 -87 93 -87q191 0 208 243q-301 -7 -301 -156zM1410 677q96 -1 120 7q46 14 46 66q0 51 -24 73q-45 44 -118 44q-133 0 -185 -42t-58 -148h219zM113 260q0 69 -23 111q74 27 110 125q10 26 12 48q5 -2 11 -2h13q112 0 289 33t217 49
q109 45 109 134q0 102 -126 102q-79 0 -111 -40t-33 -129q-62 15 -142 15q-197 0 -261 -15q15 78 15 153t-15 132q132 0 250 64q35 19 56 40q74 -35 211 -35t190 35q48 -94 142 -152q92 59 131 152q83 -35 260 -35q178 0 248 35q31 -64 125 -108q95 -44 165 -47
q-35 -79 -35 -232t21 -206q-154 11 -314 11h-232t-120 -10q-46 -8 -65 -30q-20 -22 -20 -66q0 -88 64 -137t179 -49t125 94q3 28 3 60q46 -14 131 -14q201 0 253 15q-15 -75 -15 -155t15 -123h-18q-152 1 -318 -57q-48 -16 -72 -36q-54 35 -189 35t-237 -35q-18 50 -100 122
q-24 21 -49 39q-118 -40 -181 -84t-71 -77q-23 6 -45 12l-44 12q-130 31 -321 -24q-61 99 -155 142q-30 14 -58 15q25 44 25 113z" />
    <glyph glyph-name="ccedilla" unicode="&#xe7;" horiz-adv-x="1364" 
d="M898 1100q64 -85 242 -85q64 0 112 13q-25 -67 -25 -147q0 -201 25 -251q-48 23 -165 23t-174 -23q-8 106 -47 160t-127 53q-88 0 -140 -68t-52 -237q0 -274 112 -314q34 -12 73 -12q171 0 187 218q59 -22 168 -22t165 22q-20 -60 -20 -128q0 -124 20 -199q-16 2 -45 2
q-67 0 -168 -35t-155 -80q-85 35 -204 35t-230 -35q-12 52 -137 114t-210 62h-11q55 58 55 352q0 176 -30 287q-10 37 -25 55q87 9 190 73t134 147q65 -35 239 -35t243 55z" />
    <glyph glyph-name="egrave" unicode="&#xe8;" horiz-adv-x="1366" 
d="M774 678q79 0 95 12q17 12 21 28t3 52q0 37 -41 67q-42 30 -112 30q-127 0 -176 -41q-50 -41 -56 -148h266zM165 518q0 172 -20 248t-35 94q86 0 196 77t128 143q101 -35 282 -35q180 0 246 35q31 -63 135 -108t177 -47q-35 -74 -35 -230t20 -206q-112 9 -367 9l-234 -1
q-132 0 -146 -71q-4 -22 -5 -54q0 -71 70 -119t178 -48q107 0 120 95q4 28 4 60q45 -15 130 -15q200 0 252 15q-12 -66 -12 -150t15 -127h-18q-125 0 -242 -57q-35 -17 -60 -36q-54 35 -187 35q-196 0 -289 -35q-18 53 -135 115t-207 62q-5 -1 -9 -1h-8q56 67 56 352z
M284 1655q57 -25 253 -25t267 25q-4 -12 -4 -40q0 -27 4 -67t11 -84q37 -233 78 -274q-40 20 -182 20t-177 -20l1 7q0 61 -92 234q-91 173 -159 224z" />
    <glyph glyph-name="eacute" unicode="&#xe9;" horiz-adv-x="1366" 
d="M774 678q79 0 95 12q17 12 21 28t3 52q0 37 -41 67q-42 30 -112 30q-127 0 -176 -41q-50 -41 -56 -148h266zM165 518q0 172 -20 248t-35 94q86 0 196 77t128 143q101 -35 282 -35q180 0 246 35q31 -63 135 -108t177 -47q-35 -74 -35 -230t20 -206q-112 9 -367 9l-234 -1
q-132 0 -146 -71q-4 -22 -5 -54q0 -71 70 -119t178 -48q107 0 120 95q4 28 4 60q45 -15 130 -15q200 0 252 15q-12 -66 -12 -150t15 -127h-18q-125 0 -242 -57q-35 -17 -60 -36q-54 35 -187 35q-196 0 -289 -35q-18 53 -135 115t-207 62q-5 -1 -9 -1h-8q56 67 56 352z
M534 1190q40 44 77 278q15 94 15 135q0 40 -3 52q71 -25 267 -25t253 25q-68 -51 -159 -224q-92 -173 -92 -234q0 -5 1 -7q-40 20 -182 20t-177 -20z" />
    <glyph glyph-name="ecircumflex" unicode="&#xea;" horiz-adv-x="1366" 
d="M774 678q79 0 95 12q17 12 21 28t3 52q0 37 -41 67q-42 30 -112 30q-127 0 -176 -41q-50 -41 -56 -148h266zM165 518q0 172 -20 248t-35 94q86 0 196 77t128 143q101 -35 282 -35q180 0 246 35q31 -63 135 -108t177 -47q-35 -74 -35 -230t20 -206q-112 9 -367 9l-234 -1
q-132 0 -146 -71q-4 -22 -5 -54q0 -71 70 -119t178 -48q107 0 120 95q4 28 4 60q45 -15 130 -15q200 0 252 15q-12 -66 -12 -150t15 -127h-18q-125 0 -242 -57q-35 -17 -60 -36q-54 35 -187 35q-196 0 -289 -35q-18 53 -135 115t-207 62q-5 -1 -9 -1h-8q56 67 56 352z
M508 1160q-35 15 -151 15t-151 -15q61 56 137 159q75 102 125 180t50 122v4q42 -25 177 -25q136 0 184 25v-4q-1 -81 215 -342q72 -87 107 -119q-42 15 -150 15t-162 -15q-55 109 -182 192q-136 -81 -199 -192z" />
    <glyph glyph-name="edieresis" unicode="&#xeb;" horiz-adv-x="1366" 
d="M774 678q79 0 95 12q17 12 21 28t3 52q0 37 -41 67q-42 30 -112 30q-127 0 -176 -41q-50 -41 -56 -148h266zM165 518q0 172 -20 248t-35 94q86 0 196 77t128 143q101 -35 282 -35q180 0 246 35q31 -63 135 -108t177 -47q-35 -74 -35 -230t20 -206q-112 9 -367 9l-234 -1
q-132 0 -146 -71q-4 -22 -5 -54q0 -71 70 -119t178 -48q107 0 120 95q4 28 4 60q45 -15 130 -15q200 0 252 15q-12 -66 -12 -150t15 -127h-18q-125 0 -242 -57q-35 -17 -60 -36q-54 35 -187 35q-196 0 -289 -35q-18 53 -135 115t-207 62q-5 -1 -9 -1h-8q56 67 56 352z
M164 1214q26 59 26 184t-27 186q68 -27 232 -27t218 27q-23 -54 -23 -179t23 -191q-81 23 -220 23q-140 0 -229 -23zM794 1214q26 59 26 184t-27 186q68 -27 232 -27t218 27q-23 -54 -23 -179t23 -191q-80 23 -220 23t-229 -23z" />
    <glyph glyph-name="igrave" unicode="&#xec;" horiz-adv-x="853" 
d="M101 117q0 71 -14 143q118 0 158 18q41 18 55 40q14 23 14 59v278q-4 109 -110 125q-32 4 -66 5h-32q20 50 20 132t-20 128q170 -8 294 -8q250 0 363 43q-63 -124 -77 -236q-6 -47 -5 -108l-1 -359q0 -117 222 -117q-13 -46 -13 -131t13 -129q-135 25 -421 25t-394 -25
q14 46 14 117zM8 1655q57 -25 253 -25t267 25q-4 -12 -4 -40q0 -27 4 -67t11 -84q37 -233 78 -274q-40 20 -182 20t-177 -20l1 7q0 61 -92 234q-91 173 -159 224z" />
    <glyph glyph-name="iacute" unicode="&#xed;" horiz-adv-x="853" 
d="M101 117q0 71 -14 143q118 0 158 18q41 18 55 40q14 23 14 59v278q-4 109 -110 125q-32 4 -66 5h-32q20 50 20 132t-20 128q170 -8 294 -8q250 0 363 43q-63 -124 -77 -236q-6 -47 -5 -108l-1 -359q0 -117 222 -117q-13 -46 -13 -131t13 -129q-135 25 -421 25t-394 -25
q14 46 14 117zM258 1190q40 44 77 278q15 94 15 135q0 40 -3 52q71 -25 267 -25t253 25q-68 -51 -159 -224q-92 -173 -92 -234q0 -5 1 -7q-40 20 -182 20t-177 -20z" />
    <glyph glyph-name="icircumflex" unicode="&#xee;" horiz-adv-x="853" 
d="M101 117q0 71 -14 143q118 0 158 18q41 18 55 40q14 23 14 59v278q-4 109 -110 125q-32 4 -66 5h-32q20 50 20 132t-20 128q170 -8 294 -8q250 0 363 43q-63 -124 -77 -236q-6 -47 -5 -108l-1 -359q0 -117 222 -117q-13 -46 -13 -131t13 -129q-135 25 -421 25t-394 -25
q14 46 14 117zM232 1160q-35 15 -151 15t-151 -15q61 56 137 159q75 102 125 180t50 122v4q42 -25 177 -25q136 0 184 25v-4q-1 -81 215 -342q72 -87 107 -119q-42 15 -150 15t-162 -15q-55 109 -182 192q-136 -81 -199 -192z" />
    <glyph glyph-name="idieresis" unicode="&#xef;" horiz-adv-x="853" 
d="M101 117q0 71 -14 143q118 0 158 18q41 18 55 40q14 23 14 59v278q-4 109 -110 125q-32 4 -66 5h-32q20 50 20 132t-20 128q170 -8 294 -8q250 0 363 43q-63 -124 -77 -236q-6 -47 -5 -108l-1 -359q0 -117 222 -117q-13 -46 -13 -131t13 -129q-135 25 -421 25t-394 -25
q14 46 14 117zM-112 1214q26 59 26 184t-27 186q67 -27 232 -27q164 0 218 27q-23 -54 -23 -179t23 -191q-81 23 -220 23q-140 0 -229 -23zM518 1214q26 59 26 184t-27 186q67 -27 232 -27q164 0 218 27q-23 -54 -23 -179t23 -191q-81 23 -220 23q-140 0 -229 -23z" />
    <glyph glyph-name="eth" unicode="&#xf0;" horiz-adv-x="1529" 
d="M558 507q0 -96 14 -154q14 -57 42 -87q27 -30 64 -38t82 -8q97 0 149 76q53 76 53 255t-56 235q-27 26 -64 32t-82 6t-82 -14t-64 -50q-28 -36 -42 -96q-14 -61 -14 -157zM771 1335q2 6 2 7zM127 230q35 105 35 266t-14 241t-21 96q60 0 160 61t117 140q51 -18 215 -18
q163 0 215 25q26 -47 110 -83q24 -10 44 -14q1 6 1 12v11q0 71 -33 150q-33 80 -63 80q-37 -1 -153 -99q-26 -22 -37 -34q-52 93 -118 135q63 26 115 67q52 40 64 56q-16 25 -91 25q-154 0 -254 -28q18 55 18 113q0 131 -26 193q109 -25 246 -25t205 25q14 -68 74 -124
q18 -17 39 -26q105 75 161 143q20 24 22 39q84 -135 142 -158q-53 -20 -118 -72t-82 -69q58 -69 142 -107q24 -11 39 -12q-16 -70 -16 -142q0 -232 145 -363q-51 -9 -68 -123q-5 -35 -5 -81q0 -104 13 -202t27 -120q-129 -11 -241 -87t-132 -131q-79 45 -255 45t-274 -45
q-26 65 -140 146t-208 94z" />
    <glyph glyph-name="ntilde" unicode="&#xf1;" horiz-adv-x="1704" 
d="M153 117q0 71 -14 143q111 0 142 18t39 40q8 23 9 59v278q-3 111 -81 125q-26 4 -58 5h-31q20 50 20 131t-20 127q81 -11 165 -11q260 0 360 38q-12 -34 -12 -79t13 -115q107 34 145 152q10 30 16 52q57 -35 241 -35t230 35q33 -85 81 -144t129 -83q-65 -81 -65 -251
v-225q0 -70 41 -93q41 -24 140 -24q-16 -64 -16 -144t16 -116q-155 25 -283 25q-292 0 -391 -25q13 52 13 136t-13 124q71 0 95 21t24 96v208q0 133 -75 177q-26 16 -57 16q-80 0 -154 -38q-100 -50 -100 -140h-1l1 -223q0 -65 40 -91t112 -26q-13 -46 -13 -128t13 -132
q-160 25 -288 25q-319 0 -427 -25q14 46 14 117zM305 1161q25 36 25 137t-11 133t-17 34q139 0 253 58t114 117q167 -7 284 -97q30 -23 70 -55t71 -33q76 0 76 103q0 50 -22 85q23 -26 130 -26q107 -1 147 9t45 15q-26 -33 -26 -131q0 -97 11 -135q11 -37 17 -39
q-30 3 -82 3t-108 -18q-58 -18 -97 -45q-80 -55 -80 -115q-168 5 -284 95q-30 24 -70 57t-71 33q-75 0 -75 -103q0 -51 21 -85q-26 26 -157 26q-132 0 -164 -23z" />
    <glyph glyph-name="ograve" unicode="&#xf2;" horiz-adv-x="1536" 
d="M625 275q46 -75 154 -75q156 0 182 194q8 59 8 128q0 154 -41 236t-149 82q-109 0 -154 -73q-46 -73 -46 -246q0 -171 46 -246zM124 166q55 80 55 326t-34 321q-10 22 -20 43q88 9 194 76t129 148q79 -35 282 -35q276 0 364 35q22 -80 131 -148q109 -67 192 -76
q-40 -79 -46 -162q-7 -82 -7 -170q0 -168 11 -245t43 -113q-79 0 -194 -58q-114 -58 -134 -118q-95 35 -324 35t-314 -35q-31 68 -139 122t-189 54zM349 1655q57 -25 253 -25t267 25q-4 -12 -4 -40q0 -27 4 -67t11 -84q37 -233 78 -274q-40 20 -182 20t-177 -20l1 7
q0 61 -92 234q-91 173 -159 224z" />
    <glyph glyph-name="oacute" unicode="&#xf3;" horiz-adv-x="1536" 
d="M625 275q46 -75 154 -75q156 0 182 194q8 59 8 128q0 154 -41 236t-149 82q-109 0 -154 -73q-46 -73 -46 -246q0 -171 46 -246zM124 166q55 80 55 326t-34 321q-10 22 -20 43q88 9 194 76t129 148q79 -35 282 -35q276 0 364 35q22 -80 131 -148q109 -67 192 -76
q-40 -79 -46 -162q-7 -82 -7 -170q0 -168 11 -245t43 -113q-79 0 -194 -58q-114 -58 -134 -118q-95 35 -324 35t-314 -35q-31 68 -139 122t-189 54zM599 1190q40 44 77 278q15 94 15 135q0 40 -3 52q71 -25 267 -25t253 25q-68 -51 -159 -224q-92 -173 -92 -234q0 -5 1 -7
q-40 20 -182 20t-177 -20z" />
    <glyph glyph-name="ocircumflex" unicode="&#xf4;" horiz-adv-x="1536" 
d="M625 275q46 -75 154 -75q156 0 182 194q8 59 8 128q0 154 -41 236t-149 82q-109 0 -154 -73q-46 -73 -46 -246q0 -171 46 -246zM124 166q55 80 55 326t-34 321q-10 22 -20 43q88 9 194 76t129 148q79 -35 282 -35q276 0 364 35q22 -80 131 -148q109 -67 192 -76
q-40 -79 -46 -162q-7 -82 -7 -170q0 -168 11 -245t43 -113q-79 0 -194 -58q-114 -58 -134 -118q-95 35 -324 35t-314 -35q-31 68 -139 122t-189 54zM573 1160q-35 15 -151 15t-151 -15q61 56 137 159q75 102 125 180t50 122v4q42 -25 177 -25q136 0 184 25v-4
q0 -81 216 -342q72 -87 106 -119q-42 15 -150 15t-162 -15q-55 109 -182 192q-136 -81 -199 -192z" />
    <glyph glyph-name="otilde" unicode="&#xf5;" horiz-adv-x="1536" 
d="M625 275q46 -75 154 -75q156 0 182 194q8 59 8 128q0 154 -41 236t-149 82q-109 0 -154 -73q-46 -73 -46 -246q0 -171 46 -246zM124 166q55 80 55 326t-34 321q-10 22 -20 43q88 9 194 76t129 148q79 -35 282 -35q276 0 364 35q22 -80 131 -148q109 -67 192 -76
q-40 -79 -46 -162q-7 -82 -7 -170q0 -168 11 -245t43 -113q-79 0 -194 -58q-114 -58 -134 -118q-95 35 -324 35t-314 -35q-31 68 -139 122t-189 54zM186 1161q25 36 25 137t-11 133t-17 34q139 0 253 58t114 117q167 -7 284 -97q30 -23 70 -55t71 -33q76 0 76 103
q0 50 -22 85q23 -26 130 -26q107 -1 147 9t45 15q-26 -33 -26 -131q0 -97 11 -135q11 -37 17 -39q-29 3 -81 3t-110 -18t-96 -45q-80 -55 -80 -115q-168 5 -284 95q-30 24 -70 57t-71 33q-75 0 -75 -103q0 -51 21 -85q-26 26 -157 26q-132 0 -164 -23z" />
    <glyph glyph-name="odieresis" unicode="&#xf6;" horiz-adv-x="1536" 
d="M625 275q46 -75 154 -75q156 0 182 194q8 59 8 128q0 154 -41 236t-149 82q-109 0 -154 -73q-46 -73 -46 -246q0 -171 46 -246zM124 166q55 80 55 326t-34 321q-10 22 -20 43q88 9 194 76t129 148q79 -35 282 -35q276 0 364 35q22 -80 131 -148q109 -67 192 -76
q-40 -79 -46 -162q-7 -82 -7 -170q0 -168 11 -245t43 -113q-79 0 -194 -58q-114 -58 -134 -118q-95 35 -324 35t-314 -35q-31 68 -139 122t-189 54zM229 1214q26 59 26 184t-27 186q68 -27 232 -27t218 27q-23 -54 -23 -179t23 -191q-80 23 -220 23t-229 -23zM859 1214
q26 59 26 184t-27 186q68 -27 232 -27t218 27q-23 -54 -23 -179t23 -191q-80 23 -220 23t-229 -23z" />
    <glyph glyph-name="divide" unicode="&#xf7;" horiz-adv-x="1360" 
d="M432 0q29 65 29 213q0 147 -30 217q90 -30 265 -30t235 30q-25 -58 -25 -211q0 -152 25 -219q-79 25 -249 25t-250 -25zM119 830q109 -23 323 -23h476q214 0 323 23q-15 -55 -15 -154t15 -134q-109 23 -323 23h-476q-214 0 -323 -23q15 40 15 143q0 104 -15 145zM432 940
q29 65 29 213q0 147 -30 217q90 -30 265 -30t235 30q-25 -58 -25 -211q0 -152 25 -219q-79 25 -249 25t-250 -25z" />
    <glyph glyph-name="oslash" unicode="&#xf8;" horiz-adv-x="1536" 
d="M124 166q55 80 55 326t-34 321q-10 22 -20 43q88 9 194 76t129 148q79 -35 339 -35q118 0 230 17q46 93 46 124t-7 42q29 -23 96 -23q66 0 94 3q28 4 48 8t34 8t24 6q-49 -29 -195 -245q70 -66 147 -96q76 -29 113 -33q-40 -79 -46 -162q-7 -82 -7 -170q0 -168 11 -245
t43 -113q-79 0 -194 -58q-114 -58 -134 -118q-95 35 -281 35t-239 -10l-52 -10q-46 -80 -46 -105q0 -26 6 -35q-36 23 -107 23q-73 0 -97 -3t-42 -7t-29 -8l-21 -7q42 22 189 214q-74 52 -142 70q-69 19 -105 19zM961 394q8 59 8 140t-13 144l-216 -335q-27 -43 -47 -71
t-28 -41q43 -31 108 -31q64 0 101 24t58 68q21 43 29 102zM780 840q-109 0 -155 -73t-46 -245q0 -82 10 -142q17 25 29 44l220 341q17 26 34 53q-36 22 -92 22z" />
    <glyph glyph-name="ugrave" unicode="&#xf9;" horiz-adv-x="1538" 
d="M79 785h-31q20 50 20 132t-20 128q56 -9 150 -9q338 0 455 44q-63 -123 -63 -432v-174q0 -92 20 -130q38 -72 118 -72q175 0 239 101q24 38 24 95v187q-2 79 -29 104q-27 26 -120 26h-21q20 50 20 132t-20 128q56 -9 150 -9q338 0 455 44q-40 -45 -52 -121t-12 -190
l1 -121l-1 -258q0 -40 2 -66t23 -45q20 -19 135 -19q-17 -49 -17 -135t17 -125q-55 25 -200 25t-218 -25q0 111 -72 172q-79 -15 -150 -68t-90 -104q-33 25 -201 25t-230 -25q-31 116 -131 178q-32 20 -69 28q57 71 55 251l-2 198q-2 80 -33 105t-102 25zM366 1655
q57 -25 253 -25t267 25q-4 -12 -4 -40q0 -27 4 -67t11 -84q37 -233 78 -274q-40 20 -182 20t-177 -20l1 7q0 61 -92 234q-91 173 -159 224z" />
    <glyph glyph-name="uacute" unicode="&#xfa;" horiz-adv-x="1538" 
d="M79 785h-31q20 50 20 132t-20 128q56 -9 150 -9q338 0 455 44q-63 -123 -63 -432v-174q0 -92 20 -130q38 -72 118 -72q175 0 239 101q24 38 24 95v187q-2 79 -29 104q-27 26 -120 26h-21q20 50 20 132t-20 128q56 -9 150 -9q338 0 455 44q-40 -45 -52 -121t-12 -190
l1 -121l-1 -258q0 -40 2 -66t23 -45q20 -19 135 -19q-17 -49 -17 -135t17 -125q-55 25 -200 25t-218 -25q0 111 -72 172q-79 -15 -150 -68t-90 -104q-33 25 -201 25t-230 -25q-31 116 -131 178q-32 20 -69 28q57 71 55 251l-2 198q-2 80 -33 105t-102 25zM616 1190
q40 44 77 278q15 94 15 135q0 40 -3 52q71 -25 267 -25t253 25q-68 -51 -159 -224q-92 -173 -92 -234q0 -5 1 -7q-40 20 -182 20t-177 -20z" />
    <glyph glyph-name="ucircumflex" unicode="&#xfb;" horiz-adv-x="1538" 
d="M79 785h-31q20 50 20 132t-20 128q56 -9 150 -9q338 0 455 44q-63 -123 -63 -432v-174q0 -92 20 -130q38 -72 118 -72q175 0 239 101q24 38 24 95v187q-2 79 -29 104q-27 26 -120 26h-21q20 50 20 132t-20 128q56 -9 150 -9q338 0 455 44q-40 -45 -52 -121t-12 -190
l1 -121l-1 -258q0 -40 2 -66t23 -45q20 -19 135 -19q-17 -49 -17 -135t17 -125q-55 25 -200 25t-218 -25q0 111 -72 172q-79 -15 -150 -68t-90 -104q-33 25 -201 25t-230 -25q-31 116 -131 178q-32 20 -69 28q57 71 55 251l-2 198q-2 80 -33 105t-102 25zM590 1160
q-35 15 -151 15t-151 -15q61 56 137 159q75 102 125 180t50 122v4q42 -25 177 -25q136 0 184 25v-4q-1 -81 215 -342q72 -87 107 -119q-42 15 -150 15t-162 -15q-55 109 -182 192q-136 -81 -199 -192z" />
    <glyph glyph-name="udieresis" unicode="&#xfc;" horiz-adv-x="1538" 
d="M79 785h-31q20 50 20 132t-20 128q56 -9 150 -9q338 0 455 44q-63 -123 -63 -432v-174q0 -92 20 -130q38 -72 118 -72q175 0 239 101q24 38 24 95v187q-2 79 -29 104q-27 26 -120 26h-21q20 50 20 132t-20 128q56 -9 150 -9q338 0 455 44q-40 -45 -52 -121t-12 -190
l1 -121l-1 -258q0 -40 2 -66t23 -45q20 -19 135 -19q-17 -49 -17 -135t17 -125q-55 25 -200 25t-218 -25q0 111 -72 172q-79 -15 -150 -68t-90 -104q-33 25 -201 25t-230 -25q-31 116 -131 178q-32 20 -69 28q57 71 55 251l-2 198q-2 80 -33 105t-102 25zM246 1214
q26 59 26 184t-27 186q68 -27 232 -27t218 27q-23 -54 -23 -179t23 -191q-81 23 -220 23q-140 0 -229 -23zM876 1214q26 59 26 184t-27 186q68 -27 232 -27t218 27q-23 -54 -23 -179t23 -191q-81 23 -220 23q-140 0 -229 -23z" />
    <glyph glyph-name="yacute" unicode="&#xfd;" horiz-adv-x="1364" 
d="M689 810q-140 0 -140 -63q0 -44 71 -196t103 -245q26 62 57 126q32 64 76 161t44 145t-29 60t-95 12q10 56 10 134t-12 126q36 -25 237 -25q303 0 349 25q-10 -42 -10 -123t10 -137q-121 0 -201 -116t-80 -228q0 -25 17 -31q-91 -25 -171 -209t-131 -368t-51 -218
q-129 -14 -254 -108q-46 -34 -80 -82q-77 30 -206 30q-128 0 -212 -30q18 61 18 150q0 199 -18 280q38 -16 201 -16t192 16q0 -48 24 -76t64 -29q40 0 64 32t24 83t-28 82t-77 31q-14 0 -29 -3q2 14 2 46q0 102 -46 197q-82 169 -160 192q17 6 17 25q0 54 -11 94
q-38 139 -156 218q-57 38 -107 38q12 70 12 141t-12 119q62 -25 197 -25q250 0 369 5q118 5 160 20q-12 -50 -12 -127t10 -133zM603 1190q40 44 77 278q15 94 15 135q0 40 -3 52q71 -25 267 -25t253 25q-68 -51 -159 -224q-92 -173 -92 -234q0 -5 1 -7q-40 20 -182 20
t-177 -20z" />
    <glyph glyph-name="thorn" unicode="&#xfe;" horiz-adv-x="1704" 
d="M708 542q0 -142 41 -222t150 -80t154 74t45 229q0 154 -45 221q-45 66 -155 66q-156 0 -182 -172q-8 -52 -8 -116zM1562 870q-45 -98 -45 -328t45 -327q-105 -8 -206 -79t-137 -146q-88 35 -219 35q-132 0 -227 -35q-17 78 -80 141v-303q1 -95 173 -112q52 -5 110 -5
q-13 -46 -13 -128q0 -83 13 -133q-224 35 -400 35q-273 0 -425 -35q14 46 14 117q0 72 -14 144q92 -1 122 17q29 18 39 41t9 59v707q0 121 -38 175q-13 18 -31 23q40 15 54 67t15 152l-1 51l1 207q-3 112 -81 126q-26 4 -58 4h-31q20 50 20 132t-20 128q76 -12 187 -12
q327 0 418 37q-63 -123 -63 -422v-251q91 32 140 128q48 -35 198 -35t188 35q35 -73 135 -138q101 -64 208 -72z" />
    <glyph glyph-name="ydieresis" unicode="&#xff;" horiz-adv-x="1364" 
d="M689 810q-140 0 -140 -63q0 -44 71 -196t103 -245q26 62 57 126q32 64 76 161t44 145t-29 60t-95 12q10 56 10 134t-12 126q36 -25 237 -25q303 0 349 25q-10 -42 -10 -123t10 -137q-121 0 -201 -116t-80 -228q0 -25 17 -31q-91 -25 -171 -209t-131 -368t-51 -218
q-129 -14 -254 -108q-46 -34 -80 -82q-77 30 -206 30q-128 0 -212 -30q18 61 18 150q0 199 -18 280q38 -16 201 -16t192 16q0 -48 24 -76t64 -29q40 0 64 32t24 83t-28 82t-77 31q-14 0 -29 -3q2 14 2 46q0 102 -46 197q-82 169 -160 192q17 6 17 25q0 54 -11 94
q-38 139 -156 218q-57 38 -107 38q12 70 12 141t-12 119q62 -25 197 -25q250 0 369 5q118 5 160 20q-12 -50 -12 -127t10 -133zM233 1214q26 59 26 184t-27 186q67 -27 232 -27q164 0 218 27q-23 -54 -23 -179t23 -191q-80 23 -220 23t-229 -23zM863 1214q26 59 26 184
t-27 186q67 -27 232 -27q164 0 218 27q-23 -54 -23 -179t23 -191q-80 23 -220 23t-229 -23z" />
    <glyph glyph-name="Amacron" unicode="&#x100;" 
d="M648 746q0 -32 6 -51t24 -30q16 -11 44 -15t73 -5q87 0 117 20t30 66q0 47 -18 98t-42 107t-49 112t-38 101q-15 -45 -40 -101t-49 -112t-40 -107q-18 -51 -18 -83zM20 131q0 81 -10 129q87 3 146 55q141 217 141 365q0 48 -22 55q56 15 131 158t109 354q10 63 10 112
l-4 60q1 5 1 9v12q89 -35 327 -35q237 0 338 35v-13l-5 -64q0 -160 57 -334t101 -229t77 -65q-25 -9 -25 -53q0 -82 43 -182q43 -101 96 -182q97 -58 169 -58q-10 -48 -10 -129t12 -131q-225 25 -431 25t-344 -25q8 45 8 129q0 83 -8 131q104 0 147 37q-4 85 -59 119
t-219 34t-209 -22q-43 -22 -59 -52t-20 -78q48 -38 165 -38q-8 -24 -8 -119t8 -141q-203 38 -495 20q-88 -6 -170 -20q12 50 12 131zM410 1573q26 40 26 143t-27 144q144 -27 457 -27t433 27q-23 -38 -23 -138t23 -149q-178 23 -346 23q-365 0 -543 -23z" />
    <glyph glyph-name="amacron" unicode="&#x101;" horiz-adv-x="1368" 
d="M542 260q55 -44 134 -15q131 49 141 230q-248 -6 -295 -82q-16 -26 -16 -65t36 -68zM101 261q0 70 -25 116q72 24 111 125q10 26 13 48q5 -2 11 -2h13q135 0 406 51q156 30 184 108q8 24 8 51q0 102 -109 102q-79 0 -117 -40t-37 -129q-62 15 -137 15q-192 0 -256 -15
q15 78 15 153t-15 132q145 0 276 64q39 19 60 40q57 -28 105 -32q49 -3 90 -3q193 0 256 35q32 -60 110 -103t140 -43h9q-36 -88 -36 -456v-78q0 -82 35 -106t155 -24q-20 -60 -20 -141t20 -129q-55 25 -196 25q-142 0 -215 -25q-13 88 -76 140q-64 -20 -112 -66t-58 -84
q-23 6 -41 12t-48 15q-29 9 -119 8q-89 0 -212 -35q-61 99 -155 142q-30 14 -58 15q25 44 25 114zM253 1262q26 40 26 143t-27 144q144 -27 457 -27t433 27q-23 -38 -23 -138t23 -149q-178 23 -346 23q-365 0 -543 -23z" />
    <glyph glyph-name="Abreve" unicode="&#x102;" 
d="M648 746q0 -32 6 -51t24 -30q16 -11 44 -15t73 -5q87 0 117 20t30 66q0 47 -18 98t-42 107t-49 112t-38 101q-15 -45 -40 -101t-49 -112t-40 -107q-18 -51 -18 -83zM20 131q0 81 -10 129q87 3 146 55q141 217 141 365q0 48 -22 55q56 15 131 158t109 354q10 63 10 112
l-4 60q1 5 1 9v12q89 -35 327 -35q237 0 338 35v-13l-5 -64q0 -160 57 -334t101 -229t77 -65q-25 -9 -25 -53q0 -82 43 -182q43 -101 96 -182q97 -58 169 -58q-10 -48 -10 -129t12 -131q-225 25 -431 25t-344 -25q8 45 8 129q0 83 -8 131q104 0 147 37q-4 85 -59 119
t-219 34t-209 -22q-43 -22 -59 -52t-20 -78q48 -38 165 -38q-8 -24 -8 -119t8 -141q-203 38 -495 20q-88 -6 -170 -20q12 50 12 131zM1296 1821q0 -87 36 -130q-63 0 -113 -31q-49 -30 -80 -52q-120 -83 -258 -84q-182 0 -306 84q-32 22 -83 52q-51 31 -114 31q36 43 36 130
t-50 167q49 -27 164 -27t163 27q-5 -34 -5 -62q0 -67 42 -119q42 -51 127 -51q86 0 127 51q42 51 42 122q0 24 -5 59q40 -27 159 -27t168 27q-50 -80 -50 -167z" />
    <glyph glyph-name="abreve" unicode="&#x103;" horiz-adv-x="1368" 
d="M542 260q55 -44 134 -15q131 49 141 230q-248 -6 -295 -82q-16 -26 -16 -65t36 -68zM101 261q0 70 -25 116q72 24 111 125q10 26 13 48q5 -2 11 -2h13q135 0 406 51q156 30 184 108q8 24 8 51q0 102 -109 102q-79 0 -117 -40t-37 -129q-62 15 -137 15q-192 0 -256 -15
q15 78 15 153t-15 132q145 0 276 64q39 19 60 40q57 -28 105 -32q49 -3 90 -3q193 0 256 35q32 -60 110 -103t140 -43h9q-36 -88 -36 -456v-78q0 -82 35 -106t155 -24q-20 -60 -20 -141t20 -129q-55 25 -196 25q-142 0 -215 -25q-13 88 -76 140q-64 -20 -112 -66t-58 -84
q-23 6 -41 12t-48 15q-29 9 -119 8q-89 0 -212 -35q-61 99 -155 142q-30 14 -58 15q25 44 25 114zM1108 1491q0 -87 36 -130q-60 0 -124 -51q-28 -22 -58 -48q-114 -98 -240 -98q-172 0 -286 98q-30 26 -59 48q-67 51 -127 51q36 43 36 130t-50 167q47 -27 150 -27
q104 0 147 27q-5 -36 -5 -66t8 -66t26 -65q20 -29 52 -47t83 -18q92 0 131 58q38 58 38 145q0 24 -5 59q31 -27 141 -27q109 0 156 27q-50 -80 -50 -167z" />
    <glyph glyph-name="Aogonek" unicode="&#x104;" 
d="M655 746q1 -32 7 -51t22 -30t46 -15q28 -4 72 -5q88 0 117 20q30 20 30 66q0 47 -18 98t-42 107t-49 112t-38 101q-15 -45 -40 -101l-48 -112t-42 -107t-17 -83zM20 131q0 81 -10 129q94 4 153 55q141 217 141 365q0 48 -22 55q56 15 131 158t109 354q10 63 10 112l-4 60
v9t1 12q89 -35 327 -35q237 0 338 35v-13l-5 -64q0 -160 57 -334t101 -229t77 -65q-25 -9 -25 -53q0 -82 43 -182q43 -101 96 -182q97 -58 162 -58q-10 -48 -10 -129t12 -131q-112 20 -200 20q-168 0 -250 -74t-82 -203q0 -47 27 -71t49 -32t46 -9q55 0 92 47q36 47 36 152
q45 -13 124 -13t149 13q-13 -35 -13 -126t6 -112q-71 0 -129 -46q-57 -46 -85 -96q-63 36 -181 36t-159 -14q-40 -14 -47 -22q-14 38 -99 75q-85 36 -170 36q20 51 20 167t-20 164q220 48 256 254q10 62 10 116t-9 87t-38 55q-59 46 -228 46t-214 -22q-44 -22 -59 -53
q-15 -30 -19 -78q47 -37 158 -37q-8 -24 -8 -119t8 -141q-203 38 -495 20q-88 -6 -170 -20q12 50 12 131z" />
    <glyph glyph-name="aogonek" unicode="&#x105;" horiz-adv-x="1368" 
d="M519 319q0 -87 102 -87q123 0 176 130q19 46 23 113q-301 -8 -301 -156zM101 258q0 67 -25 113q72 24 111 125q10 26 13 48q5 -2 11 -2h13q114 0 406 55q160 31 190 109q10 24 9 52q0 102 -116 102q-79 0 -111 -40t-33 -129q-62 15 -142 15q-197 0 -261 -15q15 78 15 153
t-15 132q131 0 242 64q33 19 54 40q75 -35 241 -35t230 35q31 -59 119 -102q87 -44 151 -44h9q-36 -88 -36 -456v-78q0 -82 35 -106t155 -24q-20 -60 -20 -141t20 -129q-42 7 -108 7q-139 0 -224 -79t-85 -188t72 -109q98 0 98 209q45 -13 124 -13t149 13q-13 -39 -13 -134
t6 -114q-71 0 -129 -46q-57 -46 -85 -96q-45 36 -140 36q-131 0 -167 -36q-14 38 -99 75q-85 36 -170 36q20 42 20 153t-20 158q87 0 196 64t149 142q-18 34 -51 62q-64 -20 -112 -66t-58 -84q-134 35 -221 35t-209 -35q-61 99 -155 142q-30 14 -58 15q25 44 25 111z" />
    <glyph glyph-name="Cacute" unicode="&#x106;" 
d="M778 1405q217 0 305 55q24 -76 79 -119q42 33 58 99q36 -20 166 -20q129 0 197 20q-25 -100 -25 -188q0 -243 25 -377q-90 15 -212 15q-121 0 -218 -15q0 142 -72 238q-72 97 -196 97q-84 0 -127 -24q-162 -92 -162 -449q0 -426 176 -496q52 -21 113 -21q118 0 184 93
q65 93 65 246v18t-1 18q121 -25 245 -25q123 0 205 25q-25 -50 -25 -171t25 -221q-155 -1 -269 -89q-83 -63 -106 -124q-92 35 -306 35q-215 0 -355 -28q-40 -8 -56 -17q-24 91 -148 184q-125 92 -237 104q19 26 35 106t16 210q0 129 -66 151q70 19 70 198q0 178 -55 239h8
q96 0 238 110q82 63 113 109q30 46 32 69q33 -18 115 -36t166 -19zM909 1532q-197 0 -228 -22q43 44 95 310q20 106 21 143q0 38 -3 47q81 -27 265 -27t249 27q-74 -46 -178 -240q-105 -193 -105 -254q1 -2 1 -3v-3q-38 22 -117 22z" />
    <glyph glyph-name="cacute" unicode="&#x107;" horiz-adv-x="1364" 
d="M898 1100q64 -85 242 -85q64 0 112 13q-25 -67 -25 -147q0 -201 25 -251q-48 23 -165 23t-174 -23q-8 106 -47 160t-127 53q-88 0 -140 -68t-52 -237q0 -274 112 -314q34 -12 73 -12q171 0 187 218q59 -22 168 -22t165 22q-20 -60 -20 -128q0 -124 20 -199q-16 2 -45 2
q-67 0 -168 -35t-155 -80q-85 35 -204 35t-230 -35q-12 52 -137 114t-210 62h-11q55 58 55 352q0 176 -30 287q-10 37 -25 55q87 9 190 73t134 147q65 -35 239 -35t243 55zM501 1190q40 44 77 278q15 94 15 135q0 40 -3 52q71 -25 267 -25t253 25q-68 -51 -159 -224
q-92 -173 -92 -234q0 -5 1 -7q-40 20 -182 20t-177 -20z" />
    <glyph glyph-name="Ccircumflex" unicode="&#x108;" 
d="M778 1405q217 0 305 55q24 -76 79 -119q42 33 58 99q36 -20 166 -20q129 0 197 20q-25 -100 -25 -188q0 -243 25 -377q-90 15 -212 15q-121 0 -218 -15q0 142 -72 238q-72 97 -196 97q-84 0 -127 -24q-162 -92 -162 -449q0 -426 176 -496q52 -21 113 -21q118 0 184 93
q65 93 65 246v18t-1 18q121 -25 245 -25q123 0 205 25q-25 -50 -25 -171t25 -221q-155 -1 -269 -89q-83 -63 -106 -124q-92 35 -306 35q-215 0 -355 -28q-40 -8 -56 -17q-24 91 -148 184q-125 92 -237 104q19 26 35 106t16 210q0 129 -66 151q70 19 70 198q0 178 -55 239h8
q96 0 238 110q82 63 113 109q30 46 32 69q33 -18 115 -36t166 -19zM692 1559q-45 16 -161 16q-117 0 -165 -16q56 41 185 214t129 233v4q54 -27 208 -27t210 27l-1 -5q0 -79 216 -331q81 -94 110 -115q-49 16 -161 16t-176 -16q-8 13 -22 36q-58 99 -165 158
q-114 -57 -182 -159q-15 -22 -25 -35z" />
    <glyph glyph-name="ccircumflex" unicode="&#x109;" horiz-adv-x="1364" 
d="M898 1100q64 -85 242 -85q64 0 112 13q-25 -67 -25 -147q0 -201 25 -251q-48 23 -165 23t-174 -23q-8 106 -47 160t-127 53q-88 0 -140 -68t-52 -237q0 -274 112 -314q34 -12 73 -12q171 0 187 218q59 -22 168 -22t165 22q-20 -60 -20 -128q0 -124 20 -199q-16 2 -45 2
q-67 0 -168 -35t-155 -80q-85 35 -204 35t-230 -35q-12 52 -137 114t-210 62h-11q55 58 55 352q0 176 -30 287q-10 37 -25 55q87 9 190 73t134 147q65 -35 239 -35t243 55zM485 1621v4q42 -25 177 -25q136 0 184 25v-4q0 -81 216 -342q72 -87 106 -119q-42 15 -150 15
t-162 -15q-55 109 -182 192q-136 -81 -199 -192q-35 15 -151 15t-151 -15q61 56 137 159q75 102 125 180t50 122z" />
    <glyph glyph-name="Cdotaccent" unicode="&#x10a;" 
d="M778 1405q217 0 305 55q24 -76 79 -119q42 33 58 99q36 -20 166 -20q129 0 197 20q-25 -100 -25 -188q0 -243 25 -377q-90 15 -212 15q-121 0 -218 -15q0 142 -72 238q-72 97 -196 97q-84 0 -127 -24q-162 -92 -162 -449q0 -426 176 -496q52 -21 113 -21q118 0 184 93
q65 93 65 246v18t-1 18q121 -25 245 -25q123 0 205 25q-25 -50 -25 -171t25 -221q-155 -1 -269 -89q-83 -63 -106 -124q-92 35 -306 35q-215 0 -355 -28q-40 -8 -56 -17q-24 91 -148 184q-125 92 -237 104q19 26 35 106t16 210q0 129 -66 151q70 19 70 198q0 178 -55 239h8
q96 0 238 110q82 63 113 109q30 46 32 69q33 -18 115 -36t166 -19zM650 1595q29 53 29 204t-30 211q90 -30 260 -30t230 30q-25 -54 -25 -201t25 -214q-64 20 -170 20q-255 0 -319 -20z" />
    <glyph glyph-name="cdotaccent" unicode="&#x10b;" horiz-adv-x="1364" 
d="M898 1100q64 -85 242 -85q64 0 112 13q-25 -67 -25 -147q0 -201 25 -251q-48 23 -165 23t-174 -23q-8 106 -47 160t-127 53q-88 0 -140 -68t-52 -237q0 -274 112 -314q34 -12 73 -12q171 0 187 218q59 -22 168 -22t165 22q-20 -60 -20 -128q0 -124 20 -199q-16 2 -45 2
q-67 0 -168 -35t-155 -80q-85 35 -204 35t-230 -35q-12 52 -137 114t-210 62h-11q55 58 55 352q0 176 -30 287q-10 37 -25 55q87 9 190 73t134 147q65 -35 239 -35t243 55zM426 1201q29 53 29 198t-30 201q90 -30 260 -30t230 30q-25 -50 -25 -193t25 -206q-64 20 -170 20
q-255 0 -319 -20z" />
    <glyph glyph-name="Ccaron" unicode="&#x10c;" 
d="M778 1405q217 0 305 55q24 -76 79 -119q42 33 58 99q36 -20 166 -20q129 0 197 20q-25 -100 -25 -188q0 -243 25 -377q-90 15 -212 15q-121 0 -218 -15q0 142 -72 238q-72 97 -196 97q-84 0 -127 -24q-162 -92 -162 -449q0 -426 176 -496q52 -21 113 -21q118 0 184 93
q65 93 65 246v18t-1 18q121 -25 245 -25q123 0 205 25q-25 -50 -25 -171t25 -221q-155 -1 -269 -89q-83 -63 -106 -124q-92 35 -306 35q-215 0 -355 -28q-40 -8 -56 -17q-24 91 -148 184q-125 92 -237 104q19 26 35 106t16 210q0 129 -66 151q70 19 70 198q0 178 -55 239h8
q96 0 238 110q82 63 113 109q30 46 32 69q33 -18 115 -36t166 -19zM689 1562q0 82 -242 332q-91 95 -127 116q60 -15 224 -15t225 15q7 -18 17 -47q45 -124 113 -201q59 81 96 201q9 29 15 47q90 -15 245 -15q154 0 214 15q-59 -36 -184 -172q-195 -213 -195 -276v-3
q-55 25 -203 25t-198 -25v3z" />
    <glyph glyph-name="ccaron" unicode="&#x10d;" horiz-adv-x="1364" 
d="M898 1100q64 -85 242 -85q64 0 112 13q-25 -67 -25 -147q0 -201 25 -251q-48 23 -165 23t-174 -23q-8 106 -47 160t-127 53q-88 0 -140 -68t-52 -237q0 -274 112 -314q34 -12 73 -12q171 0 187 218q59 -22 168 -22t165 22q-20 -60 -20 -128q0 -124 20 -199q-16 2 -45 2
q-67 0 -168 -35t-155 -80q-85 35 -204 35t-230 -35q-12 52 -137 114t-210 62h-11q55 58 55 352q0 176 -30 287q-10 37 -25 55q87 9 190 73t134 147q65 -35 239 -35t243 55zM662 1185q-136 0 -177 -25v4q0 86 -242 342q-88 94 -127 119q57 -15 213 -15t216 15l17 -51
q40 -121 113 -206q63 89 111 257q90 -15 236 -15t203 15q-66 -44 -223 -220q-156 -176 -156 -242v-3q-48 25 -184 25z" />
    <glyph glyph-name="Dcaron" unicode="&#x10e;" horiz-adv-x="1703" 
d="M1179 759q0 451 -295 451q-122 0 -198 -29q-11 -89 -11 -253q0 -417 12 -686q85 -22 169 -22t140 30q184 99 183 509zM115 125q0 63 -15 135q93 0 126 24q32 24 44 52t12 71q0 308 -69 328q38 13 49 57q20 76 20 180t-12 132t-44 52q-33 24 -126 24q15 72 15 135t-15 125
q66 -26 478 -34q50 -1 84 -1q476 0 560 35q2 -38 77 -104q77 -66 187 -100q34 -10 58 -12q-10 -60 -10 -125q0 -129 38 -240q38 -110 90 -124q-54 -12 -91 -119t-37 -217q0 -111 10 -183q-79 -3 -170 -60q-141 -88 -152 -156q-86 25 -485 25q-556 0 -637 -25q15 62 15 125z
M844 1584q-148 0 -198 -25v3q0 82 -242 332q-91 95 -127 116q61 -15 225 -15t224 15q8 -18 18 -47q45 -124 112 -201q59 81 96 201q9 29 15 47q90 -15 244 -15q155 0 215 15q-59 -36 -184 -172q-195 -213 -195 -276v-3q-55 25 -203 25z" />
    <glyph glyph-name="dcaron" unicode="&#x10f;" horiz-adv-x="2039" 
d="M647 318q46 -68 154 -68q156 0 182 176q8 54 8 116q0 139 -41 213q-41 75 -149 75q-109 0 -155 -66q-45 -66 -45 -222t46 -224zM703 25q-148 0 -218 -35q-37 75 -137 146t-206 79q12 26 28 106q16 79 15 221q1 142 -15 222t-28 106q106 8 207 72t136 138q45 -35 159 -35
q167 0 222 35q45 -93 139 -128v258q-3 110 -117 126q-33 4 -68 4h-32q20 50 20 132t-20 128q76 -12 201 -12q367 0 461 37q-74 -137 -74 -422v-200q0 -192 36 -243q14 -20 35 -27q-53 -15 -69 -131q-4 -34 -4 -67v-122q0 -81 34 -117t90 -36q-10 -44 -10 -134t10 -126
q-70 25 -174 25t-192 -25q-6 86 -79 163q-71 -47 -111 -131q-12 -24 -16 -42q-75 35 -223 35zM1718 1093q0 99 -25 128q-82 -8 -131 -21q29 65 29 213q0 147 -30 217q81 -30 220 -30q140 0 200 30q-30 -56 -30 -212t30 -228q-97 -30 -124 -178q-7 -39 -11 -72q-24 12 -92 12
t-86 -12q50 54 50 153z" />
    <glyph glyph-name="Dcroat" unicode="&#x110;" horiz-adv-x="1644" 
d="M794 648q-121 0 -121 -72q0 -168 13 -337q53 -19 124 -19q145 0 229 132q83 132 83 407q0 451 -297 451q-88 0 -140 -25q-13 -91 -13 -194q0 -51 29 -75t85 -24t94 7q39 7 66 11q-9 -33 -9 -126q0 -92 9 -149q-122 13 -152 13zM115 125q0 63 -15 135q93 0 126 24
q32 24 44 52t12 71v169q0 36 -18 58t-54 22t-55 -2q-20 -2 -45 -6q9 52 9 135t-9 117q48 -6 90 -6t62 17t20 57v65q0 119 -103 140q-34 7 -79 7q15 72 15 135t-15 125q66 -26 478 -34q50 -1 84 -1q417 0 501 35q6 -60 124 -136q118 -77 198 -80q-10 -60 -10 -125
q0 -129 38 -240q38 -110 90 -124q-54 -12 -91 -119t-37 -217q0 -111 10 -183q-79 -3 -170 -60q-141 -88 -152 -156q-86 25 -455 25q-526 0 -608 -25q15 62 15 125z" />
    <glyph glyph-name="dcroat" unicode="&#x111;" horiz-adv-x="1556" 
d="M647 318q46 -68 154 -68q156 0 182 176q8 54 8 116q0 139 -41 213q-41 75 -149 75q-109 0 -155 -66q-45 -66 -45 -222t46 -224zM876 1305q133 0 133 53t-107 53q-50 0 -114 -11q20 40 20 101t-20 99q76 -12 201 -12q367 0 461 37q-69 -135 -69 -274q0 -58 56 -58
q30 0 81 17q-15 -41 -15 -136t15 -132q-52 15 -79 15q-63 0 -63 -73q0 -223 71 -251q-53 -15 -69 -131q-4 -34 -4 -67v-122q0 -81 34 -117t90 -36q-10 -44 -10 -134t10 -126q-70 25 -174 25t-192 -25q-6 86 -79 163q-71 -47 -111 -131q-12 -24 -16 -42q-75 35 -223 35
t-218 -35q-37 75 -137 146t-206 79q12 26 28 106q16 79 15 221q1 142 -15 222t-28 106q106 8 207 72t136 138q45 -35 159 -35q167 0 222 35q45 -93 139 -128v103q0 87 -138 87q-47 0 -81 -10q15 26 15 64q0 94 -15 124q47 -15 90 -15z" />
    <glyph glyph-name="Emacron" unicode="&#x112;" horiz-adv-x="1533" 
d="M115 125q0 63 -15 135q93 0 126 24q32 24 44 52t12 71q0 308 -69 328q39 13 50 54q19 71 19 179t-12 136t-44 52q-33 24 -126 24q15 72 15 135t-15 125q102 -26 596 -34q60 -1 96 -1t92 1q56 2 120 4q364 14 430 30q-25 -131 -25 -208q0 -187 25 -287q-63 25 -181 25
t-193 -25q16 47 16 105q0 98 -62 135q-42 25 -93 25q-161 0 -228 -49q-10 -58 -10 -151q0 -94 9 -139q50 -22 156 -22t163 30q-15 -41 -15 -104q0 -150 15 -185q-59 33 -168 33q-108 0 -151 -19q-9 -54 -9 -167t13 -175q78 -42 200 -42q123 0 164 92q16 36 16 104
q0 67 -16 119q74 -25 140 -25q171 0 234 25q-25 -108 -25 -210q0 -188 25 -325q-124 25 -572 25q-636 0 -762 -25q15 62 15 125zM312 1573q26 40 26 143t-27 144q144 -27 457 -27t433 27q-23 -38 -23 -138t23 -149q-178 23 -346 23q-365 0 -543 -23z" />
    <glyph glyph-name="emacron" unicode="&#x113;" horiz-adv-x="1366" 
d="M774 678q79 0 95 12q17 12 21 28t3 52q0 37 -41 67q-42 30 -112 30q-127 0 -176 -41q-50 -41 -56 -148h266zM165 518q0 172 -20 248t-35 94q86 0 196 77t128 143q101 -35 282 -35q180 0 246 35q31 -63 135 -108t177 -47q-35 -74 -35 -230t20 -206q-112 9 -367 9l-234 -1
q-132 0 -146 -71q-4 -22 -5 -54q0 -71 70 -119t178 -48q107 0 120 95q4 28 4 60q45 -15 130 -15q200 0 252 15q-12 -66 -12 -150t15 -127h-18q-125 0 -242 -57q-35 -17 -60 -36q-54 35 -187 35q-196 0 -289 -35q-18 53 -135 115t-207 62q-5 -1 -9 -1h-8q56 67 56 352z
M259 1262q26 40 26 143t-27 144q144 -27 457 -27t433 27q-23 -38 -23 -138t23 -149q-178 23 -346 23q-365 0 -543 -23z" />
    <glyph glyph-name="Ebreve" unicode="&#x114;" horiz-adv-x="1533" 
d="M115 125q0 63 -15 135q93 0 126 24q32 24 44 52t12 71q0 308 -69 328q39 13 50 54q19 71 19 179t-12 136t-44 52q-33 24 -126 24q15 72 15 135t-15 125q102 -26 596 -34q60 -1 96 -1t92 1q56 2 120 4q364 14 430 30q-25 -131 -25 -208q0 -187 25 -287q-63 25 -181 25
t-193 -25q16 47 16 105q0 98 -62 135q-42 25 -93 25q-161 0 -228 -49q-10 -58 -10 -151q0 -94 9 -139q50 -22 156 -22t163 30q-15 -41 -15 -104q0 -150 15 -185q-59 33 -168 33q-108 0 -151 -19q-9 -54 -9 -167t13 -175q78 -42 200 -42q123 0 164 92q16 36 16 104
q0 67 -16 119q74 -25 140 -25q171 0 234 25q-25 -108 -25 -210q0 -188 25 -325q-124 25 -572 25q-636 0 -762 -25q15 62 15 125zM1198 1821q0 -87 36 -130q-63 0 -113 -31q-49 -30 -80 -52q-120 -84 -258 -84q-182 0 -306 84q-32 22 -83 52q-51 31 -114 31q36 43 36 130
t-50 167q49 -27 164 -27t163 27q-5 -34 -5 -62q0 -67 42 -119q42 -51 127 -51q86 0 127 51q42 51 42 122q0 24 -5 59q41 -27 159 -27q119 0 168 27q-50 -80 -50 -167z" />
    <glyph glyph-name="ebreve" unicode="&#x115;" horiz-adv-x="1366" 
d="M774 678q79 0 95 12q17 12 21 28t3 52q0 37 -41 67q-42 30 -112 30q-127 0 -176 -41q-50 -41 -56 -148h266zM165 518q0 172 -20 248t-35 94q86 0 196 77t128 143q101 -35 282 -35q180 0 246 35q31 -63 135 -108t177 -47q-35 -74 -35 -230t20 -206q-112 9 -367 9l-234 -1
q-132 0 -146 -71q-4 -22 -5 -54q0 -71 70 -119t178 -48q107 0 120 95q4 28 4 60q45 -15 130 -15q200 0 252 15q-12 -66 -12 -150t15 -127h-18q-125 0 -242 -57q-35 -17 -60 -36q-54 35 -187 35q-196 0 -289 -35q-18 53 -135 115t-207 62q-5 -1 -9 -1h-8q56 67 56 352z
M1114 1491q0 -87 36 -130q-60 0 -124 -51q-28 -22 -58 -48q-114 -98 -240 -98q-172 0 -286 98q-30 26 -59 48q-67 51 -127 51q36 43 36 130t-50 167q47 -27 150 -27q104 0 147 27q-5 -36 -5 -66t8 -66t26 -65q20 -29 52 -47t83 -18q92 0 131 58q38 58 38 145q0 24 -5 59
q32 -27 141 -27t156 27q-50 -80 -50 -167z" />
    <glyph glyph-name="Edotaccent" unicode="&#x116;" horiz-adv-x="1533" 
d="M115 125q0 63 -15 135q93 0 126 24q32 24 44 52t12 71q0 308 -69 328q39 13 50 54q19 71 19 179t-12 136t-44 52q-33 24 -126 24q15 72 15 135t-15 125q102 -26 596 -34q60 -1 96 -1t92 1q56 2 120 4q364 14 430 30q-25 -131 -25 -208q0 -187 25 -287q-63 25 -181 25
t-193 -25q16 47 16 105q0 98 -62 135q-42 25 -93 25q-161 0 -228 -49q-10 -58 -10 -151q0 -94 9 -139q50 -22 156 -22t163 30q-15 -41 -15 -104q0 -150 15 -185q-59 33 -168 33q-108 0 -151 -19q-9 -54 -9 -167t13 -175q78 -42 200 -42q123 0 164 92q16 36 16 104
q0 67 -16 119q74 -25 140 -25q171 0 234 25q-25 -108 -25 -210q0 -188 25 -325q-124 25 -572 25q-636 0 -762 -25q15 62 15 125zM513 1595q29 53 29 204t-30 211q90 -30 260 -30t230 30q-25 -54 -25 -201t25 -214q-64 20 -170 20q-255 0 -319 -20z" />
    <glyph glyph-name="edotaccent" unicode="&#x117;" horiz-adv-x="1366" 
d="M774 678q79 0 95 12q17 12 21 28t3 52q0 37 -41 67q-42 30 -112 30q-127 0 -176 -41q-50 -41 -56 -148h266zM165 518q0 172 -20 248t-35 94q86 0 196 77t128 143q101 -35 282 -35q180 0 246 35q31 -63 135 -108t177 -47q-35 -74 -35 -230t20 -206q-112 9 -367 9l-234 -1
q-132 0 -146 -71q-4 -22 -5 -54q0 -71 70 -119t178 -48q107 0 120 95q4 28 4 60q45 -15 130 -15q200 0 252 15q-12 -66 -12 -150t15 -127h-18q-125 0 -242 -57q-35 -17 -60 -36q-54 35 -187 35q-196 0 -289 -35q-18 53 -135 115t-207 62q-5 -1 -9 -1h-8q56 67 56 352z
M459 1201q29 53 29 198t-30 201q90 -30 260 -30t230 30q-25 -50 -25 -193t25 -206q-64 20 -170 20q-255 0 -319 -20z" />
    <glyph glyph-name="Eogonek" unicode="&#x118;" horiz-adv-x="1533" 
d="M115 125q0 63 -15 135q93 0 126 24q32 24 44 52t12 71q0 308 -69 328q39 13 50 54q19 71 19 179t-12 136t-44 52q-33 24 -126 24q15 72 15 135t-15 125q102 -26 596 -34q60 -1 96 -1t92 1q56 2 120 4q365 14 431 30q-25 -131 -25 -208q0 -187 25 -287q-62 25 -181 25
t-194 -25q16 47 16 105q0 98 -62 135q-42 25 -93 25q-161 0 -228 -49q-10 -58 -10 -151q0 -94 9 -139q50 -22 156 -22t163 30q-15 -41 -15 -104q0 -150 15 -185q-59 33 -168 33q-108 0 -151 -19q-9 -54 -9 -167t13 -175q78 -42 200 -42q123 0 164 92q16 36 16 104
q0 67 -16 119q74 -25 140 -25q172 0 235 25q-25 -108 -25 -253t25 -282q-37 2 -103 2q-173 0 -298 -65t-125 -194q0 -82 51 -112q17 -10 41 -10q53 0 91 51q37 51 37 158q45 -13 124 -13t149 13q-13 -35 -13 -126t6 -112q-71 0 -129 -46q-57 -46 -85 -96q-63 36 -174 36
q-147 0 -183 -36q-14 38 -99 75q-85 36 -170 36q20 44 20 162t-20 169q121 15 228 87q33 22 58 46h-49q-378 -1 -525 -11t-167 -14q15 62 15 125z" />
    <glyph glyph-name="eogonek" unicode="&#x119;" horiz-adv-x="1364" 
d="M771 678q80 0 98 12q17 12 21 28t4 52t-40 66t-109 31q-128 0 -180 -42t-57 -147h263zM167 518q0 172 -20 248t-35 94q85 0 180 77t114 143q105 -35 305 -35q201 0 271 35q31 -63 127 -108t166 -47q-35 -74 -35 -231t21 -209q-91 13 -349 13h-249q-135 0 -151 -72
q-5 -22 -5 -54q0 -70 68 -119q68 -48 175 -48q106 0 124 89q6 29 6 66q45 -15 139 -15q183 0 243 17q-12 -66 -12 -151t15 -128q-211 0 -323 -105q-113 -105 -113 -245q0 -102 72 -102q98 0 98 209q45 -13 124 -13t149 13q-13 -39 -13 -134t6 -114q-71 0 -129 -46
q-57 -46 -85 -96q-45 36 -140 36q-131 0 -167 -36q-14 38 -99 75q-85 36 -170 36q20 42 20 153t-20 158q178 0 291 152q-11 1 -23 1h-26q-109 -1 -185 -15t-92 -20q-19 55 -123 116t-189 61q-5 -1 -9 -1h-8q56 67 56 352z" />
    <glyph glyph-name="Ecaron" unicode="&#x11a;" horiz-adv-x="1533" 
d="M115 125q0 63 -15 135q93 0 126 24q32 24 44 52t12 71q0 308 -69 328q39 13 50 54q19 71 19 179t-12 136t-44 52q-33 24 -126 24q15 72 15 135t-15 125q102 -26 596 -34q60 -1 96 -1t92 1q56 2 120 4q364 14 430 30q-25 -131 -25 -208q0 -187 25 -287q-63 25 -181 25
t-193 -25q16 47 16 105q0 98 -62 135q-42 25 -93 25q-161 0 -228 -49q-10 -58 -10 -151q0 -94 9 -139q50 -22 156 -22t163 30q-15 -41 -15 -104q0 -150 15 -185q-59 33 -168 33q-108 0 -151 -19q-9 -54 -9 -167t13 -175q78 -42 200 -42q123 0 164 92q16 36 16 104
q0 67 -16 119q74 -25 140 -25q171 0 234 25q-25 -108 -25 -210q0 -188 25 -325q-124 25 -572 25q-636 0 -762 -25q15 62 15 125zM552 1562q0 82 -242 332q-91 95 -127 116q61 -15 225 -15t224 15q8 -18 18 -47q45 -124 112 -201q59 81 96 201q9 29 15 47q91 -15 245 -15
t214 15q-59 -36 -184 -172q-195 -213 -195 -276v-3q-55 25 -203 25t-198 -25v3z" />
    <glyph glyph-name="ecaron" unicode="&#x11b;" horiz-adv-x="1366" 
d="M774 678q79 0 95 12q17 12 21 28t3 52q0 37 -41 67q-42 30 -112 30q-127 0 -176 -41q-50 -41 -56 -148h266zM165 518q0 172 -20 248t-35 94q86 0 196 77t128 143q101 -35 282 -35q180 0 246 35q31 -63 135 -108t177 -47q-35 -74 -35 -230t20 -206q-112 9 -367 9l-234 -1
q-132 0 -146 -71q-4 -22 -5 -54q0 -71 70 -119t178 -48q107 0 120 95q4 28 4 60q45 -15 130 -15q200 0 252 15q-12 -66 -12 -150t15 -127h-18q-125 0 -242 -57q-35 -17 -60 -36q-54 35 -187 35q-196 0 -289 -35q-18 53 -135 115t-207 62q-5 -1 -9 -1h-8q56 67 56 352z
M695 1185q-136 0 -177 -25v4q0 86 -242 342q-88 94 -127 119q57 -15 213 -15t216 15l17 -51q40 -121 113 -206q63 89 111 257q90 -15 236 -15t203 15q-66 -44 -223 -220q-156 -176 -156 -242v-3q-48 25 -184 25z" />
    <glyph glyph-name="Gcircumflex" unicode="&#x11c;" horiz-adv-x="1699" 
d="M845 25q-258 0 -340 -45q-23 91 -158 183q-134 92 -247 105q19 26 35 106t16 210q0 129 -66 151q70 19 70 198q0 178 -55 239h8q98 0 249 110q87 63 119 109q33 46 35 69q98 -55 304 -55q104 -1 167 21q62 22 81 34q23 -74 86 -113q36 33 51 93q36 -20 169 -20
q132 0 204 20q-25 -100 -25 -188q0 -243 25 -377q-90 15 -220 15t-220 -15q-1 232 -129 308q-46 27 -94 27q-50 0 -85 -6t-67 -24q-148 -87 -148 -445q0 -177 25 -269t67 -144q73 -92 213 -92q197 0 197 137q0 46 -21 59q-36 24 -121 24q15 52 15 119q0 66 -15 126
q96 -25 194 -25q334 0 446 25q-66 -167 -66 -463q0 -168 19 -232q-81 0 -215 82q-38 23 -64 46q-51 -2 -117 -56t-66 -92q-53 28 -142 37q-88 8 -114 8zM686 1559q-45 16 -161 16q-117 0 -165 -16q56 41 185 214t129 233v4q54 -27 208 -27t210 27l-1 -5q0 -79 216 -331
q81 -94 110 -115q-49 16 -161 16t-176 -16q-8 13 -22 36q-58 99 -165 158q-114 -57 -182 -159q-15 -22 -25 -35z" />
    <glyph glyph-name="gcircumflex" unicode="&#x11d;" horiz-adv-x="1533" 
d="M580 -182q0 -75 52 -116t156 -41t156 41t52 116t-52 116t-156 41t-156 -41t-52 -116zM744 859q-182 0 -182 -197t182 -197t182 197t-182 197zM808 145q290 0 352 50q23 -66 125 -133q102 -66 178 -66q-42 -38 -42 -163q0 -173 43 -207q-89 0 -185 -56t-123 -120
q-89 38 -317 38t-307 -14t-94 -24q-12 54 -122 115t-186 61q32 23 43 132q3 30 3 56q0 57 -12 116t-33 76q230 26 292 138q15 28 15 62t-16 64t-42 54q-48 46 -122 74q-75 28 -127 28q45 45 45 215t-45 215q87 17 158 66q128 89 145 158q86 -35 333 -35q91 0 149 5
q40 42 51 119q-29 -4 -45 -9q-55 109 -182 192q-136 -81 -199 -192q-35 15 -151 15t-151 -15q61 56 137 159q75 102 125 180t50 122v4q42 -25 177 -25q136 0 184 25v-4q0 -55 105 -199q79 -12 146 -12q207 0 278 25q-30 -55 -30 -158q1 -103 9 -139t11 -53q-75 15 -151 15
q-160 0 -172 -110q74 -84 190 -120q35 -11 68 -14q-45 -49 -45 -216t47 -214q-14 3 -50 3q-81 -1 -170 -67q-88 -66 -92 -127q-47 51 -262 51q-118 0 -118 -67q0 -39 24 -52q42 -22 108 -22z" />
    <glyph glyph-name="Gbreve" unicode="&#x11e;" horiz-adv-x="1699" 
d="M845 25q-258 0 -340 -45q-23 91 -158 183q-134 92 -247 105q19 26 35 106t16 210q0 129 -66 151q70 19 70 198q0 178 -55 239h8q98 0 249 110q87 63 119 109q33 46 35 69q98 -55 304 -55q104 -1 167 21q62 22 81 34q23 -74 86 -113q36 33 51 93q36 -20 169 -20
q132 0 204 20q-25 -100 -25 -188q0 -243 25 -377q-90 15 -220 15t-220 -15q-1 232 -129 308q-46 27 -94 27q-50 0 -85 -6t-67 -24q-148 -87 -148 -445q0 -177 25 -269t67 -144q73 -92 213 -92q197 0 197 137q0 46 -21 59q-36 24 -121 24q15 52 15 119q0 66 -15 126
q96 -25 194 -25q334 0 446 25q-66 -167 -66 -463q0 -168 19 -232q-81 0 -215 82q-38 23 -64 46q-51 -2 -117 -56t-66 -92q-53 28 -142 37q-88 8 -114 8zM1329 1821q0 -87 36 -130q-63 0 -113 -31q-49 -30 -80 -52q-120 -84 -258 -84q-182 0 -306 84q-32 22 -83 52
q-51 31 -114 31q36 43 36 130t-50 167q49 -27 164 -27t163 27q-5 -34 -5 -62q0 -67 42 -119q42 -51 127 -51q86 0 127 51q42 51 42 122q0 24 -5 59q40 -27 159 -27t168 27q-50 -80 -50 -167z" />
    <glyph glyph-name="gbreve" unicode="&#x11f;" horiz-adv-x="1533" 
d="M1114 1058q90 0 90 147q0 73 -35 155q-52 -4 -95 -38q-42 -34 -72 -60q-114 -98 -241 -98q-173 0 -287 98q-30 26 -58 48q-67 51 -127 51q36 43 36 130t-50 167q47 -27 150 -27q104 0 147 27q-5 -36 -5 -66q-1 -30 7 -66t27 -65t51 -47t84 -18q92 0 131 58q38 58 38 145
q0 24 -5 59q31 -27 141 -27q109 0 156 27q-50 -80 -50 -167q0 -39 8 -74q83 -17 172 -17q215 0 273 25q-30 -70 -30 -190t8 -157q8 -36 12 -53q-74 15 -164 15t-125 -28t-35 -71q0 -60 79 -85q-45 -49 -45 -216t47 -214q-14 3 -50 3q-81 -1 -170 -67q-88 -66 -92 -127
q-47 51 -252 51q-118 0 -118 -67q1 -39 25 -52q42 -22 107 -22q280 0 342 50q23 -66 125 -133q102 -66 178 -66q-42 -38 -42 -163q0 -173 43 -207q-89 0 -185 -56t-123 -120q-89 38 -310 38q-324 0 -388 -38q-12 54 -122 115t-186 61q32 23 43 132q3 30 3 56q0 57 -12 116
t-33 76q230 26 292 138q15 28 15 62t-16 64q-15 30 -41 54q-48 46 -123 74t-127 28q45 45 45 215t-45 215q87 17 158 66q128 89 145 158q86 -35 313 -35t293 35q43 -22 75 -22zM777 -25q-198 0 -198 -157t198 -157t198 157t-198 157zM561 662q1 -57 13 -95q12 -39 34 -61
t55 -32q32 -10 70 -9q38 -1 70 9q33 10 55 32t34 61q12 38 13 95q-1 57 -13 95q-12 39 -34 61t-55 32q-32 10 -70 9q-38 1 -70 -9q-33 -10 -55 -32t-34 -61q-12 -38 -13 -95z" />
    <glyph glyph-name="Gdotaccent" unicode="&#x120;" horiz-adv-x="1699" 
d="M845 25q-258 0 -340 -45q-23 91 -158 183q-134 92 -247 105q19 26 35 106t16 210q0 129 -66 151q70 19 70 198q0 178 -55 239h8q98 0 249 110q87 63 119 109q33 46 35 69q98 -55 304 -55q104 -1 167 21q62 22 81 34q23 -74 86 -113q36 33 51 93q36 -20 169 -20
q132 0 204 20q-25 -100 -25 -188q0 -243 25 -377q-90 15 -220 15t-220 -15q-1 232 -129 308q-46 27 -94 27q-50 0 -85 -6t-67 -24q-148 -87 -148 -445q0 -177 25 -269t67 -144q73 -92 213 -92q197 0 197 137q0 46 -21 59q-36 24 -121 24q15 52 15 119q0 66 -15 126
q96 -25 194 -25q334 0 446 25q-66 -167 -66 -463q0 -168 19 -232q-81 0 -215 82q-38 23 -64 46q-51 -2 -117 -56t-66 -92q-53 28 -142 37q-88 8 -114 8zM644 1595q29 53 29 204t-30 211q90 -30 260 -30t230 30q-25 -54 -25 -201t25 -214q-64 20 -170 20q-255 0 -319 -20z
" />
    <glyph glyph-name="gdotaccent" unicode="&#x121;" horiz-adv-x="1533" 
d="M492 1201q29 53 29 198t-30 201q90 -30 260 -30t230 30q-25 -50 -25 -193t25 -206q-64 20 -170 20q-255 0 -319 -20zM777 -25q-198 0 -198 -157t198 -157t198 157t-198 157zM561 662q1 -57 13 -95q12 -39 34 -61t55 -32q32 -10 70 -9q38 -1 70 9q33 10 55 32t34 61
q12 38 13 95q-1 57 -13 95q-12 39 -34 61t-55 32q-32 10 -70 9q-38 1 -70 -9q-33 -10 -55 -32t-34 -61q-12 -38 -13 -95zM1442 -4q-42 -38 -42 -163q0 -173 43 -207q-89 0 -185 -56t-123 -120q-89 38 -310 38q-324 0 -388 -38q-12 54 -122 115t-186 61q32 23 43 132
q3 30 3 56q0 57 -12 116t-33 76q230 26 292 138q15 28 15 62t-16 64q-15 30 -41 54q-48 46 -123 74t-127 28q45 45 45 215t-45 215q87 17 158 66q128 89 145 158q86 -35 313 -35t293 35q43 -22 82 -22t61 37t22 81q0 78 -21 146t-53 103q50 -25 196 -25q216 0 274 25
q-30 -70 -30 -190t8 -157q8 -36 12 -53q-74 15 -164 15t-125 -28t-35 -71q0 -60 79 -85q-45 -49 -45 -216t47 -214q-14 3 -50 3q-81 -1 -170 -67q-88 -66 -92 -127q-47 51 -252 51q-118 0 -118 -67q1 -39 25 -52q42 -22 107 -22q280 0 342 50q23 -66 125 -133
q101 -66 178 -66z" />
    <glyph glyph-name="Gcommaaccent" unicode="&#x122;" horiz-adv-x="1699" 
d="M845 25q-258 0 -340 -45q-23 91 -158 183q-134 92 -247 105q19 26 35 106t16 210q0 129 -66 151q70 19 70 198q0 178 -55 239h8q98 0 249 110q87 63 119 109q33 46 35 69q98 -55 304 -55q104 -1 167 21q62 22 81 34q23 -74 86 -113q36 33 51 93q36 -20 169 -20
q132 0 204 20q-25 -100 -25 -188q0 -243 25 -377q-90 15 -220 15t-220 -15q-1 232 -129 308q-46 27 -94 27q-50 0 -85 -6t-67 -24q-148 -87 -148 -445q0 -177 25 -269t67 -144q73 -92 213 -92q197 0 197 137q0 46 -21 59q-36 24 -121 24q15 52 15 119q0 66 -15 126
q96 -25 194 -25q334 0 446 25q-66 -167 -66 -463q0 -168 19 -232q-81 0 -215 82q-38 23 -64 46q-51 -2 -117 -56t-66 -92q-53 28 -142 37q-88 8 -114 8zM587 -112q90 -30 285 -30t255 30q-30 -34 -30 -138t30 -152q-43 -9 -79 -58t-36 -90q-18 14 -108 14h-16q-80 0 -94 -14
q20 36 20 118q0 36 -23 53q-165 -10 -203 -23q29 41 29 143t-30 147z" />
    <glyph glyph-name="gcommaaccent" unicode="&#x123;" horiz-adv-x="1533" 
d="M580 -182q0 -75 52 -116t156 -41t156 41t52 116t-52 116t-156 41t-156 -41t-52 -116zM744 859q-182 0 -182 -197t182 -197t182 197t-182 197zM808 145q290 0 352 50q23 -66 125 -133q102 -66 178 -66q-42 -38 -42 -163q0 -173 43 -207q-89 0 -185 -56t-123 -120
q-89 38 -317 38t-307 -14t-94 -24q-12 54 -122 115t-186 61q32 23 43 132q3 30 3 56q0 57 -12 116t-33 76q230 26 292 138q15 28 15 62t-16 64t-42 54q-48 46 -122 74q-75 28 -127 28q45 45 45 215t-45 215q87 17 158 66q128 89 145 158q86 -35 333 -35q91 0 149 5
q59 62 59 236q0 76 -14 149q45 -25 227 -25t253 25q-30 -55 -30 -158q1 -103 9 -139t11 -53q-75 15 -151 15q-160 0 -172 -110q74 -84 190 -120q35 -11 68 -14q-45 -49 -45 -216t47 -214q-14 3 -50 3q-81 -1 -170 -67q-88 -66 -92 -127q-47 51 -262 51q-118 0 -118 -67
q0 -39 24 -52q42 -22 108 -22zM346 1543q0 104 -30 152q43 9 79 58t36 90q19 -14 109 -14h15q80 0 94 14q-20 -36 -20 -118q0 -36 23 -53q165 10 203 23q-29 -41 -29 -143t30 -147q-90 30 -285 30t-255 -30q30 34 30 138z" />
    <glyph glyph-name="Hcircumflex" unicode="&#x124;" horiz-adv-x="1879" 
d="M82 125q0 63 -15 135q100 0 132 24q31 24 41 52t9 71q0 308 -69 328q38 13 50 60q19 80 19 256q0 108 -95 124q-30 5 -67 5h-20q15 72 15 135t-15 125q95 -35 324 -35t325 14t116 21q-15 -62 -15 -125t15 -135h-19q-78 0 -107 -20q-56 -37 -56 -107q0 -139 9 -202
q109 -21 278 -21t283 22q9 63 9 151q1 88 -11 113q-12 24 -40 44t-111 20h-20q15 72 15 135t-15 125q95 -35 324 -35t325 14t116 21q-15 -62 -15 -125t15 -135h-19q-78 0 -107 -20q-56 -37 -56 -119q0 -166 15 -230t54 -76q-69 -20 -69 -328q0 -119 103 -140q34 -7 79 -7
q-15 -72 -15 -135t15 -125q-121 25 -385 25t-380 -25q15 62 15 125t-15 135q100 0 132 24q31 24 41 52t9 109q0 81 -9 155q-119 25 -279 25t-282 -23q-9 -74 -9 -156t12 -110t44 -52q33 -24 126 -24q-15 -72 -15 -135t15 -125q-121 25 -385 25t-380 -25q15 62 15 125z
M737 1559q-45 16 -161 16q-117 0 -165 -16q56 41 185 214t129 233v4q54 -27 208 -27t210 27l-1 -5q0 -79 216 -331q81 -94 110 -115q-48 16 -160 16q-113 0 -177 -16q-9 13 -23 36q-58 99 -164 158q-114 -57 -182 -159q-15 -22 -25 -35z" />
    <glyph glyph-name="hcircumflex" unicode="&#x125;" horiz-adv-x="1704" 
d="M169 117q0 71 -14 143q111 0 142 18t39 40q8 23 9 59v168q0 113 -39 167q-13 18 -30 23q69 23 69 178v297q-3 112 -81 126q-26 4 -58 4h-31q20 49 20 127q-38 3 -119 3t-116 -11q61 42 137 119q75 77 125 135t50 92v3q42 -19 177 -19q136 0 184 19v-3q0 -48 138 -183
q5 2 9 3l-4 -8q120 -117 179 -158q-42 11 -120 11t-102 -1q-16 -95 -16 -266v-321q108 44 145 198q57 -35 241 -35t230 35q33 -85 81 -144t129 -83q-65 -81 -65 -251v-225q0 -72 37 -94q37 -23 134 -23q-16 -64 -16 -144t16 -116q-303 48 -605 10q-36 -4 -59 -10
q13 52 13 136t-13 124q71 0 95 21t24 96v208q0 133 -75 177q-26 16 -57 16q-80 0 -154 -38q-100 -50 -100 -140v-223q0 -65 40 -91t112 -26q-13 -46 -13 -128t13 -132q-160 25 -288 25q-319 0 -427 -25q14 46 14 117zM429 1588q30 0 60 1q-13 7 -28 14q-17 -7 -32 -15z" />
    <glyph glyph-name="Hbar" unicode="&#x126;" horiz-adv-x="1879" 
d="M641 736q0 -28 7 -46t48 -34q41 -14 196 -14q154 0 214 4t90 14t36 30q7 18 7 46q1 28 -5 45t-34 27t-90 12q-60 4 -170 4t-170 -4t-90 -12q-28 -10 -34 -27t-5 -45zM82 125q0 63 -15 135q100 0 132 24q31 24 41 52t9 92q0 267 -69 287q24 9 38 31t13 44q1 22 -13 38
t-34 17q-119 0 -167 -8q9 63 9 119t-9 103q24 -15 98 -15h94t40 19q-5 96 -98 112q-29 5 -64 5h-20q15 72 15 135t-15 125q95 -35 324 -35t325 14t116 21q-15 -62 -15 -123q0 -60 16 -137h-35q-105 0 -131 -12q-25 -12 -31 -25t-5 -35t9 -38t40 -25t92 -13q62 -4 168 -3
q106 -1 168 3t92 13q32 9 40 25t9 38q0 42 -31 57t-137 15h-34q15 72 15 135t-15 125q95 -35 324 -35t325 14t116 21q-15 -62 -15 -125t15 -135h-19q-113 0 -147 -60q-14 -24 -16 -59q29 -19 52 -18q24 1 40 1q124 0 147 15q-9 -47 -9 -109t9 -113q-48 8 -160 8
q-61 0 -61 -46q0 -39 33 -72q9 -9 18 -12q-36 -11 -48 -60q-21 -87 -21 -189t12 -130t44 -52q33 -24 126 -24q-15 -72 -15 -135t15 -125q-121 25 -385 25t-380 -25q15 62 15 125t-15 135q117 0 149 18q31 18 37 34t6 38q1 24 -7 42t-48 32t-242 13h-4q-202 1 -242 -13
t-48 -32t-7 -42q0 -48 37 -69t154 -21q-15 -72 -15 -135t15 -125q-121 25 -385 25t-380 -25q15 62 15 125z" />
    <glyph glyph-name="hbar" unicode="&#x127;" horiz-adv-x="1704" 
d="M149 117q0 71 -14 143q111 0 142 18t39 40q8 23 9 59v168q0 113 -39 167q-13 18 -30 23q69 23 69 178v62q0 73 -101 73q-44 0 -124 -15q20 46 20 90q0 108 -20 158q70 -14 117 -14q104 0 104 56t-109 56q-45 0 -112 -9q20 42 20 114t-20 116q76 -12 201 -12q367 0 461 37
q-69 -114 -69 -234q0 -50 79 -50t144 20q-15 -31 -15 -97t15 -91q-35 5 -62 5q-65 0 -111 -34t-46 -98v-164q108 44 145 198q57 -35 241 -35t230 35q33 -85 81 -144t129 -83q-65 -81 -65 -251v-225q0 -72 37 -94q37 -23 134 -23q-16 -64 -16 -144t16 -116q-155 25 -277 25
q-286 0 -387 -25q13 52 13 136t-13 124q71 0 95 21t24 96v208q0 133 -75 177q-26 16 -57 16q-80 0 -154 -38q-100 -50 -100 -140h-1l1 -223q0 -65 40 -91t112 -26q-13 -46 -13 -128t13 -132q-160 25 -288 25q-319 0 -427 -25q14 46 14 117z" />
    <glyph glyph-name="Itilde" unicode="&#x128;" horiz-adv-x="1022" 
d="M125 125q0 63 -15 135q212 0 212 147q0 308 -69 328q38 13 50 60q19 80 19 256q0 129 -203 129h-19q15 72 15 135t-15 125q57 -21 211 -28q155 -7 213 -7q115 0 234 11q120 11 157 24q-15 -62 -15 -125t15 -135h-21q-83 0 -114 -20q-57 -36 -57 -118q0 -167 15 -231
t54 -76q-69 -20 -69 -328q1 -118 123 -140q40 -7 89 -7q-15 -72 -15 -135t15 -125q-121 25 -415 25t-410 -25q15 62 15 125zM-69 1531q25 36 25 137t-11 133t-17 34q139 0 253 58t114 117q168 -6 284 -96l70 -56q40 -33 71 -33q76 0 76 100q0 50 -22 85q23 -26 130 -26
t147 10t45 14q-26 -33 -26 -130t11 -134q11 -36 17 -38q-30 3 -82 3t-108 -18q-58 -18 -97 -45q-80 -55 -80 -115q-168 5 -284 95q-30 24 -70 57t-71 33q-75 0 -75 -103q0 -51 21 -85q-26 26 -157 26q-132 0 -164 -23z" />
    <glyph glyph-name="itilde" unicode="&#x129;" horiz-adv-x="906" 
d="M101 117q0 71 -14 143q118 0 158 18q41 18 55 40q14 23 14 59v278q-4 109 -110 125q-32 4 -66 5h-32q20 50 20 132t-20 128q170 -8 294 -8q250 0 363 43q-63 -124 -77 -236q-6 -47 -5 -108l-1 -359q0 -117 222 -117q-13 -46 -13 -131t13 -129q-135 25 -421 25t-394 -25
q14 46 14 117zM-155 1161q25 36 25 137t-11 133t-17 34q139 0 253 58t114 117q167 -7 284 -97q30 -23 70 -55t71 -33q76 0 76 103q0 50 -22 85q23 -26 130 -26q107 -1 147 9t45 15q-26 -33 -26 -131q0 -97 11 -135q11 -37 17 -39q-30 3 -82 3t-108 -18q-58 -18 -97 -45
q-80 -55 -80 -115q-168 5 -284 95q-30 24 -70 57t-71 33q-75 0 -75 -103q0 -51 21 -85q-26 26 -157 26q-132 0 -164 -23z" />
    <glyph glyph-name="Imacron" unicode="&#x12a;" horiz-adv-x="1022" 
d="M125 125q0 63 -15 135q212 0 212 147q0 308 -69 328q38 13 50 60q19 80 19 256q0 129 -203 129h-19q15 72 15 135t-15 125q57 -21 211 -28q155 -7 213 -7q115 0 234 11q120 11 157 24q-15 -62 -15 -125t15 -135h-21q-83 0 -114 -20q-57 -36 -57 -118q0 -167 15 -231
t54 -76q-69 -20 -69 -328q1 -118 123 -140q40 -7 89 -7q-15 -72 -15 -135t15 -125q-121 25 -415 25t-410 -25q15 62 15 125zM68 1573q26 40 26 143t-27 144q144 -27 457 -27t433 27q-23 -38 -23 -138t23 -149q-178 23 -346 23q-365 0 -543 -23z" />
    <glyph glyph-name="imacron" unicode="&#x12b;" horiz-adv-x="906" 
d="M101 117q0 71 -14 143q118 0 158 18q41 18 55 40q14 23 14 59v278q-4 109 -110 125q-32 4 -66 5h-32q20 50 20 132t-20 128q170 -8 294 -8q250 0 363 43q-63 -124 -77 -236q-6 -47 -5 -108l-1 -359q0 -117 222 -117q-13 -46 -13 -131t13 -129q-135 25 -421 25t-394 -25
q14 46 14 117zM-17 1262q26 40 26 143t-27 144q144 -27 457 -27t433 27q-23 -38 -23 -138t23 -149q-178 23 -346 23q-365 0 -543 -23z" />
    <glyph glyph-name="Ibreve" unicode="&#x12c;" horiz-adv-x="1022" 
d="M125 125q0 63 -15 135q212 0 212 147q0 308 -69 328q38 13 50 60q19 80 19 256q0 129 -203 129h-19q15 72 15 135t-15 125q57 -21 211 -28q155 -7 213 -7q115 0 234 11q120 11 157 24q-15 -62 -15 -125t15 -135h-21q-83 0 -114 -20q-57 -36 -57 -118q0 -167 15 -231
t54 -76q-69 -20 -69 -328q1 -118 123 -140q40 -7 89 -7q-15 -72 -15 -135t15 -125q-121 25 -415 25t-410 -25q15 62 15 125zM953 1821q0 -87 36 -130q-63 0 -113 -31q-49 -30 -80 -52q-120 -84 -258 -84q-182 0 -306 84q-32 22 -83 52q-51 31 -114 31q36 43 36 130t-50 167
q49 -27 164 -27t163 27q-5 -34 -5 -62q0 -67 42 -119q42 -51 127 -51q86 0 127 51q42 51 42 122q0 24 -5 59q40 -27 159 -27t168 27q-50 -80 -50 -167z" />
    <glyph glyph-name="ibreve" unicode="&#x12d;" horiz-adv-x="906" 
d="M101 117q0 71 -14 143q118 0 158 18q41 18 55 40q14 23 14 59v278q-4 109 -110 125q-32 4 -66 5h-32q20 50 20 132t-20 128q170 -8 294 -8q250 0 363 43q-63 -124 -77 -236q-6 -47 -5 -108l-1 -359q0 -117 222 -117q-13 -46 -13 -131t13 -129q-135 25 -421 25t-394 -25
q14 46 14 117zM837 1491q0 -87 36 -130q-61 0 -125 -51q-28 -22 -56 -48q-114 -98 -241 -98q-173 0 -287 98q-30 26 -58 48q-67 51 -127 51q36 43 36 130t-50 167q47 -27 150 -27q104 0 147 27q-5 -36 -5 -66q-1 -30 7 -66t27 -65t51 -47t84 -18q92 0 131 58q38 58 38 145
q0 24 -5 59q31 -27 141 -27q109 0 156 27q-50 -80 -50 -167z" />
    <glyph glyph-name="Iogonek" unicode="&#x12e;" horiz-adv-x="1022" 
d="M125 125q0 63 -15 135q212 0 212 147q0 308 -69 328q38 13 50 60q19 80 19 256q0 129 -203 129h-19q15 72 15 135t-15 125q57 -21 211 -28q155 -7 213 -7q115 0 234 11q120 11 157 24q-15 -62 -15 -125t15 -135h-21q-83 0 -114 -20q-57 -36 -57 -118q0 -167 15 -231
t54 -76q-69 -20 -69 -328q1 -118 123 -140q40 -7 89 -7q-15 -72 -15 -135t15 -125q-53 11 -114 11q-137 0 -245 -81t-107 -197q1 -52 21 -82t48 -30q52 0 82 54q29 54 29 155q45 -13 124 -13t149 13q-13 -35 -13 -126t6 -112q-71 0 -129 -46q-57 -46 -85 -96q-50 36 -147 36
q-134 0 -170 -36q-14 38 -99 75q-85 36 -170 36q20 44 20 148q0 103 -20 143q111 20 205 110q28 28 46 58q-161 0 -256 -20q15 62 15 125z" />
    <glyph glyph-name="iogonek" unicode="&#x12f;" horiz-adv-x="853" 
d="M64 117q0 71 -14 143q118 0 158 18t54 40q14 23 15 59v278q-3 109 -109 125q-32 4 -67 5h-32q20 50 20 132t-20 128q170 -8 294 -8q250 0 363 43q-62 -124 -76 -236q-6 -47 -6 -108l-1 -359q0 -117 222 -117q-13 -46 -13 -131t13 -129q-44 7 -109 7q-143 0 -243 -77
t-100 -183t72 -106q45 0 63 29q35 56 35 170q45 -13 124 -13t149 13q-13 -39 -13 -134t6 -114q-71 0 -129 -46q-57 -46 -85 -96q-45 36 -140 36q-131 0 -167 -36q-14 38 -99 75q-85 36 -170 36q20 42 20 153t-20 158q97 0 228 94q38 28 69 58q-227 -5 -306 -24q14 46 14 117
zM130 1185q29 53 29 204t-30 211q90 -30 290 -30t260 30q-25 -54 -25 -201t25 -214q-64 20 -190 20q-295 0 -359 -20z" />
    <glyph glyph-name="Idotaccent" unicode="&#x130;" horiz-adv-x="1022" 
d="M125 125q0 63 -15 135q212 0 212 147q0 308 -69 328q38 13 50 60q19 80 19 256q0 129 -203 129h-19q15 72 15 135t-15 125q57 -21 211 -28q155 -7 213 -7q115 0 234 11q120 11 157 24q-15 -62 -15 -125t15 -135h-21q-83 0 -114 -20q-57 -36 -57 -118q0 -167 15 -231
t54 -76q-69 -20 -69 -328q1 -118 123 -140q40 -7 89 -7q-15 -72 -15 -135t15 -125q-121 25 -415 25t-410 -25q15 62 15 125zM268 1595q29 53 29 204t-30 211q90 -30 260 -30t230 30q-25 -54 -25 -201t25 -214q-64 20 -170 20q-255 0 -319 -20z" />
    <glyph glyph-name="dotlessi" unicode="&#x131;" horiz-adv-x="853" 
d="M101 117q0 71 -14 143q118 0 158 18q41 18 55 40q14 23 14 59v278q-4 109 -110 125q-32 4 -66 5h-32q20 50 20 132t-20 128q170 -8 294 -8q250 0 363 43q-63 -124 -77 -236q-6 -47 -5 -108l-1 -359q0 -117 222 -117q-13 -46 -13 -131t13 -129q-135 25 -421 25t-394 -25
q14 46 14 117z" />
    <glyph glyph-name="IJ" unicode="&#x132;" horiz-adv-x="2390" 
d="M125 125q0 63 -15 135q212 0 212 147q0 308 -69 328q38 13 50 60q19 80 19 256q0 129 -203 129h-19q15 72 15 135t-15 125q57 -21 211 -28q155 -7 213 -7q115 0 234 11q120 11 157 24q-15 -62 -15 -125t15 -135h-21q-83 0 -114 -20q-57 -36 -57 -118q0 -167 15 -231
t54 -76q-69 -20 -69 -328q1 -118 123 -140q40 -7 89 -7q-15 -72 -15 -135t15 -125q-121 25 -415 25t-410 -25q15 62 15 125zM1765 735q77 26 77 187t-45 205q-45 43 -144 48t-203 5q15 72 15 139t-15 121q115 -35 472 -35q358 0 473 35q-15 -54 -15 -121t15 -139h-20
q-75 0 -104 -27q-28 -27 -28 -110q0 -166 17 -231t54 -77q-40 0 -56 -164q-4 -46 -4 -92q0 -176 46 -211q-88 -12 -161 -96t-94 -182q-54 35 -325 35t-358 -35q-8 178 -148 254q-52 28 -127 29q25 83 25 132q0 82 -11 156t-22 94q75 -25 234 -25t256 25q-13 -58 -13 -142
q0 -83 22 -153q-42 -6 -62 -30t-21 -49t33 -43t96 -18q210 0 210 285q0 210 -69 230z" />
    <glyph glyph-name="ij" unicode="&#x133;" horiz-adv-x="1700" 
d="M10 117q0 71 -14 143q118 0 158 18t54 40q14 23 15 59v278q-3 109 -109 125q-32 4 -67 5h-32q20 50 20 132t-20 128q170 -8 294 -8q250 0 363 43q-62 -124 -76 -236q-6 -47 -6 -108l-1 -359q0 -96 122 -112q37 -5 80 -5q-13 -46 -13 -131t13 -129q-135 25 -411 25
t-384 -25q14 46 14 117zM76 1185q29 53 29 204t-30 211q90 -30 290 -30t260 30q-25 -54 -25 -201t25 -214q-64 20 -190 20q-295 0 -359 -20zM729 -120q38 -16 181 -16t199 24q1 -50 59 -70q16 -6 30 -5q71 0 71 92t-75 92q-16 0 -32 -4q15 19 15 133q0 188 -8 239t-48 62
q37 19 48 55q10 36 10 137v36q0 111 -82 125q-26 4 -57 5h-31q20 50 20 132t-20 128q56 -9 150 -9q338 0 455 44q-63 -123 -63 -432q1 -133 9 -163q8 -31 20 -41t32 -17q-55 -14 -59 -174q-1 -41 -1 -77t2 -82t8 -99q24 -280 77 -330q-7 1 -15 1h-16q-118 0 -229 -67
t-157 -149q-77 30 -245 30q-167 0 -248 -30q18 61 18 150q0 199 -18 280zM1068 1185q29 53 29 204t-30 211q90 -30 265 -30t235 30q-25 -54 -25 -201t25 -214q-64 20 -177 20q-258 0 -322 -20z" />
    <glyph glyph-name="Jcircumflex" unicode="&#x134;" horiz-adv-x="1368" 
d="M743 735q77 26 77 187t-45 205q-45 43 -144 48t-203 5q15 72 15 139t-15 121q115 -35 472 -35q358 0 473 35q-15 -54 -15 -121t15 -139h-20q-75 0 -104 -27q-28 -27 -28 -110q0 -166 17 -231t54 -77q-40 0 -56 -164q-4 -46 -4 -92q0 -176 46 -211q-88 -12 -161 -96
t-94 -182q-54 35 -325 35t-358 -35q-8 178 -148 254q-52 28 -127 29q25 83 25 132q0 82 -11 156t-22 94q75 -25 234 -25t256 25q-13 -58 -13 -142q0 -83 22 -153q-42 -6 -62 -30t-21 -49t33 -43t96 -18q210 0 210 285q0 210 -69 230zM719 1559q-45 16 -161 16
q-117 0 -165 -16q56 41 185 214t129 233v4q54 -27 208 -27t210 27l-1 -5q0 -79 216 -331q81 -94 110 -115q-48 16 -160 16t-177 -16q-9 13 -23 36q-58 99 -164 158q-114 -57 -182 -159q-15 -22 -25 -35z" />
    <glyph glyph-name="jcircumflex" unicode="&#x135;" horiz-adv-x="1036" 
d="M-147 -120q38 -16 181 -16t199 24q1 -50 59 -70q16 -6 30 -5q71 0 71 92t-75 92q-16 0 -32 -4q15 19 15 133q0 188 -8 239t-48 62q37 19 48 55q10 36 10 137v36q0 111 -82 125q-26 4 -57 5h-31q20 50 20 132t-20 128q56 -9 150 -9q338 0 455 44q-63 -123 -63 -432
q1 -133 9 -163q8 -31 20 -41t32 -17q-55 -14 -59 -174q-1 -41 -1 -77t2 -82t8 -99q24 -280 77 -330q-7 1 -15 1h-16q-118 0 -229 -67t-157 -149q-77 30 -245 30q-167 0 -248 -30q18 61 18 150q0 199 -18 280zM251 1160q-35 15 -151 15t-151 -15q61 56 137 159
q75 102 125 180t50 122v4q42 -25 177 -25q136 0 184 25v-4q0 -81 216 -342q72 -87 106 -119q-42 15 -150 15t-162 -15q-55 109 -182 192q-136 -81 -199 -192z" />
    <glyph glyph-name="Kcommaaccent" unicode="&#x136;" horiz-adv-x="1879" 
d="M115 125q0 63 -15 135q93 0 126 24q32 24 44 52t12 71q0 308 -69 328q38 13 50 60q19 80 19 256q0 107 -100 124q-30 5 -63 5h-19q15 72 15 135t-15 125q95 -35 327 -35q338 0 438 35q-15 -62 -15 -125t15 -135h-21q-82 0 -110 -20q-51 -35 -51 -108q0 -139 10 -209
q22 -7 47 -7h44q20 0 43 1t51 1t66 3q98 59 167 146q68 86 68 116q0 51 -27 64t-115 13q15 45 15 129t-17 131q78 -35 320 -35q243 0 377 35q-15 -30 -15 -78v-64q0 -73 15 -118q-120 0 -202 -107t-82 -202q-116 -27 -231 -122q58 -58 184 -110t184 -52q-6 -29 -6 -71
q0 -97 63 -177q63 -79 151 -79q-11 -33 -11 -130t12 -130q-32 13 -142 19q-108 6 -138 6q-30 -1 -62 -1t-70 -1q-195 -5 -237 -23q21 40 21 127t-43 133q67 39 75 114q2 24 3 58q0 34 -26 74t-68 72q-95 72 -201 71l-66 1q-89 0 -145 -24q-12 -78 -12 -170q-1 -92 9 -120
t41 -52t132 -24q-15 -72 -15 -135t15 -125q-121 25 -385 25t-380 -25q15 62 15 125zM667 -112q90 -30 285 -30t255 30q-30 -34 -30 -138t30 -152q-43 -9 -79 -58t-36 -90q-18 14 -108 14h-16q-80 0 -94 -14q20 36 20 118q0 36 -23 53q-165 -10 -203 -23q29 41 29 143
t-30 147z" />
    <glyph glyph-name="kcommaaccent" unicode="&#x137;" horiz-adv-x="1703" 
d="M124 117q0 71 -14 143q112 0 142 18q29 18 37 40q8 23 8 59v168q0 113 -39 167q-13 18 -30 23q69 23 69 178v297q-3 112 -81 126q-26 4 -58 4h-31q20 50 20 132t-20 128q76 -12 187 -12q327 0 418 37q-63 -123 -63 -422l-1 -553q22 -3 48 -3h65q62 -1 111 27
q94 53 94 104t-83 51q-24 0 -54 -6q10 41 10 117t-12 140q130 -35 367 -35t311 35q-18 -63 -18 -164t16 -153q-114 1 -201 -33t-134 -68t-65 -78q51 -92 299 -92q0 -73 52 -127q52 -55 141 -55q-20 -62 -20 -162t20 -148q-58 25 -215 25t-220 -25q0 81 -40 140t-90 60
q27 46 27 85q0 77 -80 131q-80 53 -221 53q-50 0 -108 -12v-80q0 -96 110 -112q34 -5 77 -5q-13 -46 -13 -131t13 -129q-135 25 -386 25t-359 -25q14 46 14 117zM602 -112q90 -30 285 -30t255 30q-30 -34 -30 -138t30 -152q-43 -9 -79 -58t-36 -90q-19 14 -109 14h-15
q-80 0 -94 -14q20 36 20 118q0 36 -23 53q-165 -10 -203 -23q29 41 29 143t-30 147z" />
    <glyph glyph-name="kgreenlandic" unicode="&#x138;" horiz-adv-x="1683" 
d="M124 117q0 71 -14 143q112 0 142 18q29 18 37 40q8 23 8 59v303q-3 112 -81 126q-26 4 -58 4h-31q20 50 20 132t-20 128q114 -25 224 -25q296 0 381 35q-55 -106 -61 -290q-2 -56 -2 -117v-25q16 -2 34 -2l58 1q62 -1 111 27q94 53 94 104t-83 51q-24 0 -54 -6
q10 41 10 117t-12 140q130 -35 367 -35t311 35q-18 -63 -18 -164t16 -153q-114 1 -201 -33t-134 -68t-65 -78q51 -92 299 -92q0 -73 52 -127q52 -55 141 -55q-20 -62 -20 -162t20 -148q-58 25 -230 25t-235 -25q0 80 -49 140t-101 60q27 46 27 85q0 184 -251 184
q-40 0 -88 -8v-84q0 -96 110 -112q34 -5 77 -5q-13 -46 -13 -131t13 -129q-135 25 -386 25t-359 -25q14 46 14 117z" />
    <glyph glyph-name="Lacute" unicode="&#x139;" horiz-adv-x="1532" 
d="M115 125q0 63 -15 135q93 0 126 24q32 24 44 52t12 71q0 308 -69 328q38 13 50 60q19 80 19 256q0 107 -100 124q-30 5 -63 5h-19q15 72 15 135t-15 125q95 -35 331 -35t341 14t125 21q-15 -62 -15 -125t15 -135h-21q-193 0 -193 -129q0 -249 38 -295q13 -16 31 -21
q-69 -20 -69 -328q0 -80 13 -145q76 -38 162 -38t127 6q42 6 67 27q45 38 45 173q0 134 -37 216q-8 18 -11 34q68 -25 223 -25t221 25l-19 -57q-64 -192 -64 -340q2 -39 2 -79t3 -102q3 -61 27 -102q-119 25 -573 25q-644 0 -769 -25q15 62 15 125zM542 1532
q-198 0 -228 -22q44 44 96 310q20 106 20 143q0 38 -3 47q81 -27 265 -27t249 27q-74 -46 -178 -240q-105 -193 -105 -254v-3t1 -3q-38 22 -117 22z" />
    <glyph glyph-name="lacute" unicode="&#x13a;" horiz-adv-x="853" 
d="M104 117q0 71 -14 143q112 0 142 18q29 18 37 40q8 23 8 59v168q0 172 -69 190q42 12 55 45q14 33 14 113v207q-3 112 -81 126q-26 4 -58 4h-31q20 50 20 132t-20 128q76 -12 187 -12q327 0 418 37q-63 -117 -63 -422l-1 -202q0 -82 15 -114t54 -42q-69 -20 -69 -190
v-168q0 -96 110 -112q34 -5 77 -5q-13 -46 -13 -131t13 -129q-135 25 -386 25t-359 -25q14 46 14 117zM283 1575q40 44 77 259q15 88 15 126t-3 50q71 -25 267 -25t253 25q-70 -54 -161 -213q-90 -159 -90 -215q0 -5 1 -7q-40 20 -182 20t-177 -20z" />
    <glyph glyph-name="Lcommaaccent" unicode="&#x13b;" horiz-adv-x="1532" 
d="M115 125q0 63 -15 135q93 0 126 24q32 24 44 52t12 71q0 308 -69 328q38 13 50 60q19 80 19 256q0 107 -100 124q-30 5 -63 5h-19q15 72 15 135t-15 125q95 -35 331 -35t341 14t125 21q-15 -62 -15 -125t15 -135h-21q-193 0 -193 -129q0 -249 38 -295q13 -16 31 -21
q-69 -20 -69 -328q0 -80 13 -145q76 -38 162 -38t127 6q42 6 67 27q45 38 45 173q0 134 -37 216q-8 18 -11 34q68 -25 223 -25t221 25l-19 -57q-64 -192 -64 -340q2 -39 2 -79t3 -102q3 -61 27 -102q-119 25 -573 25q-644 0 -769 -25q15 62 15 125zM546 -112q90 -30 285 -30
t255 30q-30 -34 -30 -138t30 -152q-43 -9 -79 -58t-36 -90q-19 14 -109 14h-15q-80 0 -94 -14q20 36 20 118q0 36 -23 53q-165 -10 -203 -23q29 41 29 143t-30 147z" />
    <glyph glyph-name="lcommaaccent" unicode="&#x13c;" horiz-adv-x="853" 
d="M104 117q0 71 -14 143q112 0 142 18q29 18 37 40q8 23 8 59v168q0 172 -69 190q42 12 55 45q14 33 14 113v317q-3 112 -81 126q-26 4 -58 4h-31q20 50 20 132t-20 128q76 -12 187 -12q327 0 418 37q-63 -117 -63 -422l-1 -312q0 -113 36 -141q13 -10 33 -15
q-69 -20 -69 -190v-168q0 -96 110 -112q34 -5 77 -5q-13 -46 -13 -131t13 -129q-135 25 -386 25t-359 -25q14 46 14 117zM181 -112q90 -30 285 -30t255 30q-30 -34 -30 -138t30 -152q-43 -9 -79 -58t-36 -90q-18 14 -108 14h-16q-80 0 -94 -14q20 36 20 118q0 36 -23 53
q-165 -10 -203 -23q29 41 29 143t-30 147z" />
    <glyph glyph-name="Lcaron" unicode="&#x13d;" horiz-adv-x="1532" 
d="M115 125q0 63 -15 135q93 0 126 24q32 24 44 52t12 71q0 308 -69 328q38 13 50 60q19 80 19 256q0 107 -100 124q-30 5 -63 5h-19q15 72 15 135t-15 125q95 -35 331 -35t341 14t125 21q-15 -62 -15 -125t15 -135h-21q-193 0 -193 -129q0 -249 38 -295q13 -16 31 -21
q-69 -20 -69 -328q0 -80 13 -145q76 -38 162 -38t127 6q42 6 67 27q45 38 45 173q0 134 -37 216q-8 18 -11 34q68 -25 223 -25t221 25l-19 -57q-64 -192 -64 -340q2 -39 2 -79t3 -102q3 -61 27 -102q-119 25 -573 25q-644 0 -769 -25q15 62 15 125zM1168 1060q0 99 -25 128
q-82 -8 -131 -21q29 65 29 213q0 147 -30 217q81 -30 219 -30t201 30q-30 -56 -30 -212t30 -228q-97 -30 -124 -178q-7 -39 -11 -72q-24 12 -92 12t-86 -12q50 54 50 153z" />
    <glyph glyph-name="lcaron" unicode="&#x13e;" horiz-adv-x="1358" 
d="M104 117q0 71 -14 143q112 0 142 18q29 18 37 40q8 23 8 59v168q0 172 -69 190q42 12 55 45q14 33 14 113v317q-3 112 -81 126q-26 4 -58 4h-31q20 50 20 132t-20 128q76 -12 187 -12q327 0 418 37q-63 -117 -63 -422l-1 -312q0 -113 36 -141q13 -10 33 -15
q-69 -20 -69 -190v-168q0 -96 110 -112q34 -5 77 -5q-13 -46 -13 -131t13 -129q-135 25 -386 25t-359 -25q14 46 14 117zM988 1093q0 99 -25 128q-82 -8 -131 -21q29 65 29 213q0 147 -30 217q81 -30 220 -30q140 0 200 30q-30 -56 -30 -212t30 -228q-97 -30 -124 -178
q-7 -39 -11 -72q-24 12 -92 12t-86 -12q50 54 50 153z" />
    <glyph glyph-name="Ldot" unicode="&#x13f;" horiz-adv-x="1532" 
d="M115 125q0 63 -15 135q93 0 126 24q32 24 44 52t12 71q0 308 -69 328q38 13 50 60q19 80 19 256q0 107 -100 124q-30 5 -63 5h-19q15 72 15 135t-15 125q95 -35 331 -35t341 14t125 21q-15 -62 -15 -125t15 -135h-21q-193 0 -193 -129q0 -249 38 -295q13 -16 31 -21
q-69 -20 -69 -328q0 -80 13 -145q76 -38 162 -38t127 6q42 6 67 27q45 38 45 173q0 134 -37 216q-8 18 -11 34q68 -25 223 -25t221 25l-19 -57q-64 -192 -64 -340q2 -39 2 -79t3 -102q3 -61 27 -102q-119 25 -573 25q-644 0 -769 -25q15 62 15 125zM985 808q29 65 29 213
q0 147 -30 217q90 -30 265 -30t235 30q-25 -58 -25 -211q0 -152 25 -219q-80 25 -250 25t-249 -25z" />
    <glyph glyph-name="ldot" unicode="&#x140;" horiz-adv-x="853" 
d="M104 117q0 71 -14 143q112 0 142 18q29 18 37 40q8 23 8 59v168q0 172 -69 190q42 12 55 45q14 33 14 113v317q-3 112 -81 126q-26 4 -58 4h-31q20 50 20 132t-20 128q76 -12 187 -12q327 0 418 37q-63 -117 -63 -422l-1 -312q0 -113 36 -141q13 -10 33 -15
q-69 -20 -69 -190v-168q0 -96 110 -112q34 -5 77 -5q-13 -46 -13 -131t13 -129q-135 25 -386 25t-359 -25q14 46 14 117z" />
    <glyph glyph-name="Lslash" unicode="&#x141;" horiz-adv-x="1531" 
d="M115 125q0 63 -15 135q93 0 126 24q32 24 44 52t12 61q0 63 -9 89q-9 27 -44 27q-36 0 -142 -71q20 80 20 179t-20 149q3 -1 19 -1q63 0 108 38q42 29 55 83t13 128q0 73 -13 98q-13 24 -43 44t-107 20h-19q15 72 15 135t-15 125q95 -35 327 -35q338 0 438 35
q-15 -62 -15 -125t15 -135h-21q-82 0 -110 -20q-51 -35 -51 -107t46 -72t161 63q19 11 44 21t41 25q-20 -107 -20 -192q0 -86 20 -136q-23 7 -54 7q-65 -1 -117 -25q-107 -51 -117 -201q-4 -63 -4 -139t13 -142q76 -38 161 -38t127 8t68 32q49 46 49 199q0 90 -13 152
q70 -25 141 -25q178 0 244 25q-88 -264 -88 -407t37 -208q-119 25 -563 25q-634 0 -759 -25q15 62 15 125z" />
    <glyph glyph-name="lslash" unicode="&#x142;" horiz-adv-x="1020" 
d="M142 117q0 71 -14 143q112 0 142 18q29 18 37 40q8 23 8 59v87q0 89 -53 89q-66 0 -187 -121q20 80 20 179t-20 149q3 -2 7 -2h9q65 0 143 61t79 155l2 236q-3 112 -81 126q-26 4 -58 4h-31q20 50 20 132t-20 128q76 -12 187 -12q327 0 418 37q-63 -123 -63 -422l-1 -35
q-2 -48 38 -48q56 0 179 90q30 22 50 39q-20 -107 -20 -192q0 -86 20 -136q-5 2 -21 2q-16 -1 -58 -17t-85 -44q-103 -70 -103 -148v-337q0 -96 110 -112q34 -5 77 -5q-13 -46 -13 -131t13 -129q-135 25 -386 25t-359 -25q14 46 14 117z" />
    <glyph glyph-name="Nacute" unicode="&#x143;" horiz-adv-x="1875" 
d="M115 125q0 63 -15 135q93 0 126 24q32 24 44 52t12 95q0 284 -69 304q38 13 50 60q19 80 19 256q0 107 -100 124q-30 5 -63 5h-19q15 72 15 135t-15 125q97 -35 260 -35q162 0 315 28q0 -131 141 -357t259 -346q117 -120 145 -120h2l6 -1q24 90 24 442q0 107 -100 124
q-30 5 -63 5h-19q15 72 15 135t-15 125q95 -35 327 -35q338 0 438 35q-15 -62 -15 -125t15 -135h-21q-82 0 -110 -20q-51 -35 -51 -118q0 -298 79 -307q-37 -20 -49 -74q-20 -98 -20 -234q0 -299 57 -427q-78 25 -232 25t-239 -25q-1 140 -209 418q-117 156 -202 242
t-124 117q-31 -73 -31 -370q0 -86 41 -116q41 -31 141 -31q-15 -72 -15 -135t15 -125q-121 25 -385 25t-380 -25q15 62 15 125zM982 1532q-198 0 -228 -22q44 44 96 310q20 106 20 143q0 38 -3 47q81 -27 265 -27t249 27q-74 -46 -178 -240q-105 -193 -105 -254v-3t1 -3
q-38 22 -117 22z" />
    <glyph glyph-name="nacute" unicode="&#x144;" horiz-adv-x="1704" 
d="M153 117q0 71 -14 143q111 0 142 18t39 40q8 23 9 59v278q-3 111 -81 125q-26 4 -58 5h-31q20 50 20 131t-20 127q81 -11 165 -11q260 0 360 38q-12 -34 -12 -79t13 -115q107 34 145 152q10 30 16 52q57 -35 241 -35t230 35q33 -85 81 -144t129 -83q-65 -81 -65 -251
v-225q0 -70 41 -93q41 -24 140 -24q-16 -64 -16 -144t16 -116q-155 25 -283 25q-292 0 -391 -25q13 52 13 136t-13 124q71 0 95 21t24 96v208q0 133 -75 177q-26 16 -57 16q-80 0 -154 -38q-100 -50 -100 -140h-1l1 -223q0 -65 40 -91t112 -26q-13 -46 -13 -128t13 -132
q-160 25 -288 25q-319 0 -427 -25q14 46 14 117zM718 1190q40 44 77 278q15 94 15 135q0 40 -3 52q71 -25 267 -25t253 25q-68 -51 -159 -224q-92 -173 -92 -234q0 -5 1 -7q-40 20 -182 20t-177 -20z" />
    <glyph glyph-name="Ncommaaccent" unicode="&#x145;" horiz-adv-x="1875" 
d="M115 125q0 63 -15 135q93 0 126 24q32 24 44 52t12 95q0 284 -69 304q38 13 50 60q19 80 19 256q0 107 -100 124q-30 5 -63 5h-19q15 72 15 135t-15 125q97 -35 260 -35q162 0 315 28q0 -131 141 -357t259 -346q117 -120 145 -120h2l6 -1q24 90 24 442q0 107 -100 124
q-30 5 -63 5h-19q15 72 15 135t-15 125q95 -35 327 -35q338 0 438 35q-15 -62 -15 -125t15 -135h-21q-82 0 -110 -20q-51 -35 -51 -118q0 -298 79 -307q-37 -20 -49 -74q-20 -98 -20 -234q0 -299 57 -427q-78 25 -232 25t-239 -25q-1 140 -209 418q-117 156 -202 242
t-124 117q-31 -73 -31 -370q0 -86 41 -116q41 -31 141 -31q-15 -72 -15 -135t15 -125q-121 25 -385 25t-380 -25q15 62 15 125zM717 -112q90 -30 285 -30t255 30q-30 -34 -30 -138t30 -152q-43 -9 -79 -58t-36 -90q-18 14 -108 14h-16q-80 0 -94 -14q20 36 20 118
q0 36 -23 53q-165 -10 -203 -23q29 41 29 143t-30 147z" />
    <glyph glyph-name="ncommaaccent" unicode="&#x146;" horiz-adv-x="1704" 
d="M153 117q0 71 -14 143q111 0 142 18t39 40q8 23 9 59v278q-3 111 -81 125q-26 4 -58 5h-31q20 50 20 131t-20 127q81 -11 165 -11q260 0 360 38q-12 -34 -12 -79t13 -115q107 34 145 152q10 30 16 52q57 -35 241 -35t230 35q33 -85 81 -144t129 -83q-65 -81 -65 -251
v-225q0 -70 41 -93q41 -24 140 -24q-16 -64 -16 -144t16 -116q-155 25 -283 25q-292 0 -391 -25q13 52 13 136t-13 124q71 0 95 21t24 96v208q0 133 -75 177q-26 16 -57 16q-80 0 -154 -38q-100 -50 -100 -140h-1l1 -223q0 -65 40 -91t112 -26q-13 -46 -13 -128t13 -132
q-160 25 -288 25q-319 0 -427 -25q14 46 14 117zM621 -112q90 -30 285 -30t255 30q-30 -34 -30 -138t30 -152q-43 -9 -79 -58t-36 -90q-18 14 -108 14h-16q-80 0 -94 -14q20 36 20 118q0 36 -23 53q-165 -10 -203 -23q29 41 29 143t-30 147z" />
    <glyph glyph-name="Ncaron" unicode="&#x147;" horiz-adv-x="1875" 
d="M115 125q0 63 -15 135q93 0 126 24q32 24 44 52t12 95q0 284 -69 304q38 13 50 60q19 80 19 256q0 107 -100 124q-30 5 -63 5h-19q15 72 15 135t-15 125q97 -35 260 -35q162 0 315 28q0 -131 141 -357t259 -346q117 -120 145 -120h2l6 -1q24 90 24 442q0 107 -100 124
q-30 5 -63 5h-19q15 72 15 135t-15 125q95 -35 327 -35q338 0 438 35q-15 -62 -15 -125t15 -135h-21q-82 0 -110 -20q-51 -35 -51 -118q0 -298 79 -307q-37 -20 -49 -74q-20 -98 -20 -234q0 -299 57 -427q-78 25 -232 25t-239 -25q-1 140 -209 418q-117 156 -202 242
t-124 117q-31 -73 -31 -370q0 -86 41 -116q41 -31 141 -31q-15 -72 -15 -135t15 -125q-121 25 -385 25t-380 -25q15 62 15 125zM960 1584q-148 0 -198 -25v3q0 82 -242 332q-91 95 -127 116q61 -15 225 -15t224 15q8 -18 18 -47q45 -124 112 -201q59 81 96 201q9 29 15 47
q91 -15 245 -15t214 15q-59 -36 -184 -172q-195 -213 -195 -276v-3q-55 25 -203 25z" />
    <glyph glyph-name="ncaron" unicode="&#x148;" horiz-adv-x="1704" 
d="M153 117q0 71 -14 143q111 0 142 18t39 40q8 23 9 59v278q-3 111 -81 125q-26 4 -58 5h-31q20 50 20 131t-20 127q81 -11 165 -11q260 0 360 38q-12 -34 -12 -79t13 -115q107 34 145 152q10 30 16 52q57 -35 241 -35t230 35q33 -85 81 -144t129 -83q-65 -81 -65 -251
v-225q0 -70 41 -93q41 -24 140 -24q-16 -64 -16 -144t16 -116q-155 25 -283 25q-292 0 -391 -25q13 52 13 136t-13 124q71 0 95 21t24 96v208q0 133 -75 177q-26 16 -57 16q-80 0 -154 -38q-100 -50 -100 -140h-1l1 -223q0 -65 40 -91t112 -26q-13 -46 -13 -128t13 -132
q-160 25 -288 25q-319 0 -427 -25q14 46 14 117zM879 1185q-136 0 -177 -25v4q0 86 -242 342q-88 94 -127 119q57 -15 213 -15t216 15l17 -51q40 -121 113 -206q63 89 111 257q90 -15 236 -15t203 15q-66 -44 -223 -220q-156 -176 -156 -242v-3q-48 25 -184 25z" />
    <glyph glyph-name="Eng" unicode="&#x14a;" horiz-adv-x="1875" 
d="M115 125q0 63 -15 135q93 0 126 24q32 24 44 52t12 71q0 308 -69 328q38 13 50 60q19 80 19 256q0 107 -100 124q-30 5 -63 5h-19q15 72 15 135t-15 125q95 -35 249 -35t306 28q0 -172 253 -508q152 -202 265 -290q32 -25 47 -25h2l6 -1q24 90 24 442q0 107 -100 124
q-30 5 -63 5h-19q15 72 15 135t-15 125q95 -35 327 -35q338 0 438 35q-15 -62 -15 -125t15 -135h-21q-82 0 -110 -20q-51 -35 -51 -118q0 -163 20 -229q20 -65 59 -78q-89 -96 -92 -420q-1 -93 -1 -189q0 -363 50 -395q-95 -13 -200 -101q-106 -89 -125 -180q-59 38 -289 38
q-229 0 -324 -38q-4 51 -87 93q-83 41 -198 43q25 81 25 136q0 158 -25 196q108 -25 292 -25q183 0 258 25q-27 -68 -27 -128q0 -117 122 -117q68 -1 110 55t42 156q1 100 -27 188q-28 90 -73 178q-85 164 -215 313q-131 149 -233 216q-32 -72 -32 -372q0 -86 41 -116
q41 -31 141 -31q-15 -72 -15 -135t15 -125q-121 25 -385 25t-380 -25q15 62 15 125z" />
    <glyph glyph-name="eng" unicode="&#x14b;" horiz-adv-x="1704" 
d="M1027 360q58 29 58 198q0 220 -139 220q-74 0 -132 -29q-56 -29 -86 -63t-30 -86h-1l1 -223q0 -65 40 -91t112 -26q-13 -46 -13 -128t13 -132q-160 25 -288 25q-319 0 -427 -25q14 46 14 117t-14 143q111 0 142 18t39 40q8 23 9 59v278q-3 111 -81 125q-26 4 -58 5h-31
q20 50 20 131t-20 127q81 -11 165 -11q260 0 360 38q-12 -34 -12 -79t13 -115q107 34 145 152q10 30 16 52q57 -35 241 -35t230 35q33 -85 81 -144t129 -83q-66 -82 -66 -245q0 -152 12 -193t51 -55q-62 -20 -62 -293q0 -187 29 -310t58 -149q-26 2 -72 2q-118 0 -255 -46
t-173 -114q-77 30 -203 30t-207 -30q28 89 28 156q0 66 -3 92t-7 49t-9 41t-9 35q38 -16 197 -16t188 16q0 -105 82 -105q99 0 99 129q1 68 -29 97t-60 29t-61 -5q32 42 32 209t-56 183z" />
    <glyph glyph-name="Omacron" unicode="&#x14c;" 
d="M853 220q127 0 189 92q76 115 76 390q0 472 -200 503q-32 5 -65 5t-65 -5t-62 -23q-138 -82 -138 -445q0 -433 160 -497q48 -20 105 -20zM1557 584q0 -130 16 -210t35 -106q-113 -13 -242 -105q-130 -92 -153 -183q-80 45 -314 45q-326 0 -406 -45q-23 91 -153 183
t-242 105q19 26 35 106t16 210q0 129 -66 151q70 19 70 198q0 178 -55 239h8q97 0 244 110q85 63 116 109t33 69q61 -35 233 -50q58 -5 121 -5q123 0 222 18q98 18 132 37q3 -46 75 -116q112 -110 242 -157q42 -15 76 -15h8q-55 -61 -55 -248q0 -112 39 -166q13 -18 31 -23
q-66 -22 -66 -151zM408 1573q26 40 26 143t-27 144q144 -27 457 -27t433 27q-23 -38 -23 -138t23 -149q-178 23 -346 23q-365 0 -543 -23z" />
    <glyph glyph-name="omacron" unicode="&#x14d;" horiz-adv-x="1536" 
d="M625 275q46 -75 154 -75q156 0 182 194q8 59 8 128q0 154 -41 236t-149 82q-109 0 -154 -73q-46 -73 -46 -246q0 -171 46 -246zM124 166q55 80 55 326t-34 321q-10 22 -20 43q88 9 194 76t129 148q79 -35 282 -35q276 0 364 35q22 -80 131 -148q109 -67 192 -76
q-40 -79 -46 -162q-7 -82 -7 -170q0 -168 11 -245t43 -113q-79 0 -194 -58q-114 -58 -134 -118q-95 35 -324 35t-314 -35q-31 68 -139 122t-189 54zM324 1262q26 40 26 143t-27 144q144 -27 457 -27t433 27q-23 -38 -23 -138t23 -149q-178 23 -346 23q-365 0 -543 -23z" />
    <glyph glyph-name="Obreve" unicode="&#x14e;" 
d="M853 220q127 0 189 92q76 115 76 390q0 472 -200 503q-32 5 -65 5t-65 -5t-62 -23q-138 -82 -138 -445q0 -433 160 -497q48 -20 105 -20zM1557 584q0 -130 16 -210t35 -106q-113 -13 -242 -105q-130 -92 -153 -183q-80 45 -314 45q-326 0 -406 -45q-23 91 -153 183
t-242 105q19 26 35 106t16 210q0 129 -66 151q70 19 70 198q0 178 -55 239h8q97 0 244 110q85 63 116 109t33 69q61 -35 233 -50q58 -5 121 -5q123 0 222 18q98 18 132 37q3 -46 75 -116q112 -110 242 -157q42 -15 76 -15h8q-55 -61 -55 -248q0 -112 39 -166q13 -18 31 -23
q-66 -22 -66 -151zM1294 1821q0 -87 36 -130q-63 0 -113 -31q-49 -30 -80 -52q-120 -84 -258 -84q-182 0 -306 84q-32 22 -83 52q-51 31 -114 31q36 43 36 130t-50 167q49 -27 164 -27t163 27q-5 -34 -5 -62q0 -67 42 -119q42 -51 127 -51q86 0 127 51q42 51 42 122
q0 24 -5 59q40 -27 159 -27t168 27q-50 -80 -50 -167z" />
    <glyph glyph-name="obreve" unicode="&#x14f;" horiz-adv-x="1536" 
d="M625 275q46 -75 154 -75q156 0 182 194q8 59 8 128q0 154 -41 236t-149 82q-109 0 -154 -73q-46 -73 -46 -246q0 -171 46 -246zM124 166q55 80 55 326t-34 321q-10 22 -20 43q88 9 194 76t129 148q79 -35 282 -35q276 0 364 35q22 -80 131 -148q109 -67 192 -76
q-40 -79 -46 -162q-7 -82 -7 -170q0 -168 11 -245t43 -113q-79 0 -194 -58q-114 -58 -134 -118q-95 35 -324 35t-314 -35q-31 68 -139 122t-189 54zM1179 1491q0 -87 36 -130q-61 0 -125 -51q-28 -22 -56 -48q-114 -98 -241 -98q-173 0 -287 98q-30 26 -58 48
q-67 51 -127 51q36 43 36 130t-50 167q47 -27 150 -27q104 0 147 27q-5 -36 -5 -66q-1 -30 7 -66t27 -65t51 -47t84 -18q92 0 131 58q38 58 38 145q0 24 -5 59q32 -27 141 -27t156 27q-50 -80 -50 -167z" />
    <glyph glyph-name="Ohungarumlaut" unicode="&#x150;" 
d="M853 220q127 0 189 92q76 115 76 390q0 472 -200 503q-32 5 -65 5t-65 -5t-62 -23q-138 -82 -138 -445q0 -433 160 -497q48 -20 105 -20zM1557 584q0 -130 16 -210t35 -106q-113 -13 -242 -105q-130 -92 -153 -183q-80 45 -314 45q-326 0 -406 -45q-23 91 -153 183
t-242 105q19 26 35 106t16 210q0 129 -66 151q70 19 70 198q0 178 -55 239h8q97 0 244 110q85 63 116 109t33 69q61 -35 233 -50q58 -5 121 -5q123 0 222 18q98 18 132 37q3 -46 75 -116q112 -110 242 -157q42 -15 76 -15h8q-55 -61 -55 -248q0 -112 39 -166q13 -18 31 -23
q-66 -22 -66 -151zM631 1565q-166 0 -201 -20q64 69 158 305q42 107 42 132t-1 28q80 -25 196 -25q117 0 174 25q-72 -60 -172 -233q-99 -173 -99 -226q0 -4 1 -6q-40 20 -98 20zM1143 1565q-166 0 -201 -20q64 69 158 305q42 107 42 132t-1 28q80 -25 196 -25q117 0 174 25
q-72 -60 -172 -233q-99 -173 -99 -226q0 -4 1 -6q-40 20 -98 20z" />
    <glyph glyph-name="ohungarumlaut" unicode="&#x151;" horiz-adv-x="1536" 
d="M625 275q46 -75 154 -75q156 0 182 194q8 59 8 128q0 154 -41 236t-149 82q-109 0 -154 -73q-46 -73 -46 -246q0 -171 46 -246zM124 166q55 80 55 326t-34 321q-10 22 -20 43q88 9 194 76t129 148q79 -35 282 -35q276 0 364 35q22 -80 131 -148q109 -67 192 -76
q-40 -79 -46 -162q-7 -82 -7 -170q0 -168 11 -245t43 -113q-79 0 -194 -58q-114 -58 -134 -118q-95 35 -324 35t-314 -35q-31 68 -139 122t-189 54zM552 1210q-166 0 -201 -20q63 70 157 306q42 107 43 131q0 25 -1 28q80 -25 196 -25q117 0 174 25q-72 -60 -172 -233
q-99 -173 -99 -226q0 -4 1 -6q-40 20 -98 20zM1064 1210q-166 0 -201 -20q63 70 157 306q42 107 43 131q0 25 -1 28q80 -25 196 -25q117 0 174 25q-72 -60 -172 -233q-99 -173 -99 -226q0 -4 1 -6q-40 20 -98 20z" />
    <glyph glyph-name="OE" unicode="&#x152;" horiz-adv-x="2385" 
d="M1058 312q72 114 72 390q0 400 -130 480q-45 28 -102 28q-56 0 -88 -5t-60 -23q-130 -80 -130 -446q0 -312 71 -424q59 -92 184 -92t183 92zM2276 0q-125 25 -467 25t-448 -18q-107 -18 -126 -27q-80 45 -314 45q-326 0 -406 -45q-24 91 -148 184q-125 92 -237 104
q19 26 35 106t16 210q0 129 -66 151q70 19 70 198q0 178 -55 239h8q96 0 238 110q82 63 113 109q30 46 32 69q61 -35 233 -50q58 -5 121 -5q302 0 354 55q51 -41 304 -52q66 -3 111 -3q46 0 100 1q54 2 116 4q349 14 416 30q-25 -131 -25 -208q0 -187 25 -287
q-68 25 -174 25t-181 -25q16 47 16 105q0 98 -62 135q-42 25 -93 25q-161 0 -228 -49q-10 -58 -10 -151q0 -94 9 -139q49 -22 155 -22t164 30q-15 -41 -15 -104q0 -150 15 -185q-59 33 -168 33q-108 0 -151 -19q-9 -54 -9 -167t13 -175q78 -42 200 -42q123 0 164 92
q16 36 16 104q0 67 -16 119q75 -25 181 -25t174 25q-25 -108 -25 -253q0 -144 25 -282z" />
    <glyph glyph-name="oe" unicode="&#x153;" horiz-adv-x="2207" 
d="M590 275q46 -75 154 -75q156 0 182 194q8 59 8 128q0 154 -41 236t-149 82q-109 0 -154 -73q-46 -73 -46 -246q0 -171 46 -246zM1687 745q0 108 -153 108q-107 0 -153 -44t-52 -155h209q80 0 114 20t35 71zM89 166q55 80 55 326t-34 321q-10 22 -20 43q88 9 194 76
t129 148q79 -35 339 -35q121 1 182 15q62 14 75 20q20 -71 117 -138q106 74 122 138q88 -35 282 -35t264 35q31 -64 125 -108q95 -44 165 -47q-35 -74 -35 -226t25 -214q-168 24 -370 24l-221 -1q-135 0 -153 -80q-6 -24 -6 -50q0 -80 54 -124t145 -44q92 0 140 45t48 110
q45 -15 120 -15q190 0 243 15q-15 -82 -15 -161q0 -78 15 -121h-18q-152 1 -318 -57q-48 -16 -72 -36q-54 35 -179 35t-205 -35q-24 59 -142 118q-115 -56 -135 -118q-75 35 -289 35t-299 -35q-31 68 -139 122t-189 54z" />
    <glyph glyph-name="Racute" unicode="&#x154;" horiz-adv-x="1703" 
d="M847 775q135 1 195 61t60 154q0 150 -116 202q-42 18 -133 18q-92 0 -169 -31q-9 -58 -9 -161t10 -220q80 -23 162 -23zM115 125q0 63 -15 135q93 0 126 24q32 24 44 52t12 71q0 308 -69 328q39 13 50 54q19 71 19 179t-12 136t-44 52q-33 24 -126 24q15 72 15 135
t-15 125q66 -26 478 -34q50 -1 84 -1q520 0 611 35q3 -57 96 -129t156 -76q-30 -60 -30 -244t30 -241q-114 -20 -218 -92q-33 -23 -57 -49q47 -66 123 -89q23 -7 43 -7q0 -119 70 -186t195 -67q-15 -40 -15 -126t17 -134q-33 13 -128 19t-127 6q-251 0 -310 -25q4 40 4 78
q0 192 -116 239q23 43 23 127q0 135 -193 135q-62 0 -130 -9q-23 -56 -23 -131q-1 -75 9 -103t41 -52t132 -24q-15 -72 -15 -135t15 -125q-121 25 -385 25t-380 -25q15 62 15 125zM794 1963q0 38 -3 47q81 -27 265 -27t249 27q-74 -46 -178 -240q-105 -193 -105 -254v-3
t1 -3q-37 22 -117 22q-198 0 -228 -22q44 44 96 310q20 105 20 143z" />
    <glyph glyph-name="racute" unicode="&#x155;" horiz-adv-x="1364" 
d="M124 117q0 71 -14 143q111 0 142 18q32 18 40 40q8 23 8 59v278q-4 111 -82 125q-26 4 -57 5h-31q20 50 20 131t-20 127q58 -8 131 -8q273 0 394 45q-12 -34 -12 -79t14 -126q91 25 156 69q117 79 130 136q60 -35 190 -35t171 35q-24 -60 -24 -217t10 -214t14 -64
q-78 19 -187 19q-108 0 -179 -19q0 107 -24 150t-77 43q-52 0 -106 -57t-59 -145l1 -199q0 -96 163 -112q50 -5 109 -5q-13 -46 -13 -128t13 -132q-160 25 -443 25t-392 -25q14 46 14 117zM399 1190q40 44 77 278q15 94 15 135q0 40 -3 52q71 -25 267 -25t253 25
q-68 -51 -159 -224q-92 -173 -92 -234q0 -5 1 -7q-40 20 -182 20t-177 -20z" />
    <glyph glyph-name="Rcommaaccent" unicode="&#x156;" horiz-adv-x="1703" 
d="M847 775q135 1 195 61t60 154q0 150 -116 202q-42 18 -133 18q-92 0 -169 -31q-9 -58 -9 -161t10 -220q80 -23 162 -23zM115 125q0 63 -15 135q93 0 126 24q32 24 44 52t12 71q0 308 -69 328q39 13 50 54q19 71 19 179t-12 136t-44 52q-33 24 -126 24q15 72 15 135
t-15 125q66 -26 478 -34q50 -1 84 -1q520 0 611 35q3 -57 96 -129t156 -76q-30 -60 -30 -244t30 -241q-114 -20 -218 -92q-33 -23 -57 -49q47 -66 123 -89q23 -7 43 -7q0 -119 70 -186t195 -67q-15 -40 -15 -126t17 -134q-33 13 -128 19t-127 6q-251 0 -310 -25q4 40 4 78
q0 192 -116 239q23 43 23 127q0 135 -193 135q-62 0 -130 -9q-23 -56 -23 -131q-1 -75 9 -103t41 -52t132 -24q-15 -72 -15 -135t15 -125q-121 25 -385 25t-380 -25q15 62 15 125zM641 -112q90 -30 285 -30t255 30q-30 -34 -30 -138t30 -152q-43 -9 -79 -58t-36 -90
q-18 14 -108 14h-16q-80 0 -94 -14q20 36 20 118q0 36 -23 53q-165 -10 -203 -23q29 41 29 143t-30 147z" />
    <glyph glyph-name="rcommaaccent" unicode="&#x157;" horiz-adv-x="1364" 
d="M124 117q0 71 -14 143q111 0 142 18q32 18 40 40q8 23 8 59v278q-4 111 -82 125q-26 4 -57 5h-31q20 50 20 131t-20 127q58 -8 131 -8q273 0 394 45q-12 -34 -12 -79t14 -126q91 25 156 69q117 79 130 136q60 -35 190 -35t171 35q-24 -60 -24 -217t10 -214t14 -64
q-78 19 -187 19q-108 0 -179 -19q0 107 -24 150t-77 43q-52 0 -106 -57t-59 -145l1 -199q0 -96 163 -112q50 -5 109 -5q-13 -46 -13 -128t13 -132q-160 25 -443 25t-392 -25q14 46 14 117zM240 -112q90 -30 285 -30t255 30q-30 -34 -30 -138t30 -152q-43 -9 -79 -58t-36 -90
q-19 14 -109 14h-15q-80 0 -94 -14q20 36 20 118q0 36 -23 53q-165 -10 -203 -23q29 41 29 143t-30 147z" />
    <glyph glyph-name="Rcaron" unicode="&#x158;" horiz-adv-x="1703" 
d="M847 775q135 1 195 61t60 154q0 150 -116 202q-42 18 -133 18q-92 0 -169 -31q-9 -58 -9 -161t10 -220q80 -23 162 -23zM115 125q0 63 -15 135q93 0 126 24q32 24 44 52t12 71q0 308 -69 328q39 13 50 54q19 71 19 179t-12 136t-44 52q-33 24 -126 24q15 72 15 135
t-15 125q66 -26 478 -34q50 -1 84 -1q520 0 611 35q3 -57 96 -129t156 -76q-30 -60 -30 -244t30 -241q-114 -20 -218 -92q-33 -23 -57 -49q47 -66 123 -89q23 -7 43 -7q0 -119 70 -186t195 -67q-15 -40 -15 -126t17 -134q-33 13 -128 19t-127 6q-251 0 -310 -25q4 40 4 78
q0 192 -116 239q23 43 23 127q0 135 -193 135q-62 0 -130 -9q-23 -56 -23 -131q-1 -75 9 -103t41 -52t132 -24q-15 -72 -15 -135t15 -125q-121 25 -385 25t-380 -25q15 62 15 125zM686 1562q0 82 -242 332q-91 95 -127 116q61 -15 225 -15t224 15q8 -18 18 -47
q45 -124 112 -201q59 81 96 201q9 29 15 47q90 -15 245 -15q154 0 214 15q-59 -36 -184 -172q-195 -213 -195 -276v-3q-55 25 -203 25t-198 -25v3z" />
    <glyph glyph-name="rcaron" unicode="&#x159;" horiz-adv-x="1364" 
d="M124 117q0 71 -14 143q111 0 142 18q32 18 40 40q8 23 8 59v278q-4 111 -82 125q-26 4 -57 5h-31q20 50 20 131t-20 127q58 -8 131 -8q273 0 394 45q-12 -34 -12 -79t14 -126q91 25 156 69q117 79 130 136q60 -35 190 -35t171 35q-24 -60 -24 -217t10 -214t14 -64
q-78 19 -187 19q-108 0 -179 -19q0 107 -24 150t-77 43q-52 0 -106 -57t-59 -145l1 -199q0 -96 163 -112q50 -5 109 -5q-13 -46 -13 -128t13 -132q-160 25 -443 25t-392 -25q14 46 14 117zM561 1185q-136 0 -177 -25v4q0 86 -242 342q-88 94 -127 119q57 -15 213 -15t216 15
l17 -51q40 -121 113 -206q63 89 111 257q90 -15 236 -15t203 15q-66 -44 -223 -220q-156 -176 -156 -242v-3q-48 25 -184 25z" />
    <glyph glyph-name="Sacute" unicode="&#x15a;" horiz-adv-x="1529" 
d="M148 0q20 80 20 225t-20 210q95 -15 194 -15t167 15q0 -91 80 -153t198 -62q117 0 164 20q46 20 68 47q22 29 22 69q0 86 -93 147q-93 62 -284 62q-192 0 -321 -33q-4 64 -74 136t-148 72h-10q47 20 47 197t-33 235h7q82 0 204 110q69 62 95 108q26 47 28 70
q92 -55 247 -55q155 -1 228 21t94 34q18 -72 72 -119q39 33 55 99q33 -20 115 -20q81 0 144 20q-18 -72 -18 -220t18 -235q-86 15 -180 15t-161 -15q0 93 -80 159t-225 66q-146 0 -205 -73q-22 -27 -22 -65q0 -82 82 -136q82 -53 298 -53t300 25q7 -66 83 -142t157 -76h10
q-47 -20 -47 -199t33 -233h-7q-85 0 -204 -104q-120 -104 -123 -174q-75 45 -273 45t-276 -45q-20 68 -72 110q-41 -30 -55 -90q-50 25 -146 25t-153 -25zM742 1963q0 38 -3 47q81 -27 265 -27t249 27q-74 -46 -178 -240q-105 -193 -105 -254v-3t1 -3q-37 22 -117 22
q-198 0 -228 -22q44 44 96 310q20 105 20 143z" />
    <glyph glyph-name="sacute" unicode="&#x15b;" horiz-adv-x="1190" 
d="M764 283q0 149 -380 149q-112 0 -145 -17q0 48 -61 107q-61 58 -105 67q32 36 32 147t-32 159q72 15 122 53q87 68 110 132q34 -20 140 -27t150 -7q163 0 190 54q40 -56 177 -72q37 -4 71 -4t65 7l-6 -39q-8 -52 -7 -125q0 -73 13 -120q-31 20 -166 20q-136 0 -168 -20
q0 65 -46 103t-122 38q-114 0 -114 -79q0 -66 120 -115t241 -49t153 18q5 -53 64 -109q59 -55 106 -74q-28 -43 -28 -146t28 -142q-116 -32 -190 -118q-24 -28 -39 -62q-97 34 -260 34t-199 -44q-57 34 -192 34t-171 -14q17 45 17 146t-17 167q50 -25 184 -25t192 25
q-1 -99 83 -131q30 -12 71 -11q119 0 119 90zM470 1190q40 44 77 278q15 94 15 135q0 40 -3 52q71 -25 267 -25t253 25q-68 -51 -159 -224q-92 -173 -92 -234q0 -5 1 -7q-40 20 -182 20t-177 -20z" />
    <glyph glyph-name="Scircumflex" unicode="&#x15c;" horiz-adv-x="1529" 
d="M148 0q20 80 20 225t-20 210q95 -15 194 -15t167 15q0 -91 80 -153t198 -62q117 0 164 20q46 20 68 47q22 29 22 69q0 86 -93 147q-93 62 -284 62q-192 0 -321 -33q-4 64 -74 136t-148 72h-10q47 20 47 197t-33 235h7q82 0 204 110q69 62 95 108q26 47 28 70
q92 -55 247 -55q155 -1 228 21t94 34q18 -72 72 -119q39 33 55 99q33 -20 115 -20q81 0 144 20q-18 -72 -18 -220t18 -235q-86 15 -180 15t-161 -15q0 93 -80 159t-225 66q-146 0 -205 -73q-22 -27 -22 -65q0 -82 82 -136q82 -53 298 -53t300 25q7 -66 83 -142t157 -76h10
q-47 -20 -47 -199t33 -233h-7q-85 0 -204 -104q-120 -104 -123 -174q-75 45 -273 45t-276 -45q-20 68 -72 110q-41 -30 -55 -90q-50 25 -146 25t-153 -25zM637 1559q-45 16 -161 16q-117 0 -165 -16q56 41 185 214t129 233v4q54 -27 208 -27t210 27l-1 -5q0 -79 216 -331
q81 -94 110 -115q-48 16 -160 16t-177 -16q-9 13 -23 36q-58 99 -164 158q-114 -57 -182 -159q-15 -22 -25 -35z" />
    <glyph glyph-name="scircumflex" unicode="&#x15d;" horiz-adv-x="1190" 
d="M764 283q0 149 -380 149q-112 0 -145 -17q0 48 -61 107q-61 58 -105 67q32 36 32 147t-32 159q72 15 122 53q87 68 110 132q34 -20 140 -27t150 -7q163 0 190 54q40 -56 177 -72q37 -4 71 -4t65 7l-6 -39q-8 -52 -7 -125q0 -73 13 -120q-31 20 -166 20q-136 0 -168 -20
q0 65 -46 103t-122 38q-114 0 -114 -79q0 -66 120 -115t241 -49t153 18q5 -53 64 -109q59 -55 106 -74q-28 -43 -28 -146t28 -142q-116 -32 -190 -118q-24 -28 -39 -62q-97 34 -260 34t-199 -44q-57 34 -192 34t-171 -14q17 45 17 146t-17 167q50 -25 184 -25t192 25
q-1 -99 83 -131q30 -12 71 -11q119 0 119 90zM445 1160q-35 15 -151 15t-151 -15q61 56 137 159q75 102 125 180t50 122v4q42 -25 177 -25q136 0 184 25v-4q0 -81 216 -342q72 -87 106 -119q-42 15 -150 15t-162 -15q-55 109 -182 192q-136 -81 -199 -192z" />
    <glyph glyph-name="Scedilla" unicode="&#x15e;" horiz-adv-x="1529" 
d="M148 0q20 80 20 225t-20 210q95 -15 194 -15t167 15q0 -91 80 -153t198 -62q117 0 164 20q46 20 68 47q22 29 22 69q0 86 -93 147q-93 62 -284 62q-192 0 -321 -33q-4 64 -74 136t-148 72h-10q47 20 47 197t-33 235h7q82 0 204 110q69 62 95 108q26 47 28 70
q92 -55 247 -55q155 -1 228 21t94 34q18 -72 72 -119q39 33 55 99q33 -20 115 -20q81 0 144 20q-18 -72 -18 -220t18 -235q-86 15 -180 15t-161 -15q0 93 -80 159t-225 66q-146 0 -205 -73q-22 -27 -22 -65q0 -82 82 -136q82 -53 298 -53t300 25q7 -66 83 -142t157 -76h10
q-47 -20 -47 -199t33 -233h-7q-85 0 -204 -104q-120 -104 -123 -174q-54 32 -172 41q-17 -56 -17 -138q0 -83 9 -121t41 -64q-139 -33 -200 -248q-89 19 -202 19q-114 0 -183 -19q32 44 32 166t-22 161q62 -10 117 -10q99 0 138 43t39 148q-1 9 -1 23v23t-1 12
q-86 -12 -127 -36q-20 68 -72 110q-41 -30 -55 -90q-50 25 -146 25t-153 -25z" />
    <glyph glyph-name="scedilla" unicode="&#x15f;" horiz-adv-x="1190" 
d="M764 283q0 149 -380 149q-112 0 -145 -17q0 48 -61 107q-61 58 -105 67q32 36 32 147t-32 159q72 15 122 53q87 68 110 132q34 -20 140 -27t150 -7q163 0 190 54q40 -56 177 -72q37 -4 71 -4t65 7l-6 -39q-8 -52 -7 -125q0 -73 13 -120q-31 20 -166 20q-136 0 -168 -20
q0 65 -46 103t-122 38q-114 0 -114 -79q0 -66 120 -115t241 -49t153 18q5 -53 64 -109q59 -55 106 -74q-28 -43 -28 -146t28 -142q-116 -32 -190 -118q-24 -28 -39 -62q-31 11 -80 19q-20 -56 -20 -143q0 -88 9 -126t41 -64q-139 -33 -200 -248q-89 19 -202 19
q-114 0 -183 -19q32 44 32 166t-22 161q62 -10 117 -10q99 0 138 43t39 148q0 38 -3 86q-96 -7 -125 -42q-57 34 -192 34t-171 -14q17 45 17 146t-17 167q50 -25 184 -25t192 25q-1 -99 83 -131q30 -12 71 -11q119 0 119 90z" />
    <glyph glyph-name="Scaron" unicode="&#x160;" horiz-adv-x="1529" 
d="M148 0q20 80 20 225t-20 210q95 -15 194 -15t167 15q0 -91 80 -153t198 -62q117 0 164 20q46 20 68 47q22 29 22 69q0 86 -93 147q-93 62 -284 62q-192 0 -321 -33q-4 64 -74 136t-148 72h-10q47 20 47 197t-33 235h7q82 0 204 110q69 62 95 108q26 47 28 70
q92 -55 247 -55q155 -1 228 21t94 34q18 -72 72 -119q39 33 55 99q33 -20 115 -20q81 0 144 20q-18 -72 -18 -220t18 -235q-86 15 -180 15t-161 -15q0 93 -80 159t-225 66q-146 0 -205 -73q-22 -27 -22 -65q0 -82 82 -136q82 -53 298 -53t300 25q7 -66 83 -142t157 -76h10
q-47 -20 -47 -199t33 -233h-7q-85 0 -204 -104q-120 -104 -123 -174q-75 45 -273 45t-276 -45q-20 68 -72 110q-41 -30 -55 -90q-50 25 -146 25t-153 -25zM832 1584q-148 0 -198 -25v3q0 82 -242 332q-91 95 -127 116q61 -15 225 -15t224 15q8 -18 18 -47q45 -124 112 -201
q59 81 96 201q9 29 15 47q90 -15 244 -15q155 0 215 15q-59 -36 -184 -172q-195 -213 -195 -276v-3q-55 25 -203 25z" />
    <glyph glyph-name="scaron" unicode="&#x161;" horiz-adv-x="1190" 
d="M764 283q0 149 -380 149q-112 0 -145 -17q0 48 -61 107q-61 58 -105 67q32 36 32 147t-32 159q72 15 122 53q87 68 110 132q34 -20 140 -27t150 -7q163 0 190 54q40 -56 177 -72q37 -4 71 -4t65 7l-6 -39q-8 -52 -7 -125q0 -73 13 -120q-31 20 -166 20q-136 0 -168 -20
q0 65 -46 103t-122 38q-114 0 -114 -79q0 -66 120 -115t241 -49t153 18q5 -53 64 -109q59 -55 106 -74q-28 -43 -28 -146t28 -142q-116 -32 -190 -118q-24 -28 -39 -62q-97 34 -260 34t-199 -44q-57 34 -192 34t-171 -14q17 45 17 146t-17 167q50 -25 184 -25t192 25
q-1 -99 83 -131q30 -12 71 -11q119 0 119 90zM632 1185q-136 0 -177 -25v4q0 86 -242 342q-88 94 -127 119q57 -15 213 -15t216 15l17 -51q40 -121 113 -206q63 89 111 257q90 -15 236 -15t203 15q-66 -44 -223 -220q-156 -176 -156 -242v-3q-48 25 -184 25z" />
    </font>
</defs>
</svg>
